M48
; DRILL file KiCad 10.0.4 date 2026-07-23T03:57:50
; FORMAT={-:-/ absolute / metric / decimal}
; #@! TF.CreationDate,2026-07-23T03:57:50+05:30
; #@! TF.GenerationSoftware,Kicad,Pcbnew,10.0.4
; #@! TF.FileFunction,MixedPlating,1,2
FMAT,2
METRIC
; #@! TA.AperFunction,Plated,PTH,ComponentDrill
T1C0.200
; #@! TA.AperFunction,Plated,PTH,ViaDrill
T2C0.300
; #@! TA.AperFunction,Plated,PTH,ComponentDrill
T3C0.600
; #@! TA.AperFunction,Plated,PTH,ComponentDrill
T4C0.730
; #@! TA.AperFunction,Plated,PTH,ComponentDrill
T5C0.900
; #@! TA.AperFunction,Plated,PTH,ComponentDrill
T6C1.000
; #@! TA.AperFunction,Plated,PTH,ComponentDrill
T7C4.500
; #@! TA.AperFunction,NonPlated,NPTH,ComponentDrill
T8C0.650
; #@! TA.AperFunction,NonPlated,NPTH,ComponentDrill
T9C0.900
; #@! TA.AperFunction,NonPlated,NPTH,ComponentDrill
T10C3.000
; #@! TA.AperFunction,NonPlated,NPTH,ComponentDrill
T11C3.200
%
G90
G05
T1
X50.1Y-103.54
X50.1Y-104.94
X50.8Y-102.84
X50.8Y-104.24
X50.8Y-105.64
X51.5Y-103.54
X51.5Y-104.94
X52.2Y-102.84
X52.2Y-104.24
X52.2Y-105.64
X52.9Y-103.54
X52.9Y-104.94
T2
X13.824Y-69.135
X14.661Y-97.778
X15.2Y-57.5
X15.2Y-58.6
X15.61Y-64.366
X15.9Y-61.6
X19.056Y-112.762
X19.515Y-98.361
X20.138Y-105.066
X20.913Y-103.441
X20.913Y-104.341
X21.0Y-39.0
X21.0Y-42.5
X21.5Y-90.5
X22.145Y-103.833
X22.5Y-32.5
X22.5Y-50.0
X23.0Y-38.5
X23.5Y-107.0
X23.685Y-59.017
X24.948Y-60.0
X25.0Y-40.5
X25.768Y-59.184
X25.806Y-31.423
X25.964Y-75.628
X26.0Y-50.0
X26.0Y-54.5
X26.818Y-73.587
X28.0Y-66.0
X29.235Y-43.156
X29.279Y-27.12
X29.5Y-47.0
X29.5Y-68.0
X30.5Y-44.0
X30.845Y-71.725
X31.0Y-47.0
X33.0Y-23.0
X33.792Y-92.357
X33.992Y-62.762
X34.29Y-61.913
X36.023Y-25.189
X36.739Y-51.203
X36.94Y-95.364
X36.945Y-55.108
X37.721Y-103.957
X39.152Y-93.157
X39.3Y-42.95
X39.876Y-97.451
X39.943Y-111.253
X40.0Y-58.0
X40.2Y-42.95
X40.485Y-92.519
X40.834Y-94.391
X41.219Y-45.086
X41.5Y-21.5
X41.652Y-43.29
X42.031Y-92.235
X42.055Y-57.629
X42.199Y-35.06
X42.472Y-73.504
X42.5Y-60.0
X42.633Y-62.556
X42.796Y-22.203
X43.038Y-74.07
X43.052Y-109.837
X43.367Y-92.898
X43.414Y-45.742
X43.5Y-107.5
X43.604Y-64.719
X44.288Y-92.88
X44.6Y-37.5
X44.79Y-71.349
X44.827Y-69.716
X44.83Y-73.958
X45.09Y-75.388
X45.58Y-95.844
X45.842Y-45.495
X46.334Y-91.467
X46.584Y-47.868
X46.869Y-43.452
X47.1Y-76.8
X47.538Y-67.612
X47.724Y-81.413
X47.893Y-74.4
X47.916Y-63.431
X48.003Y-92.118
X48.293Y-69.893
X49.122Y-54.134
X49.367Y-85.571
X49.435Y-72.354
X49.5Y-61.5
X49.525Y-67.172
X49.555Y-27.418
X49.734Y-83.334
X49.814Y-65.836
X50.0Y-88.5
X50.3Y-51.324
X50.3Y-58.9
X50.557Y-84.782
X50.637Y-80.739
X50.802Y-27.291
X50.856Y-72.008
X51.031Y-64.699
X51.2Y-60.0
X51.4Y-90.0
X51.474Y-100.951
X51.7Y-75.215
X52.0Y-91.0
X52.016Y-92.116
X52.016Y-95.785
X52.275Y-86.286
X52.8Y-60.2
X53.563Y-92.988
X54.4Y-87.0
X54.421Y-66.014
X54.508Y-55.532
X54.756Y-24.482
X54.924Y-73.799
X54.944Y-72.693
X54.944Y-75.595
X55.0Y-64.0
X55.0Y-90.0
X55.074Y-56.098
X55.108Y-92.454
X55.2Y-61.2
X55.357Y-71.278
X56.154Y-100.145
X56.373Y-101.961
X56.4Y-75.4
X56.4Y-82.4
X56.468Y-69.464
X56.77Y-99.397
X56.8Y-74.2
X56.8Y-77.6
X56.946Y-101.11
X57.375Y-92.182
X57.722Y-72.027
X57.786Y-70.894
X58.134Y-64.047
X58.151Y-58.81
X58.571Y-52.939
X59.567Y-66.632
X59.8Y-52.2
X60.316Y-64.794
X60.446Y-66.64
X60.5Y-110.5
X60.646Y-98.374
X60.676Y-100.936
X61.0Y-67.944
X61.0Y-68.844
X61.194Y-106.186
X62.684Y-66.276
X63.263Y-94.002
X63.362Y-53.284
X64.0Y-56.4
X64.033Y-112.007
X64.16Y-101.753
X65.52Y-106.498
X65.987Y-112.24
X67.2Y-53.6
X67.958Y-94.047
X68.5Y-22.5
X68.5Y-26.5
X69.5Y-101.0
X70.0Y-54.0
X71.932Y-29.996
X72.0Y-104.0
X72.756Y-72.27
X72.938Y-69.138
X73.842Y-112.518
X74.0Y-70.3
X74.1Y-71.6
X75.0Y-44.0
X75.5Y-90.0
X76.435Y-59.101
X76.503Y-34.437
X77.0Y-63.0
X77.284Y-59.95
X77.5Y-61.5
X83.5Y-71.0
X83.892Y-69.53
X90.0Y-61.5
X92.0Y-63.5
T4
X33.0Y-69.1
X34.5Y-69.1
X36.0Y-69.1
X37.5Y-69.1
X39.0Y-69.1
X40.5Y-69.1
X59.5Y-70.0
X61.0Y-70.0
X62.5Y-70.0
X64.0Y-70.0
X65.5Y-70.0
X67.0Y-70.0
T5
X11.602Y-23.298
X13.398Y-21.502
X15.0Y-35.33
X15.0Y-37.87
X15.0Y-42.93
X15.0Y-45.47
X16.972Y-28.668
X18.768Y-26.872
X21.43Y-13.73
X21.43Y-16.27
X30.95Y-13.73
X30.95Y-16.27
X69.05Y-13.73
X69.05Y-16.27
X78.57Y-13.73
X78.57Y-16.27
X81.232Y-26.872
X83.028Y-28.668
X85.0Y-35.33
X85.0Y-37.87
X85.0Y-42.93
X85.0Y-45.47
X86.602Y-21.502
X88.398Y-23.298
T6
X89.0Y-114.0
X91.5Y-114.0
T7
X85.68Y-104.8
X92.88Y-104.8
T8
X67.11Y-113.07
X72.89Y-113.07
T9
X4.5Y-116.73
X7.5Y-116.73
X14.0Y-116.73
X17.0Y-116.73
T10
X50.0Y-4.0
T11
X17.25Y-75.0
X17.25Y-93.0
X82.75Y-75.0
X82.75Y-93.0
T3
X65.68Y-112.02G85X65.68Y-113.12
G05
X65.68Y-116.35G85X65.68Y-117.15
G05
X74.32Y-112.02G85X74.32Y-113.12
G05
X74.32Y-116.35G85X74.32Y-117.15
G05
M30
