%TF.GenerationSoftware,KiCad,Pcbnew,10.0.4*%
%TF.CreationDate,2026-07-23T03:57:50+05:30*%
%TF.ProjectId,micromouse-pcb-simplified,6d696372-6f6d-46f7-9573-652d7063622d,rev?*%
%TF.SameCoordinates,Original*%
%TF.FileFunction,Profile,NP*%
%FSLAX46Y46*%
G04 Gerber Fmt 4.6, Leading zero omitted, Abs format (unit mm)*
G04 Created by KiCad (PCBNEW 10.0.4) date 2026-07-23 03:57:50*
%MOMM*%
%LPD*%
G01*
G04 APERTURE LIST*
%TA.AperFunction,Profile*%
%ADD10C,0.150000*%
%TD*%
G04 APERTURE END LIST*
D10*
X0Y-16000000D02*
X77000Y-14431700D01*
X0Y-68000000D02*
X0Y-16000000D01*
X0Y-100000000D02*
X13000000Y-100000000D01*
X0Y-120000000D02*
X0Y-100000000D01*
X77000Y-14431700D02*
X307400Y-12878600D01*
X307400Y-12878600D02*
X689000Y-11355400D01*
X689000Y-11355400D02*
X1217900Y-9877100D01*
X1217900Y-9877100D02*
X1889300Y-8457700D01*
X1889300Y-8457700D02*
X2696500Y-7110900D01*
X2696500Y-7110900D02*
X3631800Y-5849700D01*
X3631800Y-5849700D02*
X4686300Y-4686300D01*
X4686300Y-4686300D02*
X5849700Y-3631800D01*
X5849700Y-3631800D02*
X7110900Y-2696500D01*
X7110900Y-2696500D02*
X8457700Y-1889300D01*
X8457700Y-1889300D02*
X9877100Y-1217900D01*
X9877100Y-1217900D02*
X11355400Y-689000D01*
X11355400Y-689000D02*
X12878600Y-307400D01*
X12878600Y-307400D02*
X14431700Y-77000D01*
X13000000Y-68000000D02*
X0Y-68000000D01*
X13000000Y-100000000D02*
X13000000Y-68000000D01*
X14431700Y-77000D02*
X16000000Y0D01*
X16000000Y0D02*
X84000000Y0D01*
X39650000Y-113800000D02*
X39650000Y-120000000D01*
X39650000Y-120000000D02*
X0Y-120000000D01*
X60350000Y-113800000D02*
X39650000Y-113800000D01*
X60350000Y-120000000D02*
X60350000Y-113800000D01*
X84000000Y0D02*
X85568300Y-77000D01*
X85568300Y-77000D02*
X87121400Y-307400D01*
X87000000Y-68000000D02*
X87000000Y-100000000D01*
X87000000Y-100000000D02*
X100000000Y-100000000D01*
X87121400Y-307400D02*
X88644600Y-689000D01*
X88644600Y-689000D02*
X90122900Y-1217900D01*
X90122900Y-1217900D02*
X91542300Y-1889300D01*
X91542300Y-1889300D02*
X92889100Y-2696500D01*
X92889100Y-2696500D02*
X94150300Y-3631800D01*
X94150300Y-3631800D02*
X95313700Y-4686300D01*
X95313700Y-4686300D02*
X96368200Y-5849700D01*
X96368200Y-5849700D02*
X97303500Y-7110900D01*
X97303500Y-7110900D02*
X98110700Y-8457700D01*
X98110700Y-8457700D02*
X98782100Y-9877100D01*
X98782100Y-9877100D02*
X99311000Y-11355400D01*
X99311000Y-11355400D02*
X99692600Y-12878600D01*
X99692600Y-12878600D02*
X99923000Y-14431700D01*
X99923000Y-14431700D02*
X100000000Y-16000000D01*
X100000000Y-16000000D02*
X100000000Y-68000000D01*
X100000000Y-68000000D02*
X87000000Y-68000000D01*
X100000000Y-100000000D02*
X100000000Y-120000000D01*
X100000000Y-120000000D02*
X60350000Y-120000000D01*
M02*
