%TF.GenerationSoftware,KiCad,Pcbnew,10.0.4*%
%TF.CreationDate,2026-07-23T03:57:50+05:30*%
%TF.ProjectId,micromouse-pcb-simplified,6d696372-6f6d-46f7-9573-652d7063622d,rev?*%
%TF.SameCoordinates,Original*%
%TF.FileFunction,Paste,Top*%
%TF.FilePolarity,Positive*%
%FSLAX46Y46*%
G04 Gerber Fmt 4.6, Leading zero omitted, Abs format (unit mm)*
G04 Created by KiCad (PCBNEW 10.0.4) date 2026-07-23 03:57:50*
%MOMM*%
%LPD*%
G01*
G04 APERTURE LIST*
G04 Aperture macros list*
%AMRoundRect*
0 Rectangle with rounded corners*
0 $1 Rounding radius*
0 $2 $3 $4 $5 $6 $7 $8 $9 X,Y pos of 4 corners*
0 Add a 4 corners polygon primitive as box body*
4,1,4,$2,$3,$4,$5,$6,$7,$8,$9,$2,$3,0*
0 Add four circle primitives for the rounded corners*
1,1,$1+$1,$2,$3*
1,1,$1+$1,$4,$5*
1,1,$1+$1,$6,$7*
1,1,$1+$1,$8,$9*
0 Add four rect primitives between the rounded corners*
20,1,$1+$1,$2,$3,$4,$5,0*
20,1,$1+$1,$4,$5,$6,$7,0*
20,1,$1+$1,$6,$7,$8,$9,0*
20,1,$1+$1,$8,$9,$2,$3,0*%
G04 Aperture macros list end*
%ADD10RoundRect,0.250000X-0.325000X-1.100000X0.325000X-1.100000X0.325000X1.100000X-0.325000X1.100000X0*%
%ADD11RoundRect,0.250000X-0.262500X-0.450000X0.262500X-0.450000X0.262500X0.450000X-0.262500X0.450000X0*%
%ADD12RoundRect,0.250000X-0.250000X-0.475000X0.250000X-0.475000X0.250000X0.475000X-0.250000X0.475000X0*%
%ADD13R,2.500000X2.500000*%
%ADD14R,1.000000X0.800000*%
%ADD15R,0.700000X1.500000*%
%ADD16RoundRect,0.250000X-1.500000X-0.550000X1.500000X-0.550000X1.500000X0.550000X-1.500000X0.550000X0*%
%ADD17RoundRect,0.225000X0.375000X-0.225000X0.375000X0.225000X-0.375000X0.225000X-0.375000X-0.225000X0*%
%ADD18RoundRect,0.150000X-0.587500X-0.150000X0.587500X-0.150000X0.587500X0.150000X-0.587500X0.150000X0*%
%ADD19RoundRect,0.100000X-0.850000X-0.100000X0.850000X-0.100000X0.850000X0.100000X-0.850000X0.100000X0*%
%ADD20RoundRect,0.250000X0.450000X-0.262500X0.450000X0.262500X-0.450000X0.262500X-0.450000X-0.262500X0*%
%ADD21RoundRect,0.300000X-0.300000X-0.550000X0.300000X-0.550000X0.300000X0.550000X-0.300000X0.550000X0*%
%ADD22R,0.900000X1.000000*%
%ADD23R,0.900000X0.900000*%
%ADD24R,1.500000X0.900000*%
%ADD25R,0.900000X1.500000*%
%ADD26R,0.675000X0.250000*%
%ADD27R,0.250000X0.675000*%
%ADD28RoundRect,0.218750X-0.218750X-0.256250X0.218750X-0.256250X0.218750X0.256250X-0.218750X0.256250X0*%
%ADD29RoundRect,0.150000X-0.512500X-0.150000X0.512500X-0.150000X0.512500X0.150000X-0.512500X0.150000X0*%
%ADD30RoundRect,0.090000X-0.660000X-0.360000X0.660000X-0.360000X0.660000X0.360000X-0.660000X0.360000X0*%
%ADD31RoundRect,0.250000X-0.450000X0.262500X-0.450000X-0.262500X0.450000X-0.262500X0.450000X0.262500X0*%
%ADD32RoundRect,0.250000X0.475000X-0.250000X0.475000X0.250000X-0.475000X0.250000X-0.475000X-0.250000X0*%
%ADD33RoundRect,0.150000X-0.150000X-0.425000X0.150000X-0.425000X0.150000X0.425000X-0.150000X0.425000X0*%
%ADD34RoundRect,0.075000X-0.075000X-0.500000X0.075000X-0.500000X0.075000X0.500000X-0.075000X0.500000X0*%
%ADD35O,1.000000X2.100000*%
%ADD36O,1.000000X1.800000*%
%ADD37RoundRect,0.250000X-0.312500X-1.450000X0.312500X-1.450000X0.312500X1.450000X-0.312500X1.450000X0*%
%ADD38RoundRect,0.150000X0.587500X0.150000X-0.587500X0.150000X-0.587500X-0.150000X0.587500X-0.150000X0*%
G04 APERTURE END LIST*
D10*
%TO.C,C1*%
X30525000Y-54000000D03*
X33475000Y-54000000D03*
%TD*%
D11*
%TO.C,R17*%
X25087500Y-30000000D03*
X26912500Y-30000000D03*
%TD*%
D10*
%TO.C,C11*%
X42525000Y-65000000D03*
X45475000Y-65000000D03*
%TD*%
D12*
%TO.C,C9*%
X39050000Y-60000000D03*
X40950000Y-60000000D03*
%TD*%
D11*
%TO.C,R7*%
X24087500Y-50000000D03*
X25912500Y-50000000D03*
%TD*%
D13*
%TO.C,BZ1*%
X72500000Y-58500000D03*
X72500000Y-65500000D03*
X79500000Y-65500000D03*
X79500000Y-58500000D03*
%TD*%
D12*
%TO.C,C2*%
X36050000Y-54000000D03*
X37950000Y-54000000D03*
%TD*%
D14*
%TO.C,SW6*%
X11850000Y-115620000D03*
X11850000Y-117830000D03*
X19150000Y-115620000D03*
X19150000Y-117830000D03*
D15*
X13250000Y-114970000D03*
X16250000Y-114970000D03*
X17750000Y-114970000D03*
%TD*%
D11*
%TO.C,R23*%
X77087500Y-39000000D03*
X78912500Y-39000000D03*
%TD*%
D16*
%TO.C,C30*%
X9800000Y-57500000D03*
X15200000Y-57500000D03*
%TD*%
D17*
%TO.C,D29*%
X84000000Y-71650000D03*
X84000000Y-68350000D03*
%TD*%
D18*
%TO.C,Q35*%
X5062500Y-47050000D03*
X5062500Y-48950000D03*
X6937500Y-48000000D03*
%TD*%
D11*
%TO.C,R62*%
X43087500Y-37500000D03*
X44912500Y-37500000D03*
%TD*%
%TO.C,R24*%
X77087500Y-42000000D03*
X78912500Y-42000000D03*
%TD*%
%TO.C,R10*%
X75087500Y-104000000D03*
X76912500Y-104000000D03*
%TD*%
D12*
%TO.C,C31*%
X43050000Y-20000000D03*
X44950000Y-20000000D03*
%TD*%
D19*
%TO.C,U2*%
X46500000Y-68425000D03*
X46500000Y-69075000D03*
X46500000Y-69725000D03*
X46500000Y-70375000D03*
X46500000Y-71025000D03*
X46500000Y-71675000D03*
X46500000Y-72325000D03*
X46500000Y-72975000D03*
X46500000Y-73625000D03*
X46500000Y-74275000D03*
X46500000Y-74925000D03*
X46500000Y-75575000D03*
X53500000Y-75575000D03*
X53500000Y-74925000D03*
X53500000Y-74275000D03*
X53500000Y-73625000D03*
X53500000Y-72975000D03*
X53500000Y-72325000D03*
X53500000Y-71675000D03*
X53500000Y-71025000D03*
X53500000Y-70375000D03*
X53500000Y-69725000D03*
X53500000Y-69075000D03*
X53500000Y-68425000D03*
%TD*%
D11*
%TO.C,R9*%
X43087500Y-47000000D03*
X44912500Y-47000000D03*
%TD*%
%TO.C,R68*%
X19087500Y-100000000D03*
X20912500Y-100000000D03*
%TD*%
%TO.C,R80*%
X55087500Y-64000000D03*
X56912500Y-64000000D03*
%TD*%
D12*
%TO.C,C10*%
X50750000Y-89000000D03*
X52650000Y-89000000D03*
%TD*%
%TO.C,C14*%
X59050000Y-60000000D03*
X60950000Y-60000000D03*
%TD*%
D11*
%TO.C,R84*%
X31087500Y-106000000D03*
X32912500Y-106000000D03*
%TD*%
D12*
%TO.C,C5*%
X70050000Y-54000000D03*
X71950000Y-54000000D03*
%TD*%
D20*
%TO.C,R57*%
X47500000Y-84912500D03*
X47500000Y-83087500D03*
%TD*%
D11*
%TO.C,R63*%
X53087500Y-37500000D03*
X54912500Y-37500000D03*
%TD*%
D10*
%TO.C,C4*%
X53525000Y-49000000D03*
X56475000Y-49000000D03*
%TD*%
D11*
%TO.C,R20*%
X69087500Y-30000000D03*
X70912500Y-30000000D03*
%TD*%
D21*
%TO.C,L1*%
X64525000Y-53500000D03*
X67475000Y-53500000D03*
%TD*%
D22*
%TO.C,SW2*%
X47950000Y-27200000D03*
X52050000Y-27200000D03*
X47950000Y-28800000D03*
X52050000Y-28800000D03*
%TD*%
D11*
%TO.C,R55*%
X57087500Y-74000000D03*
X58912500Y-74000000D03*
%TD*%
%TO.C,R3*%
X19087500Y-63000000D03*
X20912500Y-63000000D03*
%TD*%
%TO.C,R16*%
X65087500Y-23000000D03*
X66912500Y-23000000D03*
%TD*%
D23*
%TO.C,U3*%
X52900000Y-105640000D03*
X52900000Y-104240000D03*
X52900000Y-102840000D03*
X51500000Y-105640000D03*
X51500000Y-104240000D03*
X51500000Y-102840000D03*
X50100000Y-105640000D03*
X50100000Y-104240000D03*
X50100000Y-102840000D03*
D24*
X58750000Y-111960000D03*
X58750000Y-110690000D03*
X58750000Y-109420000D03*
X58750000Y-108150000D03*
X58750000Y-106880000D03*
X58750000Y-105610000D03*
X58750000Y-104340000D03*
X58750000Y-103070000D03*
X58750000Y-101800000D03*
X58750000Y-100530000D03*
X58750000Y-99260000D03*
X58750000Y-97990000D03*
X58750000Y-96720000D03*
X58750000Y-95450000D03*
D25*
X56985000Y-94200000D03*
X55715000Y-94200000D03*
X54445000Y-94200000D03*
X53175000Y-94200000D03*
X51905000Y-94200000D03*
X50635000Y-94200000D03*
X49365000Y-94200000D03*
X48095000Y-94200000D03*
X46825000Y-94200000D03*
X45555000Y-94200000D03*
X44285000Y-94200000D03*
X43015000Y-94200000D03*
D24*
X41250000Y-95450000D03*
X41250000Y-96720000D03*
X41250000Y-97990000D03*
X41250000Y-99260000D03*
X41250000Y-100530000D03*
X41250000Y-101800000D03*
X41250000Y-103070000D03*
X41250000Y-104340000D03*
X41250000Y-105610000D03*
X41250000Y-106880000D03*
X41250000Y-108150000D03*
X41250000Y-109420000D03*
X41250000Y-110690000D03*
X41250000Y-111960000D03*
%TD*%
D26*
%TO.C,U8*%
X48737500Y-58250000D03*
X48737500Y-58750000D03*
X48737500Y-59250000D03*
X48737500Y-59750000D03*
D27*
X49500000Y-60012500D03*
X50000000Y-60012500D03*
X50500000Y-60012500D03*
D26*
X51262500Y-59750000D03*
X51262500Y-59250000D03*
X51262500Y-58750000D03*
X51262500Y-58250000D03*
D27*
X50500000Y-57987500D03*
X50000000Y-57987500D03*
X49500000Y-57987500D03*
%TD*%
D11*
%TO.C,R22*%
X21087500Y-42000000D03*
X22912500Y-42000000D03*
%TD*%
%TO.C,R67*%
X15087500Y-100000000D03*
X16912500Y-100000000D03*
%TD*%
D12*
%TO.C,C3*%
X62550000Y-48500000D03*
X64450000Y-48500000D03*
%TD*%
D11*
%TO.C,R1*%
X95087500Y-44000000D03*
X96912500Y-44000000D03*
%TD*%
%TO.C,R15*%
X69087500Y-23000000D03*
X70912500Y-23000000D03*
%TD*%
%TO.C,R83*%
X37087500Y-106000000D03*
X38912500Y-106000000D03*
%TD*%
%TO.C,R2*%
X15087500Y-63000000D03*
X16912500Y-63000000D03*
%TD*%
D18*
%TO.C,Q17*%
X49062500Y-36550000D03*
X49062500Y-38450000D03*
X50937500Y-37500000D03*
%TD*%
D11*
%TO.C,R64*%
X43087500Y-42000000D03*
X44912500Y-42000000D03*
%TD*%
D28*
%TO.C,D30*%
X25212500Y-110000000D03*
X26787500Y-110000000D03*
%TD*%
D29*
%TO.C,U1*%
X59862500Y-53050000D03*
X59862500Y-54000000D03*
X59862500Y-54950000D03*
X62137500Y-54950000D03*
X62137500Y-54000000D03*
X62137500Y-53050000D03*
%TD*%
D18*
%TO.C,Q16*%
X39062500Y-36550000D03*
X39062500Y-38450000D03*
X40937500Y-37500000D03*
%TD*%
D11*
%TO.C,R11*%
X33087500Y-60000000D03*
X34912500Y-60000000D03*
%TD*%
D30*
%TO.C,D32*%
X47550000Y-18350000D03*
X47550000Y-21650000D03*
X52450000Y-21650000D03*
X52450000Y-18350000D03*
%TD*%
D12*
%TO.C,C12*%
X27050000Y-44000000D03*
X28950000Y-44000000D03*
%TD*%
D14*
%TO.C,SW5*%
X2350000Y-115620000D03*
X2350000Y-117830000D03*
X9650000Y-115620000D03*
X9650000Y-117830000D03*
D15*
X3750000Y-114970000D03*
X6750000Y-114970000D03*
X8250000Y-114970000D03*
%TD*%
D20*
%TO.C,R58*%
X52500000Y-84912500D03*
X52500000Y-83087500D03*
%TD*%
D18*
%TO.C,Q18*%
X39062500Y-41050000D03*
X39062500Y-42950000D03*
X40937500Y-42000000D03*
%TD*%
D11*
%TO.C,R8*%
X39087500Y-47000000D03*
X40912500Y-47000000D03*
%TD*%
%TO.C,R85*%
X8587500Y-44000000D03*
X10412500Y-44000000D03*
%TD*%
%TO.C,R18*%
X29087500Y-30000000D03*
X30912500Y-30000000D03*
%TD*%
D22*
%TO.C,SW1*%
X37950000Y-27200000D03*
X42050000Y-27200000D03*
X37950000Y-28800000D03*
X42050000Y-28800000D03*
%TD*%
D11*
%TO.C,R79*%
X55087500Y-61000000D03*
X56912500Y-61000000D03*
%TD*%
D22*
%TO.C,SW4*%
X61950000Y-101200000D03*
X66050000Y-101200000D03*
X61950000Y-102800000D03*
X66050000Y-102800000D03*
%TD*%
D18*
%TO.C,Q1*%
X91562500Y-47050000D03*
X91562500Y-48950000D03*
X93437500Y-48000000D03*
%TD*%
D31*
%TO.C,R81*%
X64000000Y-64287500D03*
X64000000Y-66112500D03*
%TD*%
D11*
%TO.C,R13*%
X29087500Y-23000000D03*
X30912500Y-23000000D03*
%TD*%
%TO.C,R12*%
X66087500Y-109000000D03*
X67912500Y-109000000D03*
%TD*%
%TO.C,R69*%
X67087500Y-44000000D03*
X68912500Y-44000000D03*
%TD*%
D12*
%TO.C,C32*%
X43050000Y-56000000D03*
X44950000Y-56000000D03*
%TD*%
D28*
%TO.C,D33*%
X31212500Y-110000000D03*
X32787500Y-110000000D03*
%TD*%
D11*
%TO.C,R21*%
X21087500Y-39000000D03*
X22912500Y-39000000D03*
%TD*%
D32*
%TO.C,C8*%
X47600000Y-89950000D03*
X47600000Y-88050000D03*
%TD*%
D11*
%TO.C,R19*%
X73087500Y-30000000D03*
X74912500Y-30000000D03*
%TD*%
D28*
%TO.C,D31*%
X37212500Y-110000000D03*
X38787500Y-110000000D03*
%TD*%
D11*
%TO.C,R6*%
X20087500Y-50000000D03*
X21912500Y-50000000D03*
%TD*%
%TO.C,R82*%
X25087500Y-106000000D03*
X26912500Y-106000000D03*
%TD*%
D33*
%TO.C,J7*%
X66800000Y-111995000D03*
X67600000Y-111995000D03*
D34*
X68750000Y-111995000D03*
X69750000Y-111995000D03*
X70250000Y-111995000D03*
X71250000Y-111995000D03*
D33*
X72400000Y-111995000D03*
X73200000Y-111995000D03*
X73200000Y-111995000D03*
X72400000Y-111995000D03*
D34*
X71750000Y-111995000D03*
X70750000Y-111995000D03*
X69250000Y-111995000D03*
X68250000Y-111995000D03*
D33*
X67600000Y-111995000D03*
X66800000Y-111995000D03*
D35*
X65680000Y-112570000D03*
D36*
X65680000Y-116750000D03*
D35*
X74320000Y-112570000D03*
D36*
X74320000Y-116750000D03*
%TD*%
D11*
%TO.C,R14*%
X33087500Y-23000000D03*
X34912500Y-23000000D03*
%TD*%
%TO.C,R65*%
X43087500Y-52000000D03*
X44912500Y-52000000D03*
%TD*%
%TO.C,R56*%
X62087500Y-109000000D03*
X63912500Y-109000000D03*
%TD*%
D37*
%TO.C,F1*%
X93362500Y-64500000D03*
X97637500Y-64500000D03*
%TD*%
D12*
%TO.C,C6*%
X23050000Y-63000000D03*
X24950000Y-63000000D03*
%TD*%
D38*
%TO.C,Q34*%
X72937500Y-70950000D03*
X72937500Y-69050000D03*
X71062500Y-70000000D03*
%TD*%
D12*
%TO.C,C33*%
X43050000Y-59500000D03*
X44950000Y-59500000D03*
%TD*%
M02*
