%TF.GenerationSoftware,KiCad,Pcbnew,10.0.4*%
%TF.CreationDate,2026-07-23T03:57:50+05:30*%
%TF.ProjectId,micromouse-pcb-simplified,6d696372-6f6d-46f7-9573-652d7063622d,rev?*%
%TF.SameCoordinates,Original*%
%TF.FileFunction,Copper,L2,Bot*%
%TF.FilePolarity,Positive*%
%FSLAX46Y46*%
G04 Gerber Fmt 4.6, Leading zero omitted, Abs format (unit mm)*
G04 Created by KiCad (PCBNEW 10.0.4) date 2026-07-23 03:57:50*
%MOMM*%
%LPD*%
G01*
G04 APERTURE LIST*
G04 Aperture macros list*
%AMRoundRect*
0 Rectangle with rounded corners*
0 $1 Rounding radius*
0 $2 $3 $4 $5 $6 $7 $8 $9 X,Y pos of 4 corners*
0 Add a 4 corners polygon primitive as box body*
4,1,4,$2,$3,$4,$5,$6,$7,$8,$9,$2,$3,0*
0 Add four circle primitives for the rounded corners*
1,1,$1+$1,$2,$3*
1,1,$1+$1,$4,$5*
1,1,$1+$1,$6,$7*
1,1,$1+$1,$8,$9*
0 Add four rect primitives between the rounded corners*
20,1,$1+$1,$2,$3,$4,$5,0*
20,1,$1+$1,$4,$5,$6,$7,0*
20,1,$1+$1,$6,$7,$8,$9,0*
20,1,$1+$1,$8,$9,$2,$3,0*%
%AMRotRect*
0 Rectangle, with rotation*
0 The origin of the aperture is its center*
0 $1 length*
0 $2 width*
0 $3 Rotation angle, in degrees counterclockwise*
0 Add horizontal line*
21,1,$1,$2,0,0,$3*%
G04 Aperture macros list end*
%TA.AperFunction,ComponentPad*%
%ADD10RotRect,1.800000X1.800000X45.000000*%
%TD*%
%TA.AperFunction,ComponentPad*%
%ADD11C,1.800000*%
%TD*%
%TA.AperFunction,ComponentPad*%
%ADD12RotRect,1.800000X1.800000X315.000000*%
%TD*%
%TA.AperFunction,ComponentPad*%
%ADD13R,1.800000X1.800000*%
%TD*%
%TA.AperFunction,HeatsinkPad*%
%ADD14C,0.600000*%
%TD*%
%TA.AperFunction,ComponentPad*%
%ADD15RoundRect,0.250000X-0.600000X-0.750000X0.600000X-0.750000X0.600000X0.750000X-0.600000X0.750000X0*%
%TD*%
%TA.AperFunction,ComponentPad*%
%ADD16O,1.700000X2.000000*%
%TD*%
%TA.AperFunction,ComponentPad*%
%ADD17RoundRect,0.250000X-0.265000X-0.615000X0.265000X-0.615000X0.265000X0.615000X-0.265000X0.615000X0*%
%TD*%
%TA.AperFunction,ComponentPad*%
%ADD18O,1.030000X1.730000*%
%TD*%
%TA.AperFunction,ComponentPad*%
%ADD19RoundRect,0.250000X0.265000X0.615000X-0.265000X0.615000X-0.265000X-0.615000X0.265000X-0.615000X0*%
%TD*%
%TA.AperFunction,ComponentPad*%
%ADD20RoundRect,1.500000X-1.500000X-1.500000X1.500000X-1.500000X1.500000X1.500000X-1.500000X1.500000X0*%
%TD*%
%TA.AperFunction,ComponentPad*%
%ADD21C,6.000000*%
%TD*%
%TA.AperFunction,ComponentPad*%
%ADD22O,1.000000X2.100000*%
%TD*%
%TA.AperFunction,ComponentPad*%
%ADD23O,1.000000X1.800000*%
%TD*%
%TA.AperFunction,ViaPad*%
%ADD24C,0.600000*%
%TD*%
%TA.AperFunction,Conductor*%
%ADD25C,0.200000*%
%TD*%
%TA.AperFunction,Conductor*%
%ADD26C,0.250000*%
%TD*%
%TA.AperFunction,Conductor*%
%ADD27C,0.400000*%
%TD*%
%TA.AperFunction,Conductor*%
%ADD28C,0.300000*%
%TD*%
%TA.AperFunction,Conductor*%
%ADD29C,0.800000*%
%TD*%
G04 APERTURE END LIST*
D10*
%TO.P,Q4,1*%
%TO.N,WALL3_SENSE*%
X11602000Y-23298000D03*
D11*
%TO.P,Q4,2*%
%TO.N,GND*%
X13398051Y-21501949D03*
%TD*%
D12*
%TO.P,D4,1*%
%TO.N,EMIT_DIAG_K*%
X81232000Y-26872000D03*
D11*
%TO.P,D4,2*%
%TO.N,Net-(D4-A)*%
X83028051Y-28668051D03*
%TD*%
D13*
%TO.P,D2,1*%
%TO.N,EMIT_FRONT_K*%
X78570000Y-16270000D03*
D11*
%TO.P,D2,2*%
%TO.N,Net-(D2-A)*%
X78570000Y-13730000D03*
%TD*%
D12*
%TO.P,Q5,1*%
%TO.N,WALL4_SENSE*%
X86602000Y-21502000D03*
D11*
%TO.P,Q5,2*%
%TO.N,GND*%
X88398051Y-23298051D03*
%TD*%
D14*
%TO.P,U3,41*%
%TO.N,GND*%
X52900000Y-104940000D03*
X52900000Y-103540000D03*
X52200000Y-105640000D03*
X52200000Y-104240000D03*
X52200000Y-102840000D03*
X51500000Y-104940000D03*
X51500000Y-103540000D03*
X50800000Y-105640000D03*
X50800000Y-104240000D03*
X50800000Y-102840000D03*
X50100000Y-104940000D03*
X50100000Y-103540000D03*
%TD*%
D13*
%TO.P,D5,1*%
%TO.N,EMIT_SIDE_K*%
X15000000Y-45470000D03*
D11*
%TO.P,D5,2*%
%TO.N,Net-(D5-A)*%
X15000000Y-42930000D03*
%TD*%
D13*
%TO.P,D1,1*%
%TO.N,EMIT_FRONT_K*%
X21430000Y-16270000D03*
D11*
%TO.P,D1,2*%
%TO.N,Net-(D1-A)*%
X21430000Y-13730000D03*
%TD*%
D13*
%TO.P,Q3,1*%
%TO.N,WALL2_SENSE*%
X69050000Y-16270000D03*
D11*
%TO.P,Q3,2*%
%TO.N,GND*%
X69050000Y-13730000D03*
%TD*%
D15*
%TO.P,J1,1*%
%TO.N,BATT_RAW*%
X89000000Y-114000000D03*
D16*
%TO.P,J1,2*%
%TO.N,GND*%
X91500000Y-114000000D03*
%TD*%
D13*
%TO.P,Q2,1*%
%TO.N,WALL1_SENSE*%
X30950000Y-16270000D03*
D11*
%TO.P,Q2,2*%
%TO.N,GND*%
X30950000Y-13730000D03*
%TD*%
D17*
%TO.P,J5,1*%
%TO.N,MOTA_P*%
X33000000Y-69100000D03*
D18*
%TO.P,J5,2*%
%TO.N,PLUS3V3*%
X34500000Y-69100000D03*
%TO.P,J5,3*%
%TO.N,ENC1_A*%
X36000000Y-69100000D03*
%TO.P,J5,4*%
%TO.N,ENC1_B*%
X37500000Y-69100000D03*
%TO.P,J5,5*%
%TO.N,GND*%
X39000000Y-69100000D03*
%TO.P,J5,6*%
%TO.N,MOTA_N*%
X40500000Y-69100000D03*
%TD*%
D13*
%TO.P,Q7,1*%
%TO.N,WALL6_SENSE*%
X85000000Y-35330000D03*
D11*
%TO.P,Q7,2*%
%TO.N,GND*%
X85000000Y-37870000D03*
%TD*%
D19*
%TO.P,J6,1*%
%TO.N,MOTB_P*%
X67000000Y-70000000D03*
D18*
%TO.P,J6,2*%
%TO.N,PLUS3V3*%
X65500000Y-70000000D03*
%TO.P,J6,3*%
%TO.N,ENC2_A*%
X64000000Y-70000000D03*
%TO.P,J6,4*%
%TO.N,ENC2_B*%
X62500000Y-70000000D03*
%TO.P,J6,5*%
%TO.N,GND*%
X61000000Y-70000000D03*
%TO.P,J6,6*%
%TO.N,MOTB_N*%
X59500000Y-70000000D03*
%TD*%
D13*
%TO.P,Q6,1*%
%TO.N,WALL5_SENSE*%
X15000000Y-37870000D03*
D11*
%TO.P,Q6,2*%
%TO.N,GND*%
X15000000Y-35330000D03*
%TD*%
D10*
%TO.P,D3,1*%
%TO.N,EMIT_DIAG_K*%
X16972000Y-28668000D03*
D11*
%TO.P,D3,2*%
%TO.N,Net-(D3-A)*%
X18768051Y-26871949D03*
%TD*%
D20*
%TO.P,J10,1*%
%TO.N,BATT_RAW*%
X85680000Y-104800000D03*
D21*
%TO.P,J10,2*%
%TO.N,GND*%
X92880000Y-104800000D03*
%TD*%
D22*
%TO.P,J7,SH*%
%TO.N,GND*%
X65680000Y-112570000D03*
D23*
X65680000Y-116750000D03*
D22*
X74320000Y-112570000D03*
D23*
X74320000Y-116750000D03*
%TD*%
D13*
%TO.P,D6,1*%
%TO.N,EMIT_SIDE_K*%
X85000000Y-42930000D03*
D11*
%TO.P,D6,2*%
%TO.N,Net-(D6-A)*%
X85000000Y-45470000D03*
%TD*%
D24*
%TO.N,VM_BATT*%
X36944800Y-55108000D03*
X49122000Y-54134500D03*
%TO.N,GND*%
X73842000Y-112518000D03*
X61000000Y-68844000D03*
X47893000Y-74400000D03*
X55074000Y-56098000D03*
X59567000Y-66632000D03*
X15610000Y-64366000D03*
X41652000Y-43290000D03*
X76503000Y-34437000D03*
X65519999Y-106498000D03*
X43038000Y-74070000D03*
X39943000Y-111253000D03*
X20913000Y-103441500D03*
X50300000Y-51324000D03*
X39300000Y-42950000D03*
X44600000Y-37500000D03*
X29235000Y-43156000D03*
X76435000Y-59101000D03*
X15200000Y-58600000D03*
X77284000Y-59950000D03*
X42472000Y-73504000D03*
X65986999Y-112240000D03*
X42199000Y-35060000D03*
X61000000Y-67944000D03*
X72938000Y-69138000D03*
X15900000Y-61600000D03*
X15200000Y-57500000D03*
X20138000Y-105066000D03*
X74100000Y-71600000D03*
X54508000Y-55532000D03*
X60446000Y-66640000D03*
X72756000Y-72270000D03*
X20913000Y-104341500D03*
X74000000Y-70300000D03*
X40200000Y-42950000D03*
X47100000Y-76800000D03*
%TO.N,PLUS3V3*%
X68500000Y-22500000D03*
X22500000Y-32500000D03*
X46334500Y-91466800D03*
X50300000Y-58900000D03*
X51400000Y-90000000D03*
X28000000Y-66000000D03*
X77000000Y-63000000D03*
X54924200Y-73799300D03*
X29500000Y-68000000D03*
X49525000Y-67172300D03*
X29500000Y-47000000D03*
X55000000Y-64000000D03*
X21000000Y-39000000D03*
X83500000Y-71000000D03*
X52800000Y-60200000D03*
X21000000Y-42500000D03*
X70000000Y-54000000D03*
X50000000Y-88500000D03*
X56400000Y-75400000D03*
X56800000Y-74200000D03*
X49500000Y-61500000D03*
X26000000Y-54500000D03*
X63262700Y-94001800D03*
X52016400Y-92116000D03*
X60500000Y-110500000D03*
X44789600Y-71348700D03*
X59800000Y-52200000D03*
X40000000Y-58000000D03*
X30500000Y-44000000D03*
X54400000Y-87000000D03*
X64000000Y-56400000D03*
X67200000Y-53600000D03*
X26000000Y-50000000D03*
X55000000Y-90000000D03*
X75000000Y-44000000D03*
X52000000Y-91000000D03*
X54421400Y-66014300D03*
X56400000Y-82400000D03*
X56800000Y-77600000D03*
X55200000Y-61200000D03*
X69500000Y-101000000D03*
X58134000Y-64046900D03*
X42500000Y-60000000D03*
X41500000Y-21500000D03*
X49435000Y-72353700D03*
X33991908Y-62761963D03*
X22500000Y-50000000D03*
X33000000Y-23000000D03*
X72000000Y-104000000D03*
X68500000Y-26500000D03*
X51200000Y-60000000D03*
%TO.N,WALL3_SENSE*%
X56770500Y-99396900D03*
X25805700Y-31423500D03*
%TO.N,VM_MOTOR*%
X33791700Y-92356900D03*
X51699900Y-75215200D03*
X24948300Y-60000100D03*
X54943900Y-75594800D03*
X51031300Y-64699300D03*
X50636700Y-80739300D03*
X42633000Y-62556500D03*
%TO.N,ESP_EN*%
X34290491Y-61912936D03*
X60675900Y-100935600D03*
%TO.N,ENC1_B*%
X44287900Y-92879800D03*
%TO.N,MOT_EN*%
X13824400Y-69134700D03*
X14660800Y-97777900D03*
%TO.N,WALL6_SENSE*%
X64160400Y-101753400D03*
%TO.N,WALL_EMIT_FRONT*%
X56945900Y-101109600D03*
X46583600Y-47867800D03*
%TO.N,USER_BTN*%
X40834000Y-94391400D03*
X67957900Y-94046800D03*
X47538100Y-67611900D03*
%TO.N,EMIT_DIAG_K*%
X50802000Y-27291200D03*
%TO.N,Net-(D4-A)*%
X71932300Y-29996200D03*
%TO.N,MOTA_N*%
X44827000Y-69716100D03*
%TO.N,MOTB_N*%
X57786500Y-70893800D03*
X45090500Y-75387900D03*
%TO.N,MOTB_P*%
X44829700Y-73957900D03*
%TO.N,BIN2*%
X50856300Y-72008500D03*
X43366900Y-92898100D03*
X49366800Y-85571300D03*
X54943900Y-72692900D03*
X43603800Y-64718600D03*
X49813700Y-65835800D03*
%TO.N,BIN1*%
X42031300Y-92234600D03*
X50556600Y-84782100D03*
%TO.N,AIN1*%
X55357500Y-71277600D03*
X52275300Y-86285800D03*
%TO.N,AIN2*%
X56468400Y-69463800D03*
X53563500Y-92987900D03*
%TO.N,ENC2_B*%
X43413900Y-45742500D03*
%TO.N,VBUS_SENSE*%
X19515500Y-98361000D03*
X52016400Y-95785000D03*
%TO.N,I2C_SCL*%
X48002800Y-92117600D03*
X57722200Y-72026900D03*
%TO.N,EMIT_FRONT_K*%
X42796200Y-22203100D03*
%TO.N,ENC2_A*%
X60315600Y-64794400D03*
X47915700Y-63431500D03*
X48293300Y-69893200D03*
X42054700Y-57629100D03*
%TO.N,ENC2_A_S3*%
X39152200Y-93157500D03*
X47724100Y-81412900D03*
%TO.N,WALL_EMIT_DIAG*%
X58571400Y-52939200D03*
X56372800Y-101961000D03*
%TO.N,USER_BTN2*%
X26817700Y-73586500D03*
X23685100Y-59017200D03*
X46869400Y-43451600D03*
X39876400Y-97451400D03*
%TO.N,WALL4_SENSE*%
X61193900Y-106186500D03*
X83892400Y-69530100D03*
%TO.N,VBAT_SENSE*%
X60646200Y-98373700D03*
X25963700Y-75628000D03*
%TO.N,WALL5_SENSE*%
X23000000Y-38500000D03*
X43500000Y-107500000D03*
X31000000Y-47000000D03*
X21500000Y-90500000D03*
X23500000Y-107000000D03*
X25000000Y-40500000D03*
%TO.N,WALL_EMIT_SIDE*%
X56153800Y-100145500D03*
X45842000Y-45494800D03*
%TO.N,I2C_SDA*%
X58150900Y-58810400D03*
X57375500Y-92182100D03*
%TO.N,BUZZ_CTRL*%
X62683700Y-66275900D03*
X55107900Y-92453700D03*
%TO.N,STATUS_LED*%
X51474300Y-100950900D03*
X37720500Y-103957300D03*
%TO.N,RGB_DATA*%
X49554800Y-27417700D03*
X54755900Y-24482000D03*
%TO.N,ENC1_A*%
X45580100Y-95844300D03*
%TO.N,ENC2_B_S3*%
X40484600Y-92519500D03*
X49733800Y-83334300D03*
%TO.N,WALL2_SENSE*%
X43051700Y-109837100D03*
%TO.N,WALL1_SENSE*%
X36940200Y-95364000D03*
X25768200Y-59184100D03*
X36023500Y-25189500D03*
X30844600Y-71725300D03*
X36738800Y-51202700D03*
%TO.N,EMIT_SIDE_K*%
X41219100Y-45086100D03*
%TO.N,BATT_RAW*%
X75500000Y-90000000D03*
X90000000Y-61500000D03*
X77500000Y-61500000D03*
X92000000Y-63500000D03*
%TO.N,USB_VBUS*%
X64033300Y-112007500D03*
X19056200Y-112762300D03*
%TO.N,PWR_EN*%
X63362300Y-53284300D03*
X22145100Y-103833200D03*
%TO.N,Net-(D3-A)*%
X29279300Y-27119800D03*
%TD*%
%TO.N,VM_BATT*%
D25*
X49122000Y-54134500D02*
X37918300Y-54134500D01*
X37918300Y-54134500D02*
X36944800Y-55108000D01*
%TO.N,GND*%
D26*
X41652000Y-43290000D02*
X41362000Y-43000000D01*
X42472000Y-73504000D02*
X43800000Y-74832000D01*
X41916000Y-34777000D02*
X44200000Y-37061000D01*
X76503000Y-34437000D02*
X79936000Y-37870000D01*
X55357000Y-56381000D02*
X50300000Y-51324000D01*
X50300000Y-51324000D02*
X50300000Y-51100000D01*
X79936000Y-37870000D02*
X85000000Y-37870000D01*
X43800000Y-75600000D02*
X45000000Y-76800000D01*
X41362000Y-43000000D02*
X40200000Y-43000000D01*
X43800000Y-74832000D02*
X43800000Y-75600000D01*
X44200000Y-37061000D02*
X44200000Y-37100000D01*
X44200000Y-37100000D02*
X44600000Y-37500000D01*
X41916000Y-35377000D02*
X44038999Y-37500000D01*
X45000000Y-76800000D02*
X47100000Y-76800000D01*
X44038999Y-37500000D02*
X44200000Y-37500000D01*
%TO.N,PLUS3V3*%
D27*
X69500000Y-101000000D02*
X60500000Y-110000000D01*
X41500000Y-22000000D02*
X41500000Y-21500000D01*
X53000000Y-90000000D02*
X55000000Y-90000000D01*
D25*
X50880600Y-73799300D02*
X54924200Y-73799300D01*
X52016400Y-92331700D02*
X52016400Y-92116000D01*
D27*
X75000000Y-49000000D02*
X75000000Y-44000000D01*
D25*
X47573100Y-92705400D02*
X46334500Y-91466800D01*
D28*
X60200000Y-52600000D02*
X64800000Y-52600000D01*
X56800000Y-74200000D02*
X56800000Y-77600000D01*
D25*
X49412900Y-67060200D02*
X49525000Y-67172300D01*
X49435000Y-72353700D02*
X50880600Y-73799300D01*
X34500000Y-67060200D02*
X45409100Y-67060200D01*
X45409100Y-67060200D02*
X45409100Y-70729200D01*
D28*
X64800000Y-52600000D02*
X65800000Y-53600000D01*
D27*
X41000000Y-56000000D02*
X41500000Y-56500000D01*
X35000000Y-26500000D02*
X35500000Y-26000000D01*
X43500000Y-56500000D02*
X48500000Y-61500000D01*
X28000000Y-65500000D02*
X28000000Y-66000000D01*
D25*
X51642700Y-92705400D02*
X47573100Y-92705400D01*
D27*
X34000000Y-67500000D02*
X34500000Y-68000000D01*
X41500000Y-56500000D02*
X43500000Y-56500000D01*
D28*
X65800000Y-53600000D02*
X67200000Y-53600000D01*
D26*
X50300000Y-59100000D02*
X50300000Y-58900000D01*
D27*
X67000000Y-104000000D02*
X72000000Y-104000000D01*
D25*
X63262700Y-94001800D02*
X53686500Y-94001800D01*
D28*
X54400000Y-87000000D02*
X51400000Y-90000000D01*
D27*
X29500000Y-68000000D02*
X30000000Y-67500000D01*
X83000000Y-69000000D02*
X83000000Y-70500000D01*
X70000000Y-54000000D02*
X75000000Y-49000000D01*
X37500000Y-26000000D02*
X41500000Y-22000000D01*
X46500000Y-92000000D02*
X46334500Y-91466800D01*
D28*
X59800000Y-52200000D02*
X60200000Y-52600000D01*
X52800000Y-60200000D02*
X53600000Y-61000000D01*
D27*
X42000000Y-60000000D02*
X42500000Y-60000000D01*
X23000000Y-60500000D02*
X28000000Y-65500000D01*
X83000000Y-70500000D02*
X83500000Y-71000000D01*
D28*
X55200000Y-61000000D02*
X55200000Y-61200000D01*
X53600000Y-61000000D02*
X55200000Y-61000000D01*
D25*
X53686500Y-94001800D02*
X52016400Y-92331700D01*
D27*
X52000000Y-91000000D02*
X53000000Y-90000000D01*
D25*
X34500000Y-69100000D02*
X34500000Y-67060200D01*
D27*
X30000000Y-67500000D02*
X34000000Y-67500000D01*
D25*
X45409100Y-67060200D02*
X49412900Y-67060200D01*
D27*
X60500000Y-110000000D02*
X60500000Y-110500000D01*
D28*
X55200000Y-61200000D02*
X55000000Y-61400000D01*
D27*
X60500000Y-110500000D02*
X67000000Y-104000000D01*
X68500000Y-26500000D02*
X68500000Y-22500000D01*
X26500000Y-50000000D02*
X22500000Y-50000000D01*
X35500000Y-26000000D02*
X37500000Y-26000000D01*
D26*
X51200000Y-60000000D02*
X50300000Y-59100000D01*
D28*
X56400000Y-75400000D02*
X56400000Y-82400000D01*
D27*
X21000000Y-34000000D02*
X21000000Y-39000000D01*
X42500000Y-60000000D02*
X41000000Y-58500000D01*
D25*
X52016400Y-92331700D02*
X51642700Y-92705400D01*
D27*
X21000000Y-39000000D02*
X21000000Y-42500000D01*
D25*
X56166600Y-66014300D02*
X54421400Y-66014300D01*
D27*
X22500000Y-32500000D02*
X21000000Y-34000000D01*
X29500000Y-47000000D02*
X26500000Y-50000000D01*
X22500000Y-44000000D02*
X30500000Y-44000000D01*
X40000000Y-58000000D02*
X42000000Y-60000000D01*
X50000000Y-88500000D02*
X46500000Y-92000000D01*
X48500000Y-61500000D02*
X49500000Y-61500000D01*
X21000000Y-42500000D02*
X22500000Y-44000000D01*
X26000000Y-54500000D02*
X23000000Y-57500000D01*
X33000000Y-23000000D02*
X35000000Y-25000000D01*
D25*
X34500000Y-63205900D02*
X34008600Y-62714500D01*
D27*
X34500000Y-68000000D02*
X34500000Y-69100000D01*
D28*
X64000000Y-56400000D02*
X59800000Y-52200000D01*
D25*
X34500000Y-67060200D02*
X34500000Y-63205900D01*
D27*
X22500000Y-50000000D02*
X26000000Y-50000000D01*
X35000000Y-25000000D02*
X35000000Y-26500000D01*
X77000000Y-63000000D02*
X83000000Y-69000000D01*
D28*
X55000000Y-61400000D02*
X55000000Y-64000000D01*
D27*
X41000000Y-58500000D02*
X41000000Y-56000000D01*
X23000000Y-57500000D02*
X23000000Y-60500000D01*
D25*
X45409100Y-70729200D02*
X44789600Y-71348700D01*
X58134000Y-64046900D02*
X56166600Y-66014300D01*
%TO.N,WALL3_SENSE*%
X13848300Y-41386700D02*
X13848300Y-67005200D01*
X17385700Y-31423500D02*
X17385700Y-37849300D01*
X12416400Y-26454200D02*
X17385700Y-31423500D01*
X17385700Y-31423500D02*
X25805700Y-31423500D01*
X19280300Y-72437200D02*
X19280300Y-93834200D01*
X18562300Y-98742000D02*
X19217200Y-99396900D01*
X12416400Y-24112400D02*
X12416400Y-26454200D01*
X17385700Y-37849300D02*
X13848300Y-41386700D01*
X19280300Y-93834200D02*
X18562300Y-94552200D01*
X18562300Y-94552200D02*
X18562300Y-98742000D01*
X13848300Y-67005200D02*
X19280300Y-72437200D01*
X11602000Y-23298000D02*
X12416400Y-24112400D01*
X19217200Y-99396900D02*
X56770500Y-99396900D01*
%TO.N,VM_MOTOR*%
X54564300Y-75215200D02*
X54943900Y-75594800D01*
X44775800Y-64699300D02*
X42633000Y-62556500D01*
X24948300Y-60000100D02*
X40076600Y-60000100D01*
X45409300Y-80739300D02*
X50636700Y-80739300D01*
X40076600Y-60000100D02*
X42633000Y-62556500D01*
X51031300Y-64699300D02*
X44775800Y-64699300D01*
X33791700Y-92356900D02*
X45409300Y-80739300D01*
X51699900Y-75215200D02*
X54564300Y-75215200D01*
%TO.N,ESP_EN*%
X33913900Y-61960400D02*
X34273800Y-61960400D01*
X56542100Y-98845200D02*
X56425500Y-98961800D01*
X58585500Y-98845200D02*
X56542100Y-98845200D01*
X23743300Y-72131000D02*
X33913900Y-61960400D01*
X18953600Y-98622000D02*
X18953600Y-94692000D01*
X56425500Y-98961800D02*
X19293400Y-98961800D01*
X60675900Y-100935600D02*
X58585500Y-98845200D01*
X19293400Y-98961800D02*
X18953600Y-98622000D01*
X23743300Y-89902300D02*
X23743300Y-72131000D01*
X18953600Y-94692000D02*
X23743300Y-89902300D01*
%TO.N,ENC1_B*%
X47231100Y-79947800D02*
X37500000Y-70216700D01*
X51220000Y-80525700D02*
X50642100Y-79947800D01*
X44287900Y-92879800D02*
X44287900Y-91831000D01*
X44287900Y-91831000D02*
X51220000Y-84898900D01*
X50642100Y-79947800D02*
X47231100Y-79947800D01*
X51220000Y-84898900D02*
X51220000Y-80525700D01*
X37500000Y-69100000D02*
X37500000Y-70216700D01*
%TO.N,MOT_EN*%
X14660800Y-97777900D02*
X13727500Y-96844600D01*
X13727500Y-69231600D02*
X13824400Y-69134700D01*
X13727500Y-96844600D02*
X13727500Y-69231600D01*
%TO.N,WALL6_SENSE*%
X86151700Y-47280700D02*
X70053900Y-63378500D01*
X70053900Y-95859900D02*
X64160400Y-101753400D01*
X86151700Y-37345400D02*
X86151700Y-47280700D01*
X85000000Y-36481700D02*
X85288000Y-36481700D01*
X85000000Y-35330000D02*
X85000000Y-36481700D01*
X70053900Y-63378500D02*
X70053900Y-95859900D01*
X85288000Y-36481700D02*
X86151700Y-37345400D01*
%TO.N,WALL_EMIT_FRONT*%
X57323700Y-101487400D02*
X61297500Y-101487400D01*
X61297500Y-101487400D02*
X68509600Y-94275300D01*
X48022400Y-47867800D02*
X46583600Y-47867800D01*
X68509600Y-68355000D02*
X48022400Y-47867800D01*
X68509600Y-94275300D02*
X68509600Y-68355000D01*
X56945900Y-101109600D02*
X57323700Y-101487400D01*
%TO.N,USER_BTN*%
X44224300Y-72694200D02*
X45341300Y-71577200D01*
X45341300Y-71577200D02*
X45341300Y-71330100D01*
X51615700Y-85000500D02*
X51615700Y-80374300D01*
X45049200Y-92898800D02*
X46722000Y-94571600D01*
X67433100Y-94571600D02*
X67957900Y-94046800D01*
X45049200Y-92898800D02*
X45049200Y-91567000D01*
X45049200Y-91567000D02*
X51615700Y-85000500D01*
X51615700Y-80374300D02*
X47239400Y-75998000D01*
X46722000Y-94571600D02*
X67433100Y-94571600D01*
X43556600Y-94391400D02*
X45049200Y-92898800D01*
X40834000Y-94391400D02*
X43556600Y-94391400D01*
X47239400Y-75998000D02*
X44894100Y-75998000D01*
X44894100Y-75998000D02*
X44224300Y-75328200D01*
X47538100Y-69133300D02*
X47538100Y-67611900D01*
X45341300Y-71330100D02*
X47538100Y-69133300D01*
X44224300Y-75328200D02*
X44224300Y-72694200D01*
%TO.N,EMIT_DIAG_K*%
X81232000Y-26872000D02*
X80417600Y-27686400D01*
X18009400Y-28076600D02*
X50016600Y-28076600D01*
X17786400Y-27853600D02*
X18009400Y-28076600D01*
X51197200Y-27686400D02*
X80417600Y-27686400D01*
X50802000Y-27291200D02*
X51197200Y-27686400D01*
X16972000Y-28668000D02*
X17786400Y-27853600D01*
X50016600Y-28076600D02*
X50802000Y-27291200D01*
%TO.N,Net-(D4-A)*%
X81700000Y-29996200D02*
X83028100Y-28668100D01*
X71932300Y-29996200D02*
X81700000Y-29996200D01*
%TO.N,MOTA_N*%
X40500000Y-70216700D02*
X44326400Y-70216700D01*
X44326400Y-70216700D02*
X44827000Y-69716100D01*
X40500000Y-69100000D02*
X40500000Y-70216700D01*
%TO.N,MOTB_N*%
X57786500Y-70893800D02*
X57618600Y-70725900D01*
X57618600Y-70725900D02*
X49752500Y-70725900D01*
X49752500Y-70725900D02*
X45090500Y-75387900D01*
%TO.N,MOTB_P*%
X45693000Y-71641000D02*
X45693000Y-73094600D01*
X55438400Y-68534400D02*
X48799600Y-68534400D01*
X45693000Y-73094600D02*
X44829700Y-73957900D01*
X67000000Y-69812000D02*
X61384300Y-64196300D01*
X48799600Y-68534400D02*
X45693000Y-71641000D01*
X59776500Y-64196300D02*
X55438400Y-68534400D01*
X61384300Y-64196300D02*
X59776500Y-64196300D01*
X67000000Y-70000000D02*
X67000000Y-69812000D01*
%TO.N,BIN2*%
X43603800Y-64718600D02*
X44721000Y-65835800D01*
X43366900Y-91571200D02*
X49366800Y-85571300D01*
X44721000Y-65835800D02*
X49813700Y-65835800D01*
X43366900Y-92898100D02*
X43366900Y-91571200D01*
X54943900Y-72692900D02*
X54259500Y-72008500D01*
X54259500Y-72008500D02*
X50856300Y-72008500D01*
%TO.N,BIN1*%
X49362200Y-84782100D02*
X50556600Y-84782100D01*
X42031300Y-92113000D02*
X49362200Y-84782100D01*
X42031300Y-92234600D02*
X42031300Y-92113000D01*
%TO.N,AIN1*%
X55537300Y-83023800D02*
X55537300Y-71457400D01*
X55537300Y-71457400D02*
X55357500Y-71277600D01*
X52275300Y-86285800D02*
X55537300Y-83023800D01*
%TO.N,AIN2*%
X57186400Y-69463800D02*
X58350200Y-70627600D01*
X58350200Y-88201200D02*
X53563500Y-92987900D01*
X58350200Y-70627600D02*
X58350200Y-88201200D01*
X56468400Y-69463800D02*
X57186400Y-69463800D01*
%TO.N,ENC2_B*%
X57033500Y-59362100D02*
X57960900Y-59362100D01*
X67503900Y-71122100D02*
X62505400Y-71122100D01*
X62500000Y-70000000D02*
X62500000Y-71116700D01*
X57960900Y-59362100D02*
X67767700Y-69168900D01*
X67767700Y-69168900D02*
X67767700Y-70858300D01*
X62505400Y-71122100D02*
X62500000Y-71116700D01*
X67767700Y-70858300D02*
X67503900Y-71122100D01*
X43413900Y-45742500D02*
X57033500Y-59362100D01*
%TO.N,VBUS_SENSE*%
X19515500Y-98361000D02*
X49440400Y-98361000D01*
X49440400Y-98361000D02*
X52016400Y-95785000D01*
%TO.N,I2C_SCL*%
X57722200Y-72026900D02*
X57722200Y-82398200D01*
X57722200Y-82398200D02*
X48002800Y-92117600D01*
%TO.N,EMIT_FRONT_K*%
X23733400Y-15118300D02*
X22581700Y-16270000D01*
X78570000Y-16270000D02*
X77418300Y-16270000D01*
X42796200Y-15118300D02*
X23733400Y-15118300D01*
X21430000Y-16270000D02*
X22581700Y-16270000D01*
X76266600Y-15118300D02*
X42796200Y-15118300D01*
X42796200Y-15118300D02*
X42796200Y-22203100D01*
X77418300Y-16270000D02*
X76266600Y-15118300D01*
%TO.N,ENC2_A*%
X42113300Y-57629100D02*
X47915700Y-63431500D01*
X55216800Y-69893200D02*
X48293300Y-69893200D01*
X60315600Y-64794400D02*
X55216800Y-69893200D01*
X42054700Y-57629100D02*
X42113300Y-57629100D01*
%TO.N,ENC2_A_S3*%
X47724100Y-81412900D02*
X39152200Y-89984800D01*
X39152200Y-89984800D02*
X39152200Y-93157500D01*
%TO.N,WALL_EMIT_DIAG*%
X61321200Y-101961000D02*
X68861300Y-94420900D01*
X56372800Y-101961000D02*
X61321200Y-101961000D01*
X68861300Y-63229100D02*
X58571400Y-52939200D01*
X68861300Y-94420900D02*
X68861300Y-63229100D01*
%TO.N,USER_BTN2*%
X37002800Y-97451400D02*
X25058700Y-85507300D01*
X33109400Y-49592900D02*
X38765900Y-49592900D01*
X39876400Y-97451400D02*
X37002800Y-97451400D01*
X23685100Y-59017200D02*
X33109400Y-49592900D01*
X26724700Y-73586500D02*
X26817700Y-73586500D01*
X38765900Y-49592900D02*
X44907200Y-43451600D01*
X25058700Y-75252500D02*
X26724700Y-73586500D01*
X25058700Y-85507300D02*
X25058700Y-75252500D01*
X44907200Y-43451600D02*
X46869400Y-43451600D01*
%TO.N,WALL4_SENSE*%
X84774200Y-82606200D02*
X61193900Y-106186500D01*
X84774200Y-70411900D02*
X84774200Y-82606200D01*
X83892400Y-69530100D02*
X84774200Y-70411900D01*
%TO.N,VBAT_SENSE*%
X25963700Y-85338800D02*
X25963700Y-75628000D01*
X37299500Y-94943100D02*
X37168700Y-94812300D01*
X57215600Y-94943100D02*
X37299500Y-94943100D01*
X60646200Y-98373700D02*
X57215600Y-94943100D01*
X37168700Y-94812300D02*
X35437200Y-94812300D01*
X35437200Y-94812300D02*
X25963700Y-85338800D01*
%TO.N,WALL5_SENSE*%
D28*
X22000000Y-56000000D02*
X31000000Y-47000000D01*
X25000000Y-40500000D02*
X23000000Y-38500000D01*
X21500000Y-90500000D02*
X22000000Y-90000000D01*
X22000000Y-90000000D02*
X22000000Y-56000000D01*
X22000000Y-56000000D02*
X31000000Y-47000000D01*
X43500000Y-107500000D02*
X43000000Y-107000000D01*
X43500000Y-107500000D02*
X43000000Y-107000000D01*
X43000000Y-107000000D02*
X23500000Y-107000000D01*
X43000000Y-107000000D02*
X23500000Y-107000000D01*
X21500000Y-90500000D02*
X22000000Y-90000000D01*
X22000000Y-90000000D02*
X22000000Y-56000000D01*
X25000000Y-40500000D02*
X23000000Y-38500000D01*
%TO.N,WALL_EMIT_SIDE*%
D25*
X55821000Y-102219000D02*
X56201600Y-102599600D01*
X69245400Y-94534100D02*
X69245400Y-62823700D01*
X69245400Y-62823700D02*
X51916500Y-45494800D01*
X55821000Y-100478300D02*
X55821000Y-102219000D01*
X51916500Y-45494800D02*
X45842000Y-45494800D01*
X56201600Y-102599600D02*
X61179900Y-102599600D01*
X61179900Y-102599600D02*
X69245400Y-94534100D01*
X56153800Y-100145500D02*
X55821000Y-100478300D01*
%TO.N,I2C_SDA*%
X58150900Y-58810400D02*
X68129300Y-68788800D01*
X68129300Y-81428300D02*
X57375500Y-92182100D01*
X68129300Y-68788800D02*
X68129300Y-81428300D01*
%TO.N,BUZZ_CTRL*%
X61720800Y-66275900D02*
X62683700Y-66275900D01*
X55107900Y-92453700D02*
X58733300Y-88828300D01*
X58733300Y-88828300D02*
X58733300Y-69263400D01*
X58733300Y-69263400D02*
X61720800Y-66275900D01*
%TO.N,STATUS_LED*%
X40726900Y-100950900D02*
X37720500Y-103957300D01*
X51474300Y-100950900D02*
X40726900Y-100950900D01*
%TO.N,RGB_DATA*%
X49554800Y-27417700D02*
X52490500Y-24482000D01*
X52490500Y-24482000D02*
X54755900Y-24482000D01*
%TO.N,ENC1_A*%
X43417400Y-98007000D02*
X37051200Y-98007000D01*
X24666600Y-85622400D02*
X24666600Y-74936600D01*
X36000000Y-69100000D02*
X36000000Y-70216700D01*
X28957200Y-70646000D02*
X35570700Y-70646000D01*
X45580100Y-95844300D02*
X43417400Y-98007000D01*
X37051200Y-98007000D02*
X24666600Y-85622400D01*
X35570700Y-70646000D02*
X36000000Y-70216700D01*
X24666600Y-74936600D02*
X28957200Y-70646000D01*
%TO.N,ENC2_B_S3*%
X40484600Y-92519500D02*
X49669800Y-83334300D01*
X49669800Y-83334300D02*
X49733800Y-83334300D01*
%TO.N,WALL2_SENSE*%
X86553000Y-67089400D02*
X85600000Y-68042400D01*
X69050000Y-16270000D02*
X72324100Y-16270000D01*
X58817100Y-109837100D02*
X43051700Y-109837100D01*
X72324100Y-16270000D02*
X86553000Y-30498900D01*
X85600000Y-83054200D02*
X58817100Y-109837100D01*
X86553000Y-30498900D02*
X86553000Y-67089400D01*
X85600000Y-68042400D02*
X85600000Y-83054200D01*
%TO.N,WALL1_SENSE*%
X35481800Y-95364000D02*
X25410400Y-85292600D01*
X36023500Y-22495200D02*
X36023500Y-25189500D01*
X36940200Y-95364000D02*
X35481800Y-95364000D01*
X30950000Y-17421700D02*
X36023500Y-22495200D01*
X28431700Y-74138200D02*
X30844600Y-71725300D01*
X30950000Y-16270000D02*
X30950000Y-17421700D01*
X25410400Y-75398100D02*
X26670300Y-74138200D01*
X36738800Y-51202700D02*
X28757400Y-59184100D01*
X25410400Y-85292600D02*
X25410400Y-75398100D01*
X26670300Y-74138200D02*
X28431700Y-74138200D01*
X28757400Y-59184100D02*
X25768200Y-59184100D01*
%TO.N,EMIT_SIDE_K*%
X15000000Y-45470000D02*
X16151700Y-45470000D01*
X83848300Y-42930000D02*
X83818200Y-42899900D01*
X85000000Y-42930000D02*
X83848300Y-42930000D01*
X41219100Y-45086100D02*
X40835200Y-45470000D01*
X83818200Y-42899900D02*
X43405300Y-42899900D01*
X43405300Y-42899900D02*
X41219100Y-45086100D01*
X40835200Y-45470000D02*
X16151700Y-45470000D01*
%TO.N,BATT_RAW*%
D29*
X76000000Y-61500000D02*
X77500000Y-61500000D01*
X75500000Y-90000000D02*
X76000000Y-89500000D01*
X75500000Y-90000000D02*
X76000000Y-89500000D01*
X76000000Y-89500000D02*
X76000000Y-61500000D01*
X89000000Y-114000000D02*
X85680000Y-110680000D01*
X76000000Y-61500000D02*
X77500000Y-61500000D01*
X90000000Y-61500000D02*
X92000000Y-63500000D01*
X85680000Y-110680000D02*
X85680000Y-104800000D01*
X90000000Y-61500000D02*
X92000000Y-63500000D01*
X76000000Y-89500000D02*
X76000000Y-61500000D01*
X89000000Y-114000000D02*
X85680000Y-110680000D01*
X85680000Y-110680000D02*
X85680000Y-104800000D01*
D25*
X86178000Y-104302000D02*
X85680000Y-104800000D01*
%TO.N,USB_VBUS*%
X64033300Y-112007500D02*
X19811000Y-112007500D01*
X19811000Y-112007500D02*
X19056200Y-112762300D01*
%TO.N,PWR_EN*%
X58085100Y-106191700D02*
X69648900Y-94627900D01*
X69648900Y-94627900D02*
X69648900Y-59570900D01*
X69648900Y-59570900D02*
X63362300Y-53284300D01*
X24503600Y-106191700D02*
X58085100Y-106191700D01*
X22145100Y-103833200D02*
X24503600Y-106191700D01*
%TO.N,Net-(D3-A)*%
X18768100Y-26871900D02*
X29031400Y-26871900D01*
X29031400Y-26871900D02*
X29279300Y-27119800D01*
%TD*%
%TA.AperFunction,Conductor*%
%TO.N,GND*%
G36*
X13928655Y-67652304D02*
G01*
X13934420Y-67657713D01*
X18843481Y-72566774D01*
X18876966Y-72628097D01*
X18879800Y-72654455D01*
X18879800Y-73883194D01*
X18860115Y-73950233D01*
X18807311Y-73995988D01*
X18738153Y-74005932D01*
X18674597Y-73976907D01*
X18657425Y-73958681D01*
X18568918Y-73843338D01*
X18568911Y-73843330D01*
X18406670Y-73681089D01*
X18406661Y-73681081D01*
X18224617Y-73541392D01*
X18025890Y-73426657D01*
X18025876Y-73426650D01*
X17813887Y-73338842D01*
X17802474Y-73335784D01*
X17592238Y-73279452D01*
X17554215Y-73274446D01*
X17364741Y-73249500D01*
X17364734Y-73249500D01*
X17135266Y-73249500D01*
X17135258Y-73249500D01*
X16918715Y-73278009D01*
X16907762Y-73279452D01*
X16887389Y-73284911D01*
X16686112Y-73338842D01*
X16474123Y-73426650D01*
X16474109Y-73426657D01*
X16275382Y-73541392D01*
X16093338Y-73681081D01*
X15931081Y-73843338D01*
X15791392Y-74025382D01*
X15676657Y-74224109D01*
X15676650Y-74224123D01*
X15588842Y-74436112D01*
X15568667Y-74511407D01*
X15530025Y-74655626D01*
X15529453Y-74657759D01*
X15529451Y-74657770D01*
X15499500Y-74885258D01*
X15499500Y-75114741D01*
X15518531Y-75259290D01*
X15529452Y-75342238D01*
X15557520Y-75446990D01*
X15588842Y-75563887D01*
X15676650Y-75775876D01*
X15676657Y-75775890D01*
X15791392Y-75974617D01*
X15931081Y-76156661D01*
X15931089Y-76156670D01*
X16093330Y-76318911D01*
X16093338Y-76318918D01*
X16275382Y-76458607D01*
X16275385Y-76458608D01*
X16275388Y-76458611D01*
X16474112Y-76573344D01*
X16474117Y-76573346D01*
X16474123Y-76573349D01*
X16565480Y-76611190D01*
X16686113Y-76661158D01*
X16907762Y-76720548D01*
X17135266Y-76750500D01*
X17135273Y-76750500D01*
X17364727Y-76750500D01*
X17364734Y-76750500D01*
X17592238Y-76720548D01*
X17813887Y-76661158D01*
X18025888Y-76573344D01*
X18224612Y-76458611D01*
X18406661Y-76318919D01*
X18406665Y-76318914D01*
X18406670Y-76318911D01*
X18568910Y-76156670D01*
X18568919Y-76156661D01*
X18657427Y-76041315D01*
X18713852Y-76000116D01*
X18783598Y-75995961D01*
X18844519Y-76030174D01*
X18877271Y-76091891D01*
X18879800Y-76116805D01*
X18879800Y-91883194D01*
X18860115Y-91950233D01*
X18807311Y-91995988D01*
X18738153Y-92005932D01*
X18674597Y-91976907D01*
X18657425Y-91958681D01*
X18568918Y-91843338D01*
X18568911Y-91843330D01*
X18406670Y-91681089D01*
X18406661Y-91681081D01*
X18224617Y-91541392D01*
X18221932Y-91539842D01*
X18140620Y-91492896D01*
X18025890Y-91426657D01*
X18025876Y-91426650D01*
X17813887Y-91338842D01*
X17592238Y-91279452D01*
X17554215Y-91274446D01*
X17364741Y-91249500D01*
X17364734Y-91249500D01*
X17135266Y-91249500D01*
X17135258Y-91249500D01*
X16918715Y-91278009D01*
X16907762Y-91279452D01*
X16900313Y-91281448D01*
X16686112Y-91338842D01*
X16474123Y-91426650D01*
X16474109Y-91426657D01*
X16275382Y-91541392D01*
X16093338Y-91681081D01*
X15931081Y-91843338D01*
X15791392Y-92025382D01*
X15676657Y-92224109D01*
X15676650Y-92224123D01*
X15588842Y-92436112D01*
X15554554Y-92564076D01*
X15529549Y-92657402D01*
X15529453Y-92657759D01*
X15529451Y-92657770D01*
X15499500Y-92885258D01*
X15499500Y-93114741D01*
X15519521Y-93266809D01*
X15529452Y-93342238D01*
X15579444Y-93528811D01*
X15588842Y-93563887D01*
X15676650Y-93775876D01*
X15676657Y-93775890D01*
X15791392Y-93974617D01*
X15931081Y-94156661D01*
X15931089Y-94156670D01*
X16093330Y-94318911D01*
X16093338Y-94318918D01*
X16275382Y-94458607D01*
X16275385Y-94458608D01*
X16275388Y-94458611D01*
X16474112Y-94573344D01*
X16474117Y-94573346D01*
X16474123Y-94573349D01*
X16565480Y-94611190D01*
X16686113Y-94661158D01*
X16907762Y-94720548D01*
X17135266Y-94750500D01*
X17135273Y-94750500D01*
X17364727Y-94750500D01*
X17364734Y-94750500D01*
X17592238Y-94720548D01*
X17813887Y-94661158D01*
X17990349Y-94588064D01*
X18059817Y-94580596D01*
X18122296Y-94611871D01*
X18157948Y-94671960D01*
X18161800Y-94702626D01*
X18161800Y-98794726D01*
X18189093Y-98896589D01*
X18215456Y-98942250D01*
X18241820Y-98987913D01*
X18896719Y-99642812D01*
X18896720Y-99642813D01*
X18971287Y-99717380D01*
X19062613Y-99770107D01*
X19164473Y-99797400D01*
X55463790Y-99797400D01*
X55482199Y-99802805D01*
X55501384Y-99803236D01*
X55515033Y-99812446D01*
X55530829Y-99817085D01*
X55543392Y-99831584D01*
X55559300Y-99842319D01*
X55565803Y-99857447D01*
X55576584Y-99869889D01*
X55579314Y-99888879D01*
X55586893Y-99906509D01*
X55585228Y-99930008D01*
X55586528Y-99939047D01*
X55586101Y-99941795D01*
X55585115Y-99947706D01*
X55553300Y-100066443D01*
X55553300Y-100138510D01*
X55551611Y-100148640D01*
X55540681Y-100171219D01*
X55533615Y-100195284D01*
X55522138Y-100209525D01*
X55521169Y-100211529D01*
X55519898Y-100212306D01*
X55516981Y-100215926D01*
X55500522Y-100232384D01*
X55500518Y-100232390D01*
X55447793Y-100323710D01*
X55445796Y-100331163D01*
X55427486Y-100399500D01*
X55420500Y-100425573D01*
X55420500Y-102271726D01*
X55447793Y-102373589D01*
X55474156Y-102419250D01*
X55500520Y-102464913D01*
X55881118Y-102845511D01*
X55881120Y-102845513D01*
X55955687Y-102920080D01*
X56047013Y-102972807D01*
X56148873Y-103000101D01*
X56148875Y-103000101D01*
X56261923Y-103000101D01*
X56261939Y-103000100D01*
X60410945Y-103000100D01*
X60477984Y-103019785D01*
X60523739Y-103072589D01*
X60533683Y-103141747D01*
X60504658Y-103205303D01*
X60498626Y-103211781D01*
X57955526Y-105754881D01*
X57894203Y-105788366D01*
X57867845Y-105791200D01*
X24720854Y-105791200D01*
X24653815Y-105771515D01*
X24633173Y-105754881D01*
X22836090Y-103957797D01*
X22781919Y-103903626D01*
X22768059Y-103878243D01*
X37120000Y-103878243D01*
X37120000Y-104036357D01*
X37131442Y-104079057D01*
X37160923Y-104189083D01*
X37160926Y-104189090D01*
X37239975Y-104326009D01*
X37239979Y-104326014D01*
X37239980Y-104326016D01*
X37351784Y-104437820D01*
X37351786Y-104437821D01*
X37351790Y-104437824D01*
X37488709Y-104516873D01*
X37488716Y-104516877D01*
X37641443Y-104557800D01*
X37641445Y-104557800D01*
X37799555Y-104557800D01*
X37799557Y-104557800D01*
X37952284Y-104516877D01*
X38089216Y-104437820D01*
X38201020Y-104326016D01*
X38280077Y-104189084D01*
X38321000Y-104036357D01*
X38321000Y-103974554D01*
X38340685Y-103907515D01*
X38357319Y-103886873D01*
X40856473Y-101387719D01*
X40917796Y-101354234D01*
X40944154Y-101351400D01*
X50974202Y-101351400D01*
X51041241Y-101371085D01*
X51061883Y-101387719D01*
X51105584Y-101431420D01*
X51105586Y-101431421D01*
X51105590Y-101431424D01*
X51190625Y-101480518D01*
X51242516Y-101510477D01*
X51395243Y-101551400D01*
X51395245Y-101551400D01*
X51553355Y-101551400D01*
X51553357Y-101551400D01*
X51706084Y-101510477D01*
X51843016Y-101431420D01*
X51954820Y-101319616D01*
X52033877Y-101182684D01*
X52074800Y-101029957D01*
X52074800Y-100871843D01*
X52033877Y-100719116D01*
X52025044Y-100703816D01*
X51954824Y-100582190D01*
X51954818Y-100582182D01*
X51843017Y-100470381D01*
X51843009Y-100470375D01*
X51706090Y-100391326D01*
X51706086Y-100391324D01*
X51706084Y-100391323D01*
X51553357Y-100350400D01*
X51395243Y-100350400D01*
X51242516Y-100391323D01*
X51242509Y-100391326D01*
X51105590Y-100470375D01*
X51105582Y-100470381D01*
X51061883Y-100514081D01*
X51000560Y-100547566D01*
X50974202Y-100550400D01*
X40787239Y-100550400D01*
X40787223Y-100550399D01*
X40779627Y-100550399D01*
X40674173Y-100550399D01*
X40645640Y-100558044D01*
X40581952Y-100575109D01*
X40581953Y-100575110D01*
X40572311Y-100577693D01*
X40498185Y-100620490D01*
X40483307Y-100629081D01*
X40480984Y-100630422D01*
X37790926Y-103320481D01*
X37729603Y-103353966D01*
X37703245Y-103356800D01*
X37641443Y-103356800D01*
X37488716Y-103397723D01*
X37488709Y-103397726D01*
X37351790Y-103476775D01*
X37351782Y-103476781D01*
X37239981Y-103588582D01*
X37239975Y-103588590D01*
X37160926Y-103725509D01*
X37160923Y-103725516D01*
X37120000Y-103878243D01*
X22768059Y-103878243D01*
X22748434Y-103842303D01*
X22745600Y-103815945D01*
X22745600Y-103754145D01*
X22745600Y-103754143D01*
X22704677Y-103601416D01*
X22697267Y-103588582D01*
X22625624Y-103464490D01*
X22625618Y-103464482D01*
X22513817Y-103352681D01*
X22513809Y-103352675D01*
X22376890Y-103273626D01*
X22376886Y-103273624D01*
X22376884Y-103273623D01*
X22224157Y-103232700D01*
X22066043Y-103232700D01*
X21913316Y-103273623D01*
X21913309Y-103273626D01*
X21776390Y-103352675D01*
X21776382Y-103352681D01*
X21664581Y-103464482D01*
X21664575Y-103464490D01*
X21585526Y-103601409D01*
X21585523Y-103601416D01*
X21544600Y-103754143D01*
X21544600Y-103912257D01*
X21577853Y-104036357D01*
X21585523Y-104064983D01*
X21585526Y-104064990D01*
X21664575Y-104201909D01*
X21664579Y-104201914D01*
X21664580Y-104201916D01*
X21776384Y-104313720D01*
X21776386Y-104313721D01*
X21776390Y-104313724D01*
X21871642Y-104368717D01*
X21913316Y-104392777D01*
X22066043Y-104433700D01*
X22127845Y-104433700D01*
X22194884Y-104453385D01*
X22215526Y-104470019D01*
X24083327Y-106337819D01*
X24093939Y-106357255D01*
X24108440Y-106373989D01*
X24110356Y-106387320D01*
X24116812Y-106399142D01*
X24115232Y-106421228D01*
X24118384Y-106443147D01*
X24112788Y-106455398D01*
X24111828Y-106468834D01*
X24098557Y-106486560D01*
X24089359Y-106506703D01*
X24078027Y-106513985D01*
X24069956Y-106524767D01*
X24049210Y-106532504D01*
X24030581Y-106544477D01*
X24008662Y-106547628D01*
X24004492Y-106549184D01*
X23995646Y-106549500D01*
X23949931Y-106549500D01*
X23882892Y-106529815D01*
X23874443Y-106523875D01*
X23868709Y-106519475D01*
X23731790Y-106440426D01*
X23731786Y-106440424D01*
X23731784Y-106440423D01*
X23579057Y-106399500D01*
X23420943Y-106399500D01*
X23268216Y-106440423D01*
X23268209Y-106440426D01*
X23131290Y-106519475D01*
X23131282Y-106519481D01*
X23019481Y-106631282D01*
X23019475Y-106631290D01*
X22940426Y-106768209D01*
X22940423Y-106768216D01*
X22899500Y-106920943D01*
X22899500Y-107079056D01*
X22940423Y-107231783D01*
X22940426Y-107231790D01*
X23019475Y-107368709D01*
X23019479Y-107368714D01*
X23019480Y-107368716D01*
X23131284Y-107480520D01*
X23131286Y-107480521D01*
X23131290Y-107480524D01*
X23228423Y-107536603D01*
X23268216Y-107559577D01*
X23420943Y-107600500D01*
X23420945Y-107600500D01*
X23579055Y-107600500D01*
X23579057Y-107600500D01*
X23731784Y-107559577D01*
X23868716Y-107480520D01*
X23868721Y-107480514D01*
X23874443Y-107476125D01*
X23939612Y-107450930D01*
X23949931Y-107450500D01*
X42762035Y-107450500D01*
X42791475Y-107459144D01*
X42821462Y-107465668D01*
X42826477Y-107469422D01*
X42829074Y-107470185D01*
X42849716Y-107486819D01*
X42863299Y-107500402D01*
X42896784Y-107561725D01*
X42898556Y-107571893D01*
X42899498Y-107579050D01*
X42940423Y-107731783D01*
X42940426Y-107731790D01*
X43019475Y-107868709D01*
X43019479Y-107868714D01*
X43019480Y-107868716D01*
X43131284Y-107980520D01*
X43131286Y-107980521D01*
X43131290Y-107980524D01*
X43241284Y-108044028D01*
X43268216Y-108059577D01*
X43420943Y-108100500D01*
X43420945Y-108100500D01*
X43579055Y-108100500D01*
X43579057Y-108100500D01*
X43731784Y-108059577D01*
X43868716Y-107980520D01*
X43980520Y-107868716D01*
X44059577Y-107731784D01*
X44100500Y-107579057D01*
X44100500Y-107420943D01*
X44059577Y-107268216D01*
X44038543Y-107231783D01*
X43980524Y-107131290D01*
X43980518Y-107131282D01*
X43868717Y-107019481D01*
X43868709Y-107019475D01*
X43731790Y-106940426D01*
X43731786Y-106940424D01*
X43731784Y-106940423D01*
X43579057Y-106899500D01*
X43579050Y-106899498D01*
X43571893Y-106898556D01*
X43550992Y-106889308D01*
X43528656Y-106884450D01*
X43512250Y-106872168D01*
X43507997Y-106870287D01*
X43500402Y-106863299D01*
X43440984Y-106803881D01*
X43407499Y-106742558D01*
X43412483Y-106672866D01*
X43454355Y-106616933D01*
X43519819Y-106592516D01*
X43528665Y-106592200D01*
X58137825Y-106592200D01*
X58137827Y-106592200D01*
X58239688Y-106564907D01*
X58331013Y-106512180D01*
X63375805Y-101467387D01*
X63437127Y-101433903D01*
X63506819Y-101438887D01*
X63562752Y-101480759D01*
X63587169Y-101546223D01*
X63583260Y-101587162D01*
X63576162Y-101613651D01*
X63559900Y-101674343D01*
X63559900Y-101832457D01*
X63586424Y-101931444D01*
X63600823Y-101985183D01*
X63600826Y-101985190D01*
X63679875Y-102122109D01*
X63679879Y-102122114D01*
X63679880Y-102122116D01*
X63791684Y-102233920D01*
X63791686Y-102233921D01*
X63791690Y-102233924D01*
X63857168Y-102271727D01*
X63928616Y-102312977D01*
X64081343Y-102353900D01*
X64081345Y-102353900D01*
X64160745Y-102353900D01*
X64227784Y-102373585D01*
X64273539Y-102426389D01*
X64283483Y-102495547D01*
X64254458Y-102559103D01*
X64248426Y-102565581D01*
X61264326Y-105549681D01*
X61203003Y-105583166D01*
X61176645Y-105586000D01*
X61114843Y-105586000D01*
X60962116Y-105626923D01*
X60962109Y-105626926D01*
X60825190Y-105705975D01*
X60825182Y-105705981D01*
X60713381Y-105817782D01*
X60713375Y-105817790D01*
X60634326Y-105954709D01*
X60634323Y-105954716D01*
X60593400Y-106107443D01*
X60593400Y-106265557D01*
X60626719Y-106389903D01*
X60634323Y-106418283D01*
X60634326Y-106418290D01*
X60713375Y-106555209D01*
X60713379Y-106555214D01*
X60713380Y-106555216D01*
X60825184Y-106667020D01*
X60825186Y-106667021D01*
X60825190Y-106667024D01*
X60956021Y-106742558D01*
X60962116Y-106746077D01*
X61054053Y-106770711D01*
X61113712Y-106807075D01*
X61144241Y-106869921D01*
X61135947Y-106939297D01*
X61109639Y-106978166D01*
X58687526Y-109400281D01*
X58626203Y-109433766D01*
X58599845Y-109436600D01*
X43551798Y-109436600D01*
X43484759Y-109416915D01*
X43464117Y-109400281D01*
X43420417Y-109356581D01*
X43420409Y-109356575D01*
X43283490Y-109277526D01*
X43283486Y-109277524D01*
X43283484Y-109277523D01*
X43130757Y-109236600D01*
X42972643Y-109236600D01*
X42819916Y-109277523D01*
X42819909Y-109277526D01*
X42682990Y-109356575D01*
X42682982Y-109356581D01*
X42571181Y-109468382D01*
X42571175Y-109468390D01*
X42492126Y-109605309D01*
X42492123Y-109605316D01*
X42451200Y-109758043D01*
X42451200Y-109916156D01*
X42492123Y-110068883D01*
X42492126Y-110068890D01*
X42571175Y-110205809D01*
X42571179Y-110205814D01*
X42571180Y-110205816D01*
X42682984Y-110317620D01*
X42682986Y-110317621D01*
X42682990Y-110317624D01*
X42764770Y-110364839D01*
X42819916Y-110396677D01*
X42972643Y-110437600D01*
X42972645Y-110437600D01*
X43130755Y-110437600D01*
X43130757Y-110437600D01*
X43192922Y-110420943D01*
X59899500Y-110420943D01*
X59899500Y-110579057D01*
X59940423Y-110731782D01*
X59940423Y-110731783D01*
X59940426Y-110731790D01*
X60019475Y-110868709D01*
X60019479Y-110868714D01*
X60019480Y-110868716D01*
X60131284Y-110980520D01*
X60131286Y-110980521D01*
X60131290Y-110980524D01*
X60185475Y-111011807D01*
X60268216Y-111059577D01*
X60420943Y-111100500D01*
X60420945Y-111100500D01*
X60579055Y-111100500D01*
X60579057Y-111100500D01*
X60731784Y-111059577D01*
X60868716Y-110980520D01*
X60980520Y-110868716D01*
X61059577Y-110731784D01*
X61081558Y-110649748D01*
X61113649Y-110594163D01*
X67170995Y-104536819D01*
X67232318Y-104503334D01*
X67258676Y-104500500D01*
X71632666Y-104500500D01*
X71694665Y-104517112D01*
X71768216Y-104559577D01*
X71920943Y-104600500D01*
X71920945Y-104600500D01*
X72079055Y-104600500D01*
X72079057Y-104600500D01*
X72231784Y-104559577D01*
X72368716Y-104480520D01*
X72480520Y-104368716D01*
X72559577Y-104231784D01*
X72600500Y-104079057D01*
X72600500Y-103920943D01*
X72559577Y-103768216D01*
X72551452Y-103754143D01*
X72480524Y-103631290D01*
X72480518Y-103631282D01*
X72368717Y-103519481D01*
X72368709Y-103519475D01*
X72231790Y-103440426D01*
X72231786Y-103440424D01*
X72231784Y-103440423D01*
X72079057Y-103399500D01*
X71920943Y-103399500D01*
X71768216Y-103440423D01*
X71768213Y-103440424D01*
X71694666Y-103482887D01*
X71632666Y-103499500D01*
X68007676Y-103499500D01*
X67986430Y-103493261D01*
X67964342Y-103491682D01*
X67953558Y-103483609D01*
X67940637Y-103479815D01*
X67926137Y-103463081D01*
X67908409Y-103449810D01*
X67903701Y-103437189D01*
X67894882Y-103427011D01*
X67891730Y-103405093D01*
X67883992Y-103384346D01*
X67886854Y-103371185D01*
X67884938Y-103357853D01*
X67894137Y-103337709D01*
X67898844Y-103316073D01*
X67912112Y-103298347D01*
X67913963Y-103294297D01*
X67919995Y-103287819D01*
X67997717Y-103210097D01*
X82379500Y-103210097D01*
X82379500Y-106389885D01*
X82379500Y-106389902D01*
X82379501Y-106389904D01*
X82381095Y-106418284D01*
X82385804Y-106502158D01*
X82385805Y-106502165D01*
X82435971Y-106767299D01*
X82435973Y-106767309D01*
X82482228Y-106899498D01*
X82525102Y-107022025D01*
X82635962Y-107231783D01*
X82651196Y-107260606D01*
X82651199Y-107260612D01*
X82805308Y-107469422D01*
X82811445Y-107477737D01*
X83002263Y-107668555D01*
X83219390Y-107828802D01*
X83457975Y-107954898D01*
X83712690Y-108044026D01*
X83712700Y-108044028D01*
X83794857Y-108059573D01*
X83977843Y-108094196D01*
X84090095Y-108100500D01*
X84855500Y-108100499D01*
X84922539Y-108120183D01*
X84968294Y-108172987D01*
X84979500Y-108224499D01*
X84979500Y-110611006D01*
X84979500Y-110748994D01*
X84979500Y-110748996D01*
X84979499Y-110748996D01*
X85006418Y-110884322D01*
X85006421Y-110884332D01*
X85059222Y-111011807D01*
X85135887Y-111126545D01*
X85135888Y-111126546D01*
X87813181Y-113803838D01*
X87846666Y-113865161D01*
X87849500Y-113891519D01*
X87849500Y-114793102D01*
X87855126Y-114839954D01*
X87860122Y-114881561D01*
X87915639Y-115022343D01*
X88007077Y-115142922D01*
X88127656Y-115234360D01*
X88127657Y-115234360D01*
X88127658Y-115234361D01*
X88268436Y-115289877D01*
X88356898Y-115300500D01*
X88356903Y-115300500D01*
X89643097Y-115300500D01*
X89643102Y-115300500D01*
X89731564Y-115289877D01*
X89872342Y-115234361D01*
X89992922Y-115142922D01*
X90084361Y-115022342D01*
X90139877Y-114881564D01*
X90150500Y-114793102D01*
X90150500Y-113206898D01*
X90139877Y-113118436D01*
X90084361Y-112977658D01*
X90084360Y-112977657D01*
X90084360Y-112977656D01*
X89992922Y-112857077D01*
X89872343Y-112765639D01*
X89731561Y-112710122D01*
X89685926Y-112704642D01*
X89643102Y-112699500D01*
X89643097Y-112699500D01*
X88741519Y-112699500D01*
X88674480Y-112679815D01*
X88653838Y-112663181D01*
X86416819Y-110426162D01*
X86383334Y-110364839D01*
X86380500Y-110338481D01*
X86380500Y-108224499D01*
X86400185Y-108157460D01*
X86452989Y-108111705D01*
X86504500Y-108100499D01*
X87269886Y-108100499D01*
X87269904Y-108100499D01*
X87382157Y-108094196D01*
X87647310Y-108044026D01*
X87902025Y-107954898D01*
X88140610Y-107828802D01*
X88357737Y-107668555D01*
X88548555Y-107477737D01*
X88708802Y-107260610D01*
X88834898Y-107022025D01*
X88924026Y-106767310D01*
X88974196Y-106502157D01*
X88980500Y-106389905D01*
X88980499Y-103210096D01*
X88974196Y-103097843D01*
X88924026Y-102832690D01*
X88834898Y-102577975D01*
X88708802Y-102339390D01*
X88689308Y-102312977D01*
X88548555Y-102122263D01*
X88357736Y-101931444D01*
X88140612Y-101771199D01*
X88140606Y-101771196D01*
X87902027Y-101645103D01*
X87902026Y-101645102D01*
X87902025Y-101645102D01*
X87812143Y-101613651D01*
X87647309Y-101555973D01*
X87647299Y-101555971D01*
X87382166Y-101505805D01*
X87382159Y-101505804D01*
X87363448Y-101504753D01*
X87269905Y-101499500D01*
X87269895Y-101499500D01*
X84090114Y-101499500D01*
X84090096Y-101499501D01*
X83977841Y-101505804D01*
X83977834Y-101505805D01*
X83712700Y-101555971D01*
X83712690Y-101555973D01*
X83457972Y-101645103D01*
X83219393Y-101771196D01*
X83219387Y-101771199D01*
X83002263Y-101931444D01*
X82811444Y-102122263D01*
X82651199Y-102339387D01*
X82651196Y-102339393D01*
X82525103Y-102577972D01*
X82435973Y-102832690D01*
X82435971Y-102832700D01*
X82385805Y-103097833D01*
X82385804Y-103097840D01*
X82379500Y-103210097D01*
X67997717Y-103210097D01*
X68087139Y-103120675D01*
X68375124Y-102832690D01*
X69594163Y-101613649D01*
X69649748Y-101581558D01*
X69731784Y-101559577D01*
X69868716Y-101480520D01*
X69980520Y-101368716D01*
X70059577Y-101231784D01*
X70100500Y-101079057D01*
X70100500Y-100920943D01*
X70059577Y-100768216D01*
X70046751Y-100746000D01*
X69980524Y-100631290D01*
X69980518Y-100631282D01*
X69868717Y-100519481D01*
X69868709Y-100519475D01*
X69731790Y-100440426D01*
X69731786Y-100440424D01*
X69731784Y-100440423D01*
X69579057Y-100399500D01*
X69420943Y-100399500D01*
X69268216Y-100440423D01*
X69268209Y-100440426D01*
X69131290Y-100519475D01*
X69131282Y-100519481D01*
X69019481Y-100631282D01*
X69019475Y-100631290D01*
X68940426Y-100768209D01*
X68940422Y-100768218D01*
X68918440Y-100850252D01*
X68886347Y-100905837D01*
X60192686Y-109599500D01*
X60099502Y-109692683D01*
X60099500Y-109692686D01*
X60033608Y-109806812D01*
X59999500Y-109934108D01*
X59999500Y-110132664D01*
X59982888Y-110194663D01*
X59940423Y-110268215D01*
X59940423Y-110268216D01*
X59899500Y-110420943D01*
X43192922Y-110420943D01*
X43283484Y-110396677D01*
X43420416Y-110317620D01*
X43464381Y-110273654D01*
X43464574Y-110273464D01*
X43495092Y-110257004D01*
X43525440Y-110240434D01*
X43525913Y-110240383D01*
X43526071Y-110240298D01*
X43526440Y-110240326D01*
X43551798Y-110237600D01*
X58869825Y-110237600D01*
X58869827Y-110237600D01*
X58971688Y-110210307D01*
X59063013Y-110157580D01*
X76335335Y-92885258D01*
X80999500Y-92885258D01*
X80999500Y-93114741D01*
X81019521Y-93266809D01*
X81029452Y-93342238D01*
X81079444Y-93528811D01*
X81088842Y-93563887D01*
X81176650Y-93775876D01*
X81176657Y-93775890D01*
X81291392Y-93974617D01*
X81431081Y-94156661D01*
X81431089Y-94156670D01*
X81593330Y-94318911D01*
X81593338Y-94318918D01*
X81775382Y-94458607D01*
X81775385Y-94458608D01*
X81775388Y-94458611D01*
X81974112Y-94573344D01*
X81974117Y-94573346D01*
X81974123Y-94573349D01*
X82065480Y-94611190D01*
X82186113Y-94661158D01*
X82407762Y-94720548D01*
X82635266Y-94750500D01*
X82635273Y-94750500D01*
X82864727Y-94750500D01*
X82864734Y-94750500D01*
X83092238Y-94720548D01*
X83313887Y-94661158D01*
X83525888Y-94573344D01*
X83724612Y-94458611D01*
X83906661Y-94318919D01*
X83906665Y-94318914D01*
X83906670Y-94318911D01*
X84068911Y-94156670D01*
X84068914Y-94156665D01*
X84068919Y-94156661D01*
X84208611Y-93974612D01*
X84323344Y-93775888D01*
X84411158Y-93563887D01*
X84470548Y-93342238D01*
X84500500Y-93114734D01*
X84500500Y-92885266D01*
X84470548Y-92657762D01*
X84411158Y-92436113D01*
X84338558Y-92260842D01*
X84323349Y-92224123D01*
X84323346Y-92224117D01*
X84323344Y-92224112D01*
X84208611Y-92025388D01*
X84208608Y-92025385D01*
X84208607Y-92025382D01*
X84094271Y-91876378D01*
X84068919Y-91843339D01*
X84068918Y-91843338D01*
X84068911Y-91843330D01*
X83906670Y-91681089D01*
X83906661Y-91681081D01*
X83724617Y-91541392D01*
X83721932Y-91539842D01*
X83640620Y-91492896D01*
X83525890Y-91426657D01*
X83525876Y-91426650D01*
X83313887Y-91338842D01*
X83092238Y-91279452D01*
X83054215Y-91274446D01*
X82864741Y-91249500D01*
X82864734Y-91249500D01*
X82635266Y-91249500D01*
X82635258Y-91249500D01*
X82418715Y-91278009D01*
X82407762Y-91279452D01*
X82400313Y-91281448D01*
X82186112Y-91338842D01*
X81974123Y-91426650D01*
X81974109Y-91426657D01*
X81775382Y-91541392D01*
X81593338Y-91681081D01*
X81431081Y-91843338D01*
X81291392Y-92025382D01*
X81176657Y-92224109D01*
X81176650Y-92224123D01*
X81088842Y-92436112D01*
X81054554Y-92564076D01*
X81029549Y-92657402D01*
X81029453Y-92657759D01*
X81029451Y-92657770D01*
X80999500Y-92885258D01*
X76335335Y-92885258D01*
X85920480Y-83300113D01*
X85932817Y-83278743D01*
X85938033Y-83269711D01*
X85949757Y-83249403D01*
X85973207Y-83208787D01*
X86000500Y-83106927D01*
X86000500Y-68259653D01*
X86009144Y-68230213D01*
X86015667Y-68200228D01*
X86019422Y-68195210D01*
X86020185Y-68192614D01*
X86036808Y-68171983D01*
X86069260Y-68139531D01*
X86130577Y-68106049D01*
X86200269Y-68111033D01*
X86256203Y-68152903D01*
X86280621Y-68218367D01*
X86280933Y-68226268D01*
X86516816Y-99124479D01*
X86516817Y-99124480D01*
X86576213Y-99124820D01*
X86643136Y-99144888D01*
X86688588Y-99197954D01*
X86699500Y-99248818D01*
X86699500Y-99960438D01*
X86699500Y-100039562D01*
X86702574Y-100051033D01*
X86719979Y-100115990D01*
X86719982Y-100115995D01*
X86759535Y-100184504D01*
X86759539Y-100184509D01*
X86759540Y-100184511D01*
X86815489Y-100240460D01*
X86815491Y-100240461D01*
X86815495Y-100240464D01*
X86884004Y-100280017D01*
X86884011Y-100280021D01*
X86960438Y-100300500D01*
X99284297Y-100300500D01*
X99351336Y-100320185D01*
X99397091Y-100372989D01*
X99408295Y-100423880D01*
X99501277Y-119007858D01*
X99481929Y-119074995D01*
X99429354Y-119121013D01*
X99376882Y-119132477D01*
X60774103Y-119008732D01*
X60707126Y-118988833D01*
X60661541Y-118935883D01*
X60650500Y-118884733D01*
X60650500Y-113760439D01*
X60630020Y-113684009D01*
X60630017Y-113684004D01*
X60590464Y-113615495D01*
X60590458Y-113615487D01*
X60534512Y-113559541D01*
X60534504Y-113559535D01*
X60465995Y-113519982D01*
X60465990Y-113519979D01*
X60440294Y-113513094D01*
X60389562Y-113499500D01*
X60347827Y-113499500D01*
X60280788Y-113479815D01*
X60235033Y-113427011D01*
X60223827Y-113375678D01*
X60223584Y-113206903D01*
X60223297Y-113007399D01*
X66634500Y-113007399D01*
X66634500Y-113132601D01*
X66666905Y-113253536D01*
X66729505Y-113361964D01*
X66818036Y-113450495D01*
X66926464Y-113513095D01*
X67047399Y-113545500D01*
X67047401Y-113545500D01*
X67172599Y-113545500D01*
X67172601Y-113545500D01*
X67293536Y-113513095D01*
X67401964Y-113450495D01*
X67490495Y-113361964D01*
X67553095Y-113253536D01*
X67585500Y-113132601D01*
X67585500Y-113007399D01*
X72414500Y-113007399D01*
X72414500Y-113132601D01*
X72446905Y-113253536D01*
X72509505Y-113361964D01*
X72598036Y-113450495D01*
X72706464Y-113513095D01*
X72827399Y-113545500D01*
X72827401Y-113545500D01*
X72952599Y-113545500D01*
X72952601Y-113545500D01*
X73073536Y-113513095D01*
X73181964Y-113450495D01*
X73270495Y-113361964D01*
X73333095Y-113253536D01*
X73365500Y-113132601D01*
X73365500Y-113007399D01*
X73333095Y-112886464D01*
X73270495Y-112778036D01*
X73181964Y-112689505D01*
X73073536Y-112626905D01*
X73073537Y-112626905D01*
X73033224Y-112616103D01*
X72952601Y-112594500D01*
X72827399Y-112594500D01*
X72746775Y-112616103D01*
X72706463Y-112626905D01*
X72598037Y-112689504D01*
X72598034Y-112689506D01*
X72509506Y-112778034D01*
X72509504Y-112778037D01*
X72446905Y-112886463D01*
X72446905Y-112886464D01*
X72414500Y-113007399D01*
X67585500Y-113007399D01*
X67553095Y-112886464D01*
X67490495Y-112778036D01*
X67401964Y-112689505D01*
X67293536Y-112626905D01*
X67293537Y-112626905D01*
X67253224Y-112616103D01*
X67172601Y-112594500D01*
X67047399Y-112594500D01*
X66966775Y-112616103D01*
X66926463Y-112626905D01*
X66818037Y-112689504D01*
X66818034Y-112689506D01*
X66729506Y-112778034D01*
X66729504Y-112778037D01*
X66666905Y-112886463D01*
X66666905Y-112886464D01*
X66634500Y-113007399D01*
X60223297Y-113007399D01*
X60223011Y-112808095D01*
X39776988Y-112808095D01*
X39776172Y-113375678D01*
X39756391Y-113442689D01*
X39703521Y-113488368D01*
X39652172Y-113499500D01*
X39610438Y-113499500D01*
X39572224Y-113509739D01*
X39534009Y-113519979D01*
X39534004Y-113519982D01*
X39465495Y-113559535D01*
X39465487Y-113559541D01*
X39409541Y-113615487D01*
X39409535Y-113615495D01*
X39369982Y-113684004D01*
X39369979Y-113684009D01*
X39349500Y-113760439D01*
X39349500Y-118884733D01*
X39329815Y-118951772D01*
X39277011Y-118997527D01*
X39225897Y-119008732D01*
X623116Y-119132477D01*
X556014Y-119113008D01*
X510090Y-119060351D01*
X498721Y-119007860D01*
X510514Y-116650943D01*
X3899500Y-116650943D01*
X3899500Y-116809056D01*
X3940423Y-116961783D01*
X3940426Y-116961790D01*
X4019475Y-117098709D01*
X4019479Y-117098714D01*
X4019480Y-117098716D01*
X4131284Y-117210520D01*
X4131286Y-117210521D01*
X4131290Y-117210524D01*
X4268209Y-117289573D01*
X4268216Y-117289577D01*
X4420943Y-117330500D01*
X4420945Y-117330500D01*
X4579055Y-117330500D01*
X4579057Y-117330500D01*
X4731784Y-117289577D01*
X4868716Y-117210520D01*
X4980520Y-117098716D01*
X5059577Y-116961784D01*
X5100500Y-116809057D01*
X5100500Y-116650943D01*
X6899500Y-116650943D01*
X6899500Y-116809056D01*
X6940423Y-116961783D01*
X6940426Y-116961790D01*
X7019475Y-117098709D01*
X7019479Y-117098714D01*
X7019480Y-117098716D01*
X7131284Y-117210520D01*
X7131286Y-117210521D01*
X7131290Y-117210524D01*
X7268209Y-117289573D01*
X7268216Y-117289577D01*
X7420943Y-117330500D01*
X7420945Y-117330500D01*
X7579055Y-117330500D01*
X7579057Y-117330500D01*
X7731784Y-117289577D01*
X7868716Y-117210520D01*
X7980520Y-117098716D01*
X8059577Y-116961784D01*
X8100500Y-116809057D01*
X8100500Y-116650943D01*
X13399500Y-116650943D01*
X13399500Y-116809056D01*
X13440423Y-116961783D01*
X13440426Y-116961790D01*
X13519475Y-117098709D01*
X13519479Y-117098714D01*
X13519480Y-117098716D01*
X13631284Y-117210520D01*
X13631286Y-117210521D01*
X13631290Y-117210524D01*
X13768209Y-117289573D01*
X13768216Y-117289577D01*
X13920943Y-117330500D01*
X13920945Y-117330500D01*
X14079055Y-117330500D01*
X14079057Y-117330500D01*
X14231784Y-117289577D01*
X14368716Y-117210520D01*
X14480520Y-117098716D01*
X14559577Y-116961784D01*
X14600500Y-116809057D01*
X14600500Y-116650943D01*
X16399500Y-116650943D01*
X16399500Y-116809056D01*
X16440423Y-116961783D01*
X16440426Y-116961790D01*
X16519475Y-117098709D01*
X16519479Y-117098714D01*
X16519480Y-117098716D01*
X16631284Y-117210520D01*
X16631286Y-117210521D01*
X16631290Y-117210524D01*
X16768209Y-117289573D01*
X16768216Y-117289577D01*
X16920943Y-117330500D01*
X16920945Y-117330500D01*
X17079055Y-117330500D01*
X17079057Y-117330500D01*
X17231784Y-117289577D01*
X17368716Y-117210520D01*
X17480520Y-117098716D01*
X17559577Y-116961784D01*
X17600500Y-116809057D01*
X17600500Y-116650943D01*
X17559577Y-116498216D01*
X17559573Y-116498209D01*
X17480524Y-116361290D01*
X17480518Y-116361282D01*
X17368717Y-116249481D01*
X17368709Y-116249475D01*
X17231790Y-116170426D01*
X17231786Y-116170424D01*
X17231784Y-116170423D01*
X17079057Y-116129500D01*
X16920943Y-116129500D01*
X16768216Y-116170423D01*
X16768209Y-116170426D01*
X16631290Y-116249475D01*
X16631282Y-116249481D01*
X16519481Y-116361282D01*
X16519475Y-116361290D01*
X16440426Y-116498209D01*
X16440423Y-116498216D01*
X16399500Y-116650943D01*
X14600500Y-116650943D01*
X14559577Y-116498216D01*
X14559573Y-116498209D01*
X14480524Y-116361290D01*
X14480518Y-116361282D01*
X14368717Y-116249481D01*
X14368709Y-116249475D01*
X14231790Y-116170426D01*
X14231786Y-116170424D01*
X14231784Y-116170423D01*
X14079057Y-116129500D01*
X13920943Y-116129500D01*
X13768216Y-116170423D01*
X13768209Y-116170426D01*
X13631290Y-116249475D01*
X13631282Y-116249481D01*
X13519481Y-116361282D01*
X13519475Y-116361290D01*
X13440426Y-116498209D01*
X13440423Y-116498216D01*
X13399500Y-116650943D01*
X8100500Y-116650943D01*
X8059577Y-116498216D01*
X8059573Y-116498209D01*
X7980524Y-116361290D01*
X7980518Y-116361282D01*
X7868717Y-116249481D01*
X7868709Y-116249475D01*
X7731790Y-116170426D01*
X7731786Y-116170424D01*
X7731784Y-116170423D01*
X7579057Y-116129500D01*
X7420943Y-116129500D01*
X7268216Y-116170423D01*
X7268209Y-116170426D01*
X7131290Y-116249475D01*
X7131282Y-116249481D01*
X7019481Y-116361282D01*
X7019475Y-116361290D01*
X6940426Y-116498209D01*
X6940423Y-116498216D01*
X6899500Y-116650943D01*
X5100500Y-116650943D01*
X5059577Y-116498216D01*
X5059573Y-116498209D01*
X4980524Y-116361290D01*
X4980518Y-116361282D01*
X4868717Y-116249481D01*
X4868709Y-116249475D01*
X4731790Y-116170426D01*
X4731786Y-116170424D01*
X4731784Y-116170423D01*
X4579057Y-116129500D01*
X4420943Y-116129500D01*
X4268216Y-116170423D01*
X4268209Y-116170426D01*
X4131290Y-116249475D01*
X4131282Y-116249481D01*
X4019481Y-116361282D01*
X4019475Y-116361290D01*
X3940426Y-116498209D01*
X3940423Y-116498216D01*
X3899500Y-116650943D01*
X510514Y-116650943D01*
X530366Y-112683243D01*
X18455700Y-112683243D01*
X18455700Y-112841357D01*
X18467787Y-112886464D01*
X18496623Y-112994083D01*
X18496626Y-112994090D01*
X18575675Y-113131009D01*
X18575679Y-113131014D01*
X18575680Y-113131016D01*
X18687484Y-113242820D01*
X18687486Y-113242821D01*
X18687490Y-113242824D01*
X18824409Y-113321873D01*
X18824416Y-113321877D01*
X18977143Y-113362800D01*
X18977145Y-113362800D01*
X19135255Y-113362800D01*
X19135257Y-113362800D01*
X19287984Y-113321877D01*
X19424916Y-113242820D01*
X19536720Y-113131016D01*
X19615777Y-112994084D01*
X19656700Y-112841357D01*
X19656700Y-112779555D01*
X19676385Y-112712516D01*
X19693019Y-112691874D01*
X19940574Y-112444319D01*
X20001897Y-112410834D01*
X20028255Y-112408000D01*
X63533202Y-112408000D01*
X63600241Y-112427685D01*
X63620883Y-112444319D01*
X63664584Y-112488020D01*
X63664586Y-112488021D01*
X63664590Y-112488024D01*
X63801509Y-112567073D01*
X63801516Y-112567077D01*
X63954243Y-112608000D01*
X63954245Y-112608000D01*
X64112355Y-112608000D01*
X64112357Y-112608000D01*
X64265084Y-112567077D01*
X64402016Y-112488020D01*
X64513820Y-112376216D01*
X64592877Y-112239284D01*
X64633800Y-112086557D01*
X64633800Y-111928443D01*
X64592877Y-111775716D01*
X64592873Y-111775709D01*
X64513824Y-111638790D01*
X64513818Y-111638782D01*
X64402017Y-111526981D01*
X64402009Y-111526975D01*
X64265090Y-111447926D01*
X64265086Y-111447924D01*
X64265084Y-111447923D01*
X64112357Y-111407000D01*
X63954243Y-111407000D01*
X63801516Y-111447923D01*
X63801509Y-111447926D01*
X63664590Y-111526975D01*
X63664582Y-111526981D01*
X63620883Y-111570681D01*
X63559560Y-111604166D01*
X63533202Y-111607000D01*
X19758273Y-111607000D01*
X19656410Y-111634293D01*
X19636192Y-111645967D01*
X19634385Y-111647011D01*
X19599736Y-111667015D01*
X19565088Y-111687019D01*
X19565085Y-111687021D01*
X19126626Y-112125481D01*
X19065303Y-112158966D01*
X19038945Y-112161800D01*
X18977143Y-112161800D01*
X18824416Y-112202723D01*
X18824409Y-112202726D01*
X18687490Y-112281775D01*
X18687482Y-112281781D01*
X18575681Y-112393582D01*
X18575675Y-112393590D01*
X18496626Y-112530509D01*
X18496623Y-112530516D01*
X18455700Y-112683243D01*
X530366Y-112683243D01*
X556397Y-107480518D01*
X591704Y-100423880D01*
X611723Y-100356939D01*
X664756Y-100311449D01*
X715702Y-100300500D01*
X13039560Y-100300500D01*
X13039562Y-100300500D01*
X13115989Y-100280021D01*
X13184511Y-100240460D01*
X13240460Y-100184511D01*
X13280021Y-100115989D01*
X13300500Y-100039562D01*
X13300500Y-99248818D01*
X13320185Y-99181779D01*
X13372989Y-99136024D01*
X13423786Y-99124820D01*
X13483182Y-99124480D01*
X13495754Y-97477656D01*
X13515949Y-97410770D01*
X13569101Y-97365420D01*
X13638333Y-97356004D01*
X13701666Y-97385514D01*
X13707422Y-97390914D01*
X13794164Y-97477656D01*
X14023981Y-97707473D01*
X14057466Y-97768796D01*
X14060300Y-97795154D01*
X14060300Y-97856957D01*
X14099966Y-98004990D01*
X14101223Y-98009683D01*
X14101226Y-98009690D01*
X14180275Y-98146609D01*
X14180279Y-98146614D01*
X14180280Y-98146616D01*
X14292084Y-98258420D01*
X14292086Y-98258421D01*
X14292090Y-98258424D01*
X14354828Y-98294645D01*
X14429016Y-98337477D01*
X14581743Y-98378400D01*
X14581745Y-98378400D01*
X14739855Y-98378400D01*
X14739857Y-98378400D01*
X14892584Y-98337477D01*
X15029516Y-98258420D01*
X15141320Y-98146616D01*
X15220377Y-98009684D01*
X15261300Y-97856957D01*
X15261300Y-97698843D01*
X15220377Y-97546116D01*
X15142236Y-97410770D01*
X15141324Y-97409190D01*
X15141318Y-97409182D01*
X15029517Y-97297381D01*
X15029509Y-97297375D01*
X14892590Y-97218326D01*
X14892586Y-97218324D01*
X14892584Y-97218323D01*
X14739857Y-97177400D01*
X14739856Y-97177400D01*
X14678054Y-97177400D01*
X14611015Y-97157715D01*
X14590373Y-97141081D01*
X14164319Y-96715026D01*
X14130834Y-96653703D01*
X14128000Y-96627345D01*
X14128000Y-69724406D01*
X14147685Y-69657367D01*
X14186678Y-69620187D01*
X14186665Y-69620170D01*
X14186824Y-69620047D01*
X14190003Y-69617017D01*
X14193116Y-69615220D01*
X14304920Y-69503416D01*
X14383977Y-69366484D01*
X14424900Y-69213757D01*
X14424900Y-69055643D01*
X14383977Y-68902916D01*
X14362570Y-68865837D01*
X14304924Y-68765990D01*
X14304918Y-68765982D01*
X14193117Y-68654181D01*
X14193109Y-68654175D01*
X14056190Y-68575126D01*
X14056186Y-68575124D01*
X14056184Y-68575123D01*
X13903457Y-68534200D01*
X13841664Y-68534200D01*
X13774625Y-68514515D01*
X13728870Y-68461711D01*
X13717668Y-68409253D01*
X13718473Y-68303801D01*
X13722743Y-67744446D01*
X13742938Y-67677560D01*
X13796090Y-67632210D01*
X13865322Y-67622794D01*
X13928655Y-67652304D01*
G37*
%TD.AperFunction*%
%TA.AperFunction,Conductor*%
G36*
X86071834Y-48029473D02*
G01*
X86127767Y-48071345D01*
X86152184Y-48136809D01*
X86152500Y-48145655D01*
X86152500Y-66872145D01*
X86132815Y-66939184D01*
X86116181Y-66959826D01*
X85279522Y-67796484D01*
X85279520Y-67796487D01*
X85226793Y-67887811D01*
X85211437Y-67945123D01*
X85199500Y-67989671D01*
X85199500Y-69971445D01*
X85179815Y-70038484D01*
X85127011Y-70084239D01*
X85057853Y-70094183D01*
X84994297Y-70065158D01*
X84987819Y-70059126D01*
X84529219Y-69600526D01*
X84495734Y-69539203D01*
X84492900Y-69512845D01*
X84492900Y-69451045D01*
X84492900Y-69451043D01*
X84451977Y-69298316D01*
X84417066Y-69237847D01*
X84372924Y-69161390D01*
X84372918Y-69161382D01*
X84261117Y-69049581D01*
X84261109Y-69049575D01*
X84124190Y-68970526D01*
X84124186Y-68970524D01*
X84124184Y-68970523D01*
X83971457Y-68929600D01*
X83813343Y-68929600D01*
X83660612Y-68970524D01*
X83655905Y-68972474D01*
X83586435Y-68979940D01*
X83523957Y-68948662D01*
X83488682Y-68890004D01*
X83466392Y-68806814D01*
X83450634Y-68779520D01*
X83400500Y-68692686D01*
X83307314Y-68599500D01*
X77613651Y-62905837D01*
X77581557Y-62850250D01*
X77559577Y-62768216D01*
X77538619Y-62731915D01*
X77480524Y-62631290D01*
X77480518Y-62631282D01*
X77368717Y-62519481D01*
X77368709Y-62519475D01*
X77231788Y-62440424D01*
X77228498Y-62439062D01*
X77226148Y-62437168D01*
X77224746Y-62436359D01*
X77224872Y-62436140D01*
X77174093Y-62395222D01*
X77152027Y-62328928D01*
X77169305Y-62261229D01*
X77220441Y-62213617D01*
X77275948Y-62200500D01*
X77568995Y-62200500D01*
X77660041Y-62182389D01*
X77704328Y-62173580D01*
X77831811Y-62120775D01*
X77946542Y-62044114D01*
X78044114Y-61946542D01*
X78120775Y-61831811D01*
X78173580Y-61704328D01*
X78196880Y-61587193D01*
X78200500Y-61568995D01*
X78200500Y-61431004D01*
X78173581Y-61295677D01*
X78173580Y-61295676D01*
X78173580Y-61295672D01*
X78166698Y-61279057D01*
X78120778Y-61168195D01*
X78120771Y-61168182D01*
X78044114Y-61053458D01*
X78044111Y-61053454D01*
X77946545Y-60955888D01*
X77946541Y-60955885D01*
X77831817Y-60879228D01*
X77831804Y-60879221D01*
X77704332Y-60826421D01*
X77704322Y-60826418D01*
X77568995Y-60799500D01*
X77568993Y-60799500D01*
X76068993Y-60799500D01*
X75931007Y-60799500D01*
X75931005Y-60799500D01*
X75795677Y-60826418D01*
X75795667Y-60826421D01*
X75668195Y-60879221D01*
X75668182Y-60879228D01*
X75553458Y-60955885D01*
X75553454Y-60955888D01*
X75455888Y-61053454D01*
X75455885Y-61053458D01*
X75379228Y-61168182D01*
X75379221Y-61168195D01*
X75326421Y-61295667D01*
X75326418Y-61295677D01*
X75299500Y-61431004D01*
X75299500Y-89158480D01*
X75279815Y-89225519D01*
X75263181Y-89246161D01*
X74955888Y-89553453D01*
X74955887Y-89553454D01*
X74879222Y-89668192D01*
X74826421Y-89795667D01*
X74826418Y-89795677D01*
X74799500Y-89931003D01*
X74799500Y-89931006D01*
X74799500Y-90068994D01*
X74799500Y-90068996D01*
X74799499Y-90068996D01*
X74826418Y-90204322D01*
X74826421Y-90204332D01*
X74879222Y-90331807D01*
X74955887Y-90446545D01*
X75053454Y-90544112D01*
X75168192Y-90620777D01*
X75294245Y-90672989D01*
X75295672Y-90673580D01*
X75295676Y-90673580D01*
X75295677Y-90673581D01*
X75431003Y-90700500D01*
X75431006Y-90700500D01*
X75568996Y-90700500D01*
X75672581Y-90679895D01*
X75704328Y-90673580D01*
X75831811Y-90620775D01*
X75874202Y-90592449D01*
X75940877Y-90571573D01*
X76008257Y-90590057D01*
X76054948Y-90642036D01*
X76066124Y-90711005D01*
X76038239Y-90775069D01*
X76030772Y-90783234D01*
X70584384Y-96229622D01*
X70573431Y-96235602D01*
X70565412Y-96245164D01*
X70543344Y-96252031D01*
X70523061Y-96263107D01*
X70510613Y-96262216D01*
X70498698Y-96265925D01*
X70476421Y-96259771D01*
X70453369Y-96258123D01*
X70443379Y-96250644D01*
X70431351Y-96247322D01*
X70415936Y-96230100D01*
X70397436Y-96216251D01*
X70393075Y-96204560D01*
X70384752Y-96195261D01*
X70381095Y-96172439D01*
X70373019Y-96150787D01*
X70375404Y-96136927D01*
X70373697Y-96126271D01*
X70380932Y-96104809D01*
X70383094Y-96092251D01*
X70385856Y-96085935D01*
X70427107Y-96014487D01*
X70440501Y-95964500D01*
X70454401Y-95912627D01*
X70454401Y-95807173D01*
X70454401Y-95799578D01*
X70454400Y-95799560D01*
X70454400Y-63595755D01*
X70474085Y-63528716D01*
X70490719Y-63508074D01*
X85940819Y-48057974D01*
X86002142Y-48024489D01*
X86071834Y-48029473D01*
G37*
%TD.AperFunction*%
%TA.AperFunction,Conductor*%
G36*
X63258554Y-66652794D02*
G01*
X63302902Y-66681295D01*
X65290227Y-68668620D01*
X65323712Y-68729943D01*
X65318728Y-68799635D01*
X65276856Y-68855568D01*
X65249999Y-68870862D01*
X65113719Y-68927311D01*
X65113709Y-68927316D01*
X64980149Y-69016559D01*
X64980145Y-69016562D01*
X64866562Y-69130145D01*
X64866557Y-69130151D01*
X64853101Y-69150290D01*
X64799488Y-69195095D01*
X64730163Y-69203801D01*
X64667136Y-69173645D01*
X64646899Y-69150290D01*
X64633442Y-69130151D01*
X64633437Y-69130145D01*
X64519854Y-69016562D01*
X64519850Y-69016559D01*
X64386290Y-68927316D01*
X64386281Y-68927311D01*
X64237873Y-68865839D01*
X64237865Y-68865837D01*
X64080324Y-68834500D01*
X64080320Y-68834500D01*
X63919680Y-68834500D01*
X63919675Y-68834500D01*
X63762134Y-68865837D01*
X63762126Y-68865839D01*
X63613718Y-68927311D01*
X63613709Y-68927316D01*
X63480149Y-69016559D01*
X63480145Y-69016562D01*
X63366562Y-69130145D01*
X63366557Y-69130151D01*
X63353101Y-69150290D01*
X63299488Y-69195095D01*
X63230163Y-69203801D01*
X63167136Y-69173645D01*
X63146899Y-69150290D01*
X63133442Y-69130151D01*
X63133437Y-69130145D01*
X63019854Y-69016562D01*
X63019850Y-69016559D01*
X62886290Y-68927316D01*
X62886281Y-68927311D01*
X62737873Y-68865839D01*
X62737865Y-68865837D01*
X62580324Y-68834500D01*
X62580320Y-68834500D01*
X62419680Y-68834500D01*
X62419675Y-68834500D01*
X62262134Y-68865837D01*
X62262126Y-68865839D01*
X62113718Y-68927311D01*
X62113709Y-68927316D01*
X61980149Y-69016559D01*
X61980145Y-69016562D01*
X61866562Y-69130145D01*
X61866559Y-69130149D01*
X61777316Y-69263709D01*
X61777311Y-69263718D01*
X61715839Y-69412126D01*
X61715837Y-69412134D01*
X61684500Y-69569675D01*
X61684500Y-70430324D01*
X61715837Y-70587865D01*
X61715839Y-70587873D01*
X61777311Y-70736281D01*
X61777316Y-70736290D01*
X61866559Y-70869850D01*
X61866562Y-70869854D01*
X61980146Y-70983438D01*
X61980149Y-70983440D01*
X62044391Y-71026365D01*
X62089196Y-71079976D01*
X62099500Y-71129467D01*
X62099500Y-71169427D01*
X62107394Y-71198889D01*
X62126793Y-71271289D01*
X62161433Y-71331286D01*
X62161435Y-71331288D01*
X62176080Y-71356656D01*
X62179520Y-71362613D01*
X62184920Y-71368013D01*
X62259487Y-71442580D01*
X62300731Y-71466392D01*
X62350812Y-71495307D01*
X62452673Y-71522601D01*
X62452676Y-71522601D01*
X62565723Y-71522601D01*
X62565739Y-71522600D01*
X67556625Y-71522600D01*
X67556627Y-71522600D01*
X67572708Y-71518291D01*
X67642556Y-71519954D01*
X67700419Y-71559117D01*
X67727923Y-71623345D01*
X67728800Y-71638066D01*
X67728800Y-81211045D01*
X67709115Y-81278084D01*
X67692481Y-81298726D01*
X57445926Y-91545281D01*
X57384603Y-91578766D01*
X57358245Y-91581600D01*
X57296443Y-91581600D01*
X57143716Y-91622523D01*
X57143709Y-91622526D01*
X57006790Y-91701575D01*
X57006782Y-91701581D01*
X56894981Y-91813382D01*
X56894975Y-91813390D01*
X56815926Y-91950309D01*
X56815923Y-91950316D01*
X56775000Y-92103043D01*
X56775000Y-92261157D01*
X56811668Y-92398002D01*
X56815923Y-92413883D01*
X56815926Y-92413890D01*
X56894975Y-92550809D01*
X56894979Y-92550814D01*
X56894980Y-92550816D01*
X57006784Y-92662620D01*
X57006786Y-92662621D01*
X57006790Y-92662624D01*
X57097724Y-92715124D01*
X57143716Y-92741677D01*
X57296443Y-92782600D01*
X57296445Y-92782600D01*
X57454555Y-92782600D01*
X57454557Y-92782600D01*
X57607284Y-92741677D01*
X57744216Y-92662620D01*
X57856020Y-92550816D01*
X57935077Y-92413884D01*
X57976000Y-92261157D01*
X57976000Y-92199355D01*
X57995685Y-92132316D01*
X58012319Y-92111674D01*
X67897419Y-82226574D01*
X67958742Y-82193089D01*
X68028434Y-82198073D01*
X68084367Y-82239945D01*
X68108784Y-82305409D01*
X68109100Y-82314255D01*
X68109100Y-93322300D01*
X68089415Y-93389339D01*
X68036611Y-93435094D01*
X67985100Y-93446300D01*
X67878843Y-93446300D01*
X67726116Y-93487223D01*
X67726109Y-93487226D01*
X67589190Y-93566275D01*
X67589182Y-93566281D01*
X67477381Y-93678082D01*
X67477375Y-93678090D01*
X67398326Y-93815009D01*
X67398323Y-93815016D01*
X67357400Y-93967743D01*
X67357400Y-94029545D01*
X67348755Y-94058985D01*
X67342232Y-94088972D01*
X67338477Y-94093987D01*
X67337715Y-94096584D01*
X67321081Y-94117226D01*
X67303526Y-94134781D01*
X67242203Y-94168266D01*
X67215845Y-94171100D01*
X63987200Y-94171100D01*
X63920161Y-94151415D01*
X63874406Y-94098611D01*
X63863200Y-94047100D01*
X63863200Y-93922745D01*
X63863200Y-93922743D01*
X63822277Y-93770016D01*
X63791713Y-93717077D01*
X63743224Y-93633090D01*
X63743218Y-93633082D01*
X63631417Y-93521281D01*
X63631409Y-93521275D01*
X63494490Y-93442226D01*
X63494486Y-93442224D01*
X63494484Y-93442223D01*
X63341757Y-93401300D01*
X63183643Y-93401300D01*
X63030916Y-93442223D01*
X63030909Y-93442226D01*
X62893990Y-93521275D01*
X62893982Y-93521281D01*
X62850283Y-93564981D01*
X62788960Y-93598466D01*
X62762602Y-93601300D01*
X54098698Y-93601300D01*
X54031659Y-93581615D01*
X53985904Y-93528811D01*
X53975960Y-93459653D01*
X54004985Y-93396097D01*
X54011017Y-93389619D01*
X54022018Y-93378618D01*
X54044020Y-93356616D01*
X54123077Y-93219684D01*
X54164000Y-93066957D01*
X54164000Y-93005154D01*
X54183685Y-92938115D01*
X54200315Y-92917477D01*
X54391590Y-92726201D01*
X54452913Y-92692717D01*
X54522605Y-92697701D01*
X54578538Y-92739573D01*
X54586656Y-92751880D01*
X54627380Y-92822416D01*
X54739184Y-92934220D01*
X54739186Y-92934221D01*
X54739190Y-92934224D01*
X54853154Y-93000020D01*
X54876116Y-93013277D01*
X55028843Y-93054200D01*
X55028845Y-93054200D01*
X55186955Y-93054200D01*
X55186957Y-93054200D01*
X55339684Y-93013277D01*
X55476616Y-92934220D01*
X55588420Y-92822416D01*
X55667477Y-92685484D01*
X55708400Y-92532757D01*
X55708400Y-92470955D01*
X55728085Y-92403916D01*
X55744719Y-92383274D01*
X57396210Y-90731783D01*
X59053780Y-89074213D01*
X59106507Y-88982888D01*
X59133800Y-88881027D01*
X59133800Y-88775573D01*
X59133800Y-71259729D01*
X59153485Y-71192690D01*
X59206289Y-71146935D01*
X59275447Y-71136991D01*
X59281978Y-71138109D01*
X59419678Y-71165499D01*
X59419679Y-71165500D01*
X59419680Y-71165500D01*
X59580321Y-71165500D01*
X59580322Y-71165499D01*
X59737873Y-71134161D01*
X59886284Y-71072687D01*
X60019851Y-70983440D01*
X60133440Y-70869851D01*
X60222687Y-70736284D01*
X60284161Y-70587873D01*
X60315500Y-70430320D01*
X60315500Y-69569680D01*
X60284161Y-69412127D01*
X60222687Y-69263716D01*
X60222686Y-69263715D01*
X60222683Y-69263709D01*
X60133440Y-69130149D01*
X60133437Y-69130145D01*
X60019854Y-69016562D01*
X60019850Y-69016559D01*
X59886290Y-68927316D01*
X59886278Y-68927310D01*
X59880600Y-68924958D01*
X59826198Y-68881116D01*
X59804134Y-68814822D01*
X59821414Y-68747123D01*
X59840370Y-68722721D01*
X61850374Y-66712719D01*
X61877301Y-66698015D01*
X61903120Y-66681423D01*
X61909320Y-66680531D01*
X61911697Y-66679234D01*
X61938055Y-66676400D01*
X62183602Y-66676400D01*
X62250641Y-66696085D01*
X62271283Y-66712719D01*
X62314984Y-66756420D01*
X62314986Y-66756421D01*
X62314990Y-66756424D01*
X62415241Y-66814303D01*
X62451916Y-66835477D01*
X62604643Y-66876400D01*
X62604645Y-66876400D01*
X62762755Y-66876400D01*
X62762757Y-66876400D01*
X62915484Y-66835477D01*
X63052416Y-66756420D01*
X63127543Y-66681292D01*
X63188862Y-66647810D01*
X63258554Y-66652794D01*
G37*
%TD.AperFunction*%
%TA.AperFunction,Conductor*%
G36*
X44259685Y-43320085D02*
G01*
X44305440Y-43372889D01*
X44315384Y-43442047D01*
X44286359Y-43505603D01*
X44280327Y-43512080D01*
X41449408Y-46342999D01*
X38636326Y-49156081D01*
X38575003Y-49189566D01*
X38548645Y-49192400D01*
X33056673Y-49192400D01*
X32954810Y-49219693D01*
X32863487Y-49272420D01*
X32863484Y-49272422D01*
X23755526Y-58380381D01*
X23728598Y-58395084D01*
X23702780Y-58411677D01*
X23696579Y-58412568D01*
X23694203Y-58413866D01*
X23667845Y-58416700D01*
X23624500Y-58416700D01*
X23557461Y-58397015D01*
X23511706Y-58344211D01*
X23500500Y-58292700D01*
X23500500Y-57758675D01*
X23520185Y-57691636D01*
X23536814Y-57670999D01*
X26094163Y-55113649D01*
X26149748Y-55081558D01*
X26231784Y-55059577D01*
X26368716Y-54980520D01*
X26480520Y-54868716D01*
X26480522Y-54868711D01*
X26480527Y-54868706D01*
X26555243Y-54739290D01*
X26559577Y-54731784D01*
X26600500Y-54579057D01*
X26600500Y-54420943D01*
X26559577Y-54268216D01*
X26528020Y-54213557D01*
X26480524Y-54131290D01*
X26480518Y-54131282D01*
X26368717Y-54019481D01*
X26368709Y-54019475D01*
X26231790Y-53940426D01*
X26231786Y-53940424D01*
X26231784Y-53940423D01*
X26079057Y-53899500D01*
X25920943Y-53899500D01*
X25768216Y-53940423D01*
X25768209Y-53940426D01*
X25631290Y-54019475D01*
X25631282Y-54019481D01*
X25519481Y-54131282D01*
X25519475Y-54131290D01*
X25440426Y-54268209D01*
X25440422Y-54268218D01*
X25418440Y-54350252D01*
X25386347Y-54405837D01*
X22692686Y-57099500D01*
X22662181Y-57130005D01*
X22600858Y-57163490D01*
X22531166Y-57158506D01*
X22475233Y-57116634D01*
X22450816Y-57051170D01*
X22450500Y-57042324D01*
X22450500Y-56237965D01*
X22470185Y-56170926D01*
X22486819Y-56150284D01*
X26668894Y-51968209D01*
X31000404Y-47636698D01*
X31061725Y-47603215D01*
X31071901Y-47601441D01*
X31079045Y-47600500D01*
X31079057Y-47600500D01*
X31231784Y-47559577D01*
X31368716Y-47480520D01*
X31480520Y-47368716D01*
X31559577Y-47231784D01*
X31600500Y-47079057D01*
X31600500Y-46920943D01*
X31559577Y-46768216D01*
X31536047Y-46727460D01*
X31480524Y-46631290D01*
X31480518Y-46631282D01*
X31368717Y-46519481D01*
X31368709Y-46519475D01*
X31231790Y-46440426D01*
X31231786Y-46440424D01*
X31231784Y-46440423D01*
X31079057Y-46399500D01*
X30920943Y-46399500D01*
X30768216Y-46440423D01*
X30768209Y-46440426D01*
X30631290Y-46519475D01*
X30631282Y-46519481D01*
X30519481Y-46631282D01*
X30519475Y-46631290D01*
X30440426Y-46768209D01*
X30440423Y-46768216D01*
X30399498Y-46920949D01*
X30398556Y-46928107D01*
X30389309Y-46949006D01*
X30384451Y-46971342D01*
X30372169Y-46987747D01*
X30370287Y-46992003D01*
X30363300Y-46999596D01*
X30312182Y-47050715D01*
X30250859Y-47084201D01*
X30181168Y-47079217D01*
X30125234Y-47037346D01*
X30100816Y-46971882D01*
X30100500Y-46963035D01*
X30100500Y-46920945D01*
X30100500Y-46920943D01*
X30059577Y-46768216D01*
X30036047Y-46727460D01*
X29980524Y-46631290D01*
X29980518Y-46631282D01*
X29868717Y-46519481D01*
X29868709Y-46519475D01*
X29731790Y-46440426D01*
X29731786Y-46440424D01*
X29731784Y-46440423D01*
X29579057Y-46399500D01*
X29420943Y-46399500D01*
X29268216Y-46440423D01*
X29268209Y-46440426D01*
X29131290Y-46519475D01*
X29131282Y-46519481D01*
X29019481Y-46631282D01*
X29019475Y-46631290D01*
X28940426Y-46768209D01*
X28940422Y-46768218D01*
X28918440Y-46850252D01*
X28886347Y-46905837D01*
X26375127Y-49417057D01*
X26313804Y-49450542D01*
X26244112Y-49445558D01*
X26239378Y-49443329D01*
X26239294Y-49443534D01*
X26231786Y-49440424D01*
X26231784Y-49440423D01*
X26079057Y-49399500D01*
X25920943Y-49399500D01*
X25768216Y-49440423D01*
X25768213Y-49440424D01*
X25694666Y-49482887D01*
X25632666Y-49499500D01*
X22867334Y-49499500D01*
X22805334Y-49482887D01*
X22731786Y-49440424D01*
X22731785Y-49440423D01*
X22731784Y-49440423D01*
X22579057Y-49399500D01*
X22420943Y-49399500D01*
X22268216Y-49440423D01*
X22268209Y-49440426D01*
X22131290Y-49519475D01*
X22131282Y-49519481D01*
X22019481Y-49631282D01*
X22019475Y-49631290D01*
X21940426Y-49768209D01*
X21940423Y-49768216D01*
X21899500Y-49920943D01*
X21899500Y-50079056D01*
X21940423Y-50231783D01*
X21940426Y-50231790D01*
X22019475Y-50368709D01*
X22019479Y-50368714D01*
X22019480Y-50368716D01*
X22131284Y-50480520D01*
X22131286Y-50480521D01*
X22131290Y-50480524D01*
X22199986Y-50520185D01*
X22268216Y-50559577D01*
X22420943Y-50600500D01*
X22420945Y-50600500D01*
X22579055Y-50600500D01*
X22579057Y-50600500D01*
X22731784Y-50559577D01*
X22805334Y-50517112D01*
X22867334Y-50500500D01*
X25632666Y-50500500D01*
X25694665Y-50517112D01*
X25768216Y-50559577D01*
X25920943Y-50600500D01*
X25920945Y-50600500D01*
X26079055Y-50600500D01*
X26079057Y-50600500D01*
X26231784Y-50559577D01*
X26305334Y-50517112D01*
X26320822Y-50512962D01*
X26332399Y-50505523D01*
X26367334Y-50500500D01*
X26563035Y-50500500D01*
X26630074Y-50520185D01*
X26675829Y-50572989D01*
X26685773Y-50642147D01*
X26656748Y-50705703D01*
X26650716Y-50712181D01*
X21639513Y-55723383D01*
X21639509Y-55723389D01*
X21580201Y-55826112D01*
X21580200Y-55826117D01*
X21549500Y-55940691D01*
X21549500Y-89762034D01*
X21540854Y-89791478D01*
X21534330Y-89821465D01*
X21530577Y-89826477D01*
X21529815Y-89829073D01*
X21513178Y-89849718D01*
X21499593Y-89863302D01*
X21438269Y-89896785D01*
X21428107Y-89898556D01*
X21420948Y-89899498D01*
X21268216Y-89940423D01*
X21268209Y-89940426D01*
X21131290Y-90019475D01*
X21131282Y-90019481D01*
X21019481Y-90131282D01*
X21019475Y-90131290D01*
X20940426Y-90268209D01*
X20940423Y-90268216D01*
X20899500Y-90420943D01*
X20899500Y-90579057D01*
X20936757Y-90718100D01*
X20940423Y-90731783D01*
X20940426Y-90731790D01*
X21019475Y-90868709D01*
X21019479Y-90868714D01*
X21019480Y-90868716D01*
X21131284Y-90980520D01*
X21131286Y-90980521D01*
X21131290Y-90980524D01*
X21268209Y-91059573D01*
X21268216Y-91059577D01*
X21420943Y-91100500D01*
X21420945Y-91100500D01*
X21579054Y-91100500D01*
X21579057Y-91100500D01*
X21677986Y-91073992D01*
X21747833Y-91075655D01*
X21805696Y-91114817D01*
X21833200Y-91179046D01*
X21821614Y-91247948D01*
X21797758Y-91281448D01*
X19892481Y-93186726D01*
X19831158Y-93220211D01*
X19761466Y-93215227D01*
X19705533Y-93173355D01*
X19681116Y-93107891D01*
X19680800Y-93099045D01*
X19680800Y-72384475D01*
X19680800Y-72384473D01*
X19659107Y-72303513D01*
X19653507Y-72282612D01*
X19652700Y-72281215D01*
X19629072Y-72240290D01*
X19600780Y-72191287D01*
X14285119Y-66875626D01*
X14251634Y-66814303D01*
X14248800Y-66787945D01*
X14248800Y-46794499D01*
X14268485Y-46727460D01*
X14321289Y-46681705D01*
X14372800Y-46670499D01*
X15944856Y-46670499D01*
X15944864Y-46670499D01*
X15944879Y-46670497D01*
X15944882Y-46670497D01*
X15969987Y-46667586D01*
X15969988Y-46667585D01*
X15969991Y-46667585D01*
X16072765Y-46622206D01*
X16152206Y-46542765D01*
X16197585Y-46439991D01*
X16200500Y-46414865D01*
X16200500Y-45994500D01*
X16220185Y-45927461D01*
X16272989Y-45881706D01*
X16324500Y-45870500D01*
X40887925Y-45870500D01*
X40887927Y-45870500D01*
X40989788Y-45843207D01*
X41081113Y-45790480D01*
X41148674Y-45722919D01*
X41209997Y-45689434D01*
X41236355Y-45686600D01*
X41298155Y-45686600D01*
X41298157Y-45686600D01*
X41450884Y-45645677D01*
X41587816Y-45566620D01*
X41699620Y-45454816D01*
X41778677Y-45317884D01*
X41819600Y-45165157D01*
X41819600Y-45103354D01*
X41839285Y-45036315D01*
X41855919Y-45015673D01*
X43534873Y-43336719D01*
X43596196Y-43303234D01*
X43622554Y-43300400D01*
X44192646Y-43300400D01*
X44259685Y-43320085D01*
G37*
%TD.AperFunction*%
%TA.AperFunction,Conductor*%
G36*
X48766634Y-72380670D02*
G01*
X48822567Y-72422542D01*
X48843074Y-72464756D01*
X48847938Y-72482908D01*
X48875423Y-72585485D01*
X48875426Y-72585490D01*
X48954475Y-72722409D01*
X48954479Y-72722414D01*
X48954480Y-72722416D01*
X49066284Y-72834220D01*
X49066286Y-72834221D01*
X49066290Y-72834224D01*
X49140979Y-72877345D01*
X49203216Y-72913277D01*
X49355943Y-72954200D01*
X49417745Y-72954200D01*
X49484784Y-72973885D01*
X49505426Y-72990519D01*
X50634687Y-74119780D01*
X50726012Y-74172507D01*
X50827873Y-74199800D01*
X50933327Y-74199800D01*
X54424102Y-74199800D01*
X54491141Y-74219485D01*
X54511783Y-74236119D01*
X54555484Y-74279820D01*
X54555486Y-74279821D01*
X54555490Y-74279824D01*
X54669986Y-74345927D01*
X54692416Y-74358877D01*
X54845143Y-74399800D01*
X54845145Y-74399800D01*
X55011384Y-74399800D01*
X55011384Y-74402984D01*
X55065605Y-74411418D01*
X55117879Y-74457777D01*
X55136800Y-74523613D01*
X55136800Y-74870300D01*
X55134249Y-74878985D01*
X55135538Y-74887947D01*
X55124559Y-74911987D01*
X55117115Y-74937339D01*
X55110274Y-74943266D01*
X55106513Y-74951503D01*
X55084278Y-74965792D01*
X55064311Y-74983094D01*
X55053796Y-74985381D01*
X55047735Y-74989277D01*
X55012800Y-74994300D01*
X54961155Y-74994300D01*
X54894116Y-74974615D01*
X54873474Y-74957981D01*
X54810215Y-74894722D01*
X54810213Y-74894720D01*
X54749533Y-74859686D01*
X54718889Y-74841993D01*
X54667870Y-74828323D01*
X54617027Y-74814700D01*
X54617026Y-74814700D01*
X52199998Y-74814700D01*
X52132959Y-74795015D01*
X52112317Y-74778381D01*
X52068617Y-74734681D01*
X52068609Y-74734675D01*
X51931690Y-74655626D01*
X51931686Y-74655624D01*
X51931684Y-74655623D01*
X51778957Y-74614700D01*
X51620843Y-74614700D01*
X51468116Y-74655623D01*
X51468109Y-74655626D01*
X51331190Y-74734675D01*
X51331182Y-74734681D01*
X51219381Y-74846482D01*
X51219375Y-74846490D01*
X51140326Y-74983409D01*
X51140323Y-74983416D01*
X51099400Y-75136143D01*
X51099400Y-75294257D01*
X51129115Y-75405153D01*
X51140323Y-75446983D01*
X51140326Y-75446990D01*
X51219375Y-75583909D01*
X51219379Y-75583914D01*
X51219380Y-75583916D01*
X51331184Y-75695720D01*
X51331186Y-75695721D01*
X51331190Y-75695724D01*
X51468109Y-75774773D01*
X51468116Y-75774777D01*
X51620843Y-75815700D01*
X51620845Y-75815700D01*
X51778955Y-75815700D01*
X51778957Y-75815700D01*
X51931684Y-75774777D01*
X52068616Y-75695720D01*
X52112317Y-75652019D01*
X52173640Y-75618534D01*
X52199998Y-75615700D01*
X54232669Y-75615700D01*
X54299708Y-75635385D01*
X54345463Y-75688189D01*
X54352441Y-75707599D01*
X54381407Y-75815700D01*
X54384323Y-75826583D01*
X54384326Y-75826590D01*
X54463375Y-75963509D01*
X54463379Y-75963514D01*
X54463380Y-75963516D01*
X54575184Y-76075320D01*
X54575186Y-76075321D01*
X54575190Y-76075324D01*
X54666599Y-76128098D01*
X54712116Y-76154377D01*
X54864843Y-76195300D01*
X54864845Y-76195300D01*
X55012800Y-76195300D01*
X55079839Y-76214985D01*
X55125594Y-76267789D01*
X55136800Y-76319300D01*
X55136800Y-82806545D01*
X55117115Y-82873584D01*
X55100481Y-82894226D01*
X52345726Y-85648981D01*
X52284403Y-85682466D01*
X52258045Y-85685300D01*
X52196243Y-85685300D01*
X52043516Y-85726223D01*
X52043509Y-85726226D01*
X51906590Y-85805275D01*
X51906582Y-85805281D01*
X51794781Y-85917082D01*
X51794775Y-85917090D01*
X51715726Y-86054009D01*
X51715723Y-86054016D01*
X51674800Y-86206743D01*
X51674800Y-86364857D01*
X51711617Y-86502258D01*
X51715723Y-86517583D01*
X51715726Y-86517590D01*
X51794775Y-86654509D01*
X51794779Y-86654514D01*
X51794780Y-86654516D01*
X51906584Y-86766320D01*
X51906586Y-86766321D01*
X51906590Y-86766324D01*
X52043509Y-86845373D01*
X52043516Y-86845377D01*
X52196243Y-86886300D01*
X52196245Y-86886300D01*
X52362484Y-86886300D01*
X52362484Y-86887945D01*
X52422075Y-86897234D01*
X52474334Y-86943610D01*
X52493224Y-87010878D01*
X52472748Y-87077680D01*
X52456914Y-87097092D01*
X50790671Y-88763334D01*
X50729348Y-88796819D01*
X50659656Y-88791835D01*
X50603723Y-88749963D01*
X50579306Y-88684499D01*
X50583215Y-88643564D01*
X50600500Y-88579057D01*
X50600500Y-88420943D01*
X50559577Y-88268216D01*
X50559573Y-88268209D01*
X50480524Y-88131290D01*
X50480518Y-88131282D01*
X50368717Y-88019481D01*
X50368709Y-88019475D01*
X50231790Y-87940426D01*
X50231786Y-87940424D01*
X50231784Y-87940423D01*
X50079057Y-87899500D01*
X49920943Y-87899500D01*
X49768216Y-87940423D01*
X49768209Y-87940426D01*
X49631290Y-88019475D01*
X49631282Y-88019481D01*
X49519481Y-88131282D01*
X49519475Y-88131290D01*
X49440426Y-88268209D01*
X49440422Y-88268218D01*
X49418440Y-88350252D01*
X49386347Y-88405837D01*
X46835599Y-90956586D01*
X46813920Y-90968423D01*
X46794577Y-90983792D01*
X46783789Y-90984876D01*
X46774276Y-90990071D01*
X46749639Y-90988309D01*
X46725058Y-90990780D01*
X46710897Y-90985538D01*
X46704584Y-90985087D01*
X46691648Y-90979402D01*
X46688721Y-90977911D01*
X46566284Y-90907223D01*
X46531730Y-90897964D01*
X46520126Y-90892055D01*
X46503805Y-90876647D01*
X46484641Y-90864966D01*
X46478890Y-90853127D01*
X46469319Y-90844092D01*
X46463918Y-90822305D01*
X46454113Y-90802119D01*
X46455675Y-90789050D01*
X46452509Y-90776275D01*
X46459744Y-90755028D01*
X46462409Y-90732743D01*
X46472319Y-90718100D01*
X46475032Y-90710135D01*
X46480827Y-90705530D01*
X46488712Y-90693880D01*
X51936180Y-85246413D01*
X51944155Y-85232600D01*
X51988907Y-85155087D01*
X52016200Y-85053227D01*
X52016200Y-80321573D01*
X51988907Y-80219713D01*
X51988907Y-80219712D01*
X51936180Y-80128387D01*
X47485313Y-75677520D01*
X47412334Y-75635385D01*
X47393989Y-75624793D01*
X47343057Y-75611146D01*
X47292127Y-75597500D01*
X47292126Y-75597500D01*
X45815000Y-75597500D01*
X45806314Y-75594949D01*
X45797353Y-75596238D01*
X45773312Y-75585259D01*
X45747961Y-75577815D01*
X45742033Y-75570974D01*
X45733797Y-75567213D01*
X45719507Y-75544978D01*
X45702206Y-75525011D01*
X45699918Y-75514496D01*
X45696023Y-75508435D01*
X45691000Y-75473500D01*
X45691000Y-75405153D01*
X45710685Y-75338114D01*
X45727314Y-75317477D01*
X48635621Y-72409169D01*
X48696942Y-72375686D01*
X48766634Y-72380670D01*
G37*
%TD.AperFunction*%
%TA.AperFunction,Conductor*%
G36*
X44951639Y-67480385D02*
G01*
X44997394Y-67533189D01*
X45008600Y-67584700D01*
X45008600Y-68991600D01*
X44988915Y-69058639D01*
X44936111Y-69104394D01*
X44884600Y-69115600D01*
X44747943Y-69115600D01*
X44595216Y-69156523D01*
X44595209Y-69156526D01*
X44458290Y-69235575D01*
X44458282Y-69235581D01*
X44346481Y-69347382D01*
X44346475Y-69347390D01*
X44267426Y-69484309D01*
X44267423Y-69484316D01*
X44226500Y-69637043D01*
X44226500Y-69692200D01*
X44206815Y-69759239D01*
X44154011Y-69804994D01*
X44102500Y-69816200D01*
X41409730Y-69816200D01*
X41342691Y-69796515D01*
X41296936Y-69743711D01*
X41286992Y-69674553D01*
X41288113Y-69668009D01*
X41315499Y-69530324D01*
X41315500Y-69530321D01*
X41315500Y-68669679D01*
X41315499Y-68669675D01*
X41305086Y-68617326D01*
X41284161Y-68512127D01*
X41236613Y-68397338D01*
X41222688Y-68363718D01*
X41222683Y-68363709D01*
X41133440Y-68230149D01*
X41133437Y-68230145D01*
X41019854Y-68116562D01*
X41019850Y-68116559D01*
X40886290Y-68027316D01*
X40886281Y-68027311D01*
X40737873Y-67965839D01*
X40737865Y-67965837D01*
X40580324Y-67934500D01*
X40580320Y-67934500D01*
X40419680Y-67934500D01*
X40419675Y-67934500D01*
X40262134Y-67965837D01*
X40262126Y-67965839D01*
X40113718Y-68027311D01*
X40113709Y-68027316D01*
X39980149Y-68116559D01*
X39980145Y-68116562D01*
X39866562Y-68230145D01*
X39866559Y-68230149D01*
X39777316Y-68363709D01*
X39777311Y-68363718D01*
X39715839Y-68512126D01*
X39715837Y-68512134D01*
X39684500Y-68669675D01*
X39684500Y-69530324D01*
X39715837Y-69687865D01*
X39715839Y-69687873D01*
X39777311Y-69836281D01*
X39777316Y-69836290D01*
X39866559Y-69969850D01*
X39866562Y-69969854D01*
X39980146Y-70083438D01*
X39980149Y-70083440D01*
X40044391Y-70126365D01*
X40089196Y-70179976D01*
X40099500Y-70229467D01*
X40099500Y-70269427D01*
X40123548Y-70359174D01*
X40126793Y-70371286D01*
X40126794Y-70371289D01*
X40128198Y-70373720D01*
X40179520Y-70462613D01*
X40254087Y-70537180D01*
X40345413Y-70589907D01*
X40447273Y-70617200D01*
X40447275Y-70617200D01*
X44387254Y-70617200D01*
X44387254Y-70618713D01*
X44447302Y-70628071D01*
X44499563Y-70674445D01*
X44518455Y-70741712D01*
X44497982Y-70808515D01*
X44456465Y-70847637D01*
X44420885Y-70868179D01*
X44420882Y-70868181D01*
X44309081Y-70979982D01*
X44309075Y-70979990D01*
X44230026Y-71116909D01*
X44230023Y-71116916D01*
X44189100Y-71269643D01*
X44189100Y-71427757D01*
X44227665Y-71571681D01*
X44230023Y-71580483D01*
X44230026Y-71580490D01*
X44309075Y-71717409D01*
X44309081Y-71717417D01*
X44384204Y-71792540D01*
X44417689Y-71853863D01*
X44412705Y-71923555D01*
X44384204Y-71967902D01*
X43903822Y-72448284D01*
X43903818Y-72448290D01*
X43851092Y-72539612D01*
X43851093Y-72539613D01*
X43823800Y-72641473D01*
X43823800Y-75380926D01*
X43851093Y-75482789D01*
X43865900Y-75508435D01*
X43903820Y-75574113D01*
X44648187Y-76318480D01*
X44739512Y-76371207D01*
X44841373Y-76398500D01*
X44946827Y-76398500D01*
X47022145Y-76398500D01*
X47089184Y-76418185D01*
X47109826Y-76434819D01*
X50010626Y-79335619D01*
X50044111Y-79396942D01*
X50039127Y-79466634D01*
X49997255Y-79522567D01*
X49931791Y-79546984D01*
X49922945Y-79547300D01*
X47448354Y-79547300D01*
X47381315Y-79527615D01*
X47360673Y-79510981D01*
X38064173Y-70214480D01*
X38030688Y-70153157D01*
X38035672Y-70083465D01*
X38064171Y-70039119D01*
X38133440Y-69969851D01*
X38222687Y-69836284D01*
X38284161Y-69687873D01*
X38315500Y-69530320D01*
X38315500Y-68669680D01*
X38284161Y-68512127D01*
X38236613Y-68397338D01*
X38222688Y-68363718D01*
X38222683Y-68363709D01*
X38133440Y-68230149D01*
X38133437Y-68230145D01*
X38019854Y-68116562D01*
X38019850Y-68116559D01*
X37886290Y-68027316D01*
X37886281Y-68027311D01*
X37737873Y-67965839D01*
X37737865Y-67965837D01*
X37580324Y-67934500D01*
X37580320Y-67934500D01*
X37419680Y-67934500D01*
X37419675Y-67934500D01*
X37262134Y-67965837D01*
X37262126Y-67965839D01*
X37113718Y-68027311D01*
X37113709Y-68027316D01*
X36980149Y-68116559D01*
X36980145Y-68116562D01*
X36866562Y-68230145D01*
X36866557Y-68230151D01*
X36853101Y-68250290D01*
X36799488Y-68295095D01*
X36730163Y-68303801D01*
X36667136Y-68273645D01*
X36646899Y-68250290D01*
X36633442Y-68230151D01*
X36633437Y-68230145D01*
X36519854Y-68116562D01*
X36519850Y-68116559D01*
X36386290Y-68027316D01*
X36386281Y-68027311D01*
X36237873Y-67965839D01*
X36237865Y-67965837D01*
X36080324Y-67934500D01*
X36080320Y-67934500D01*
X35919680Y-67934500D01*
X35919675Y-67934500D01*
X35762134Y-67965837D01*
X35762126Y-67965839D01*
X35613718Y-68027311D01*
X35613709Y-68027316D01*
X35480149Y-68116559D01*
X35480145Y-68116562D01*
X35366562Y-68230145D01*
X35366557Y-68230151D01*
X35353101Y-68250290D01*
X35299488Y-68295095D01*
X35230163Y-68303801D01*
X35167136Y-68273645D01*
X35159010Y-68265641D01*
X35152344Y-68258442D01*
X35133440Y-68230149D01*
X35035133Y-68131842D01*
X35033510Y-68130089D01*
X35018974Y-68100846D01*
X35003334Y-68072204D01*
X35002946Y-68068604D01*
X35002409Y-68067522D01*
X35002622Y-68065586D01*
X35000500Y-68045846D01*
X35000500Y-67934110D01*
X35000500Y-67934108D01*
X34966392Y-67806814D01*
X34946753Y-67772799D01*
X34917113Y-67721460D01*
X34912962Y-67705971D01*
X34905523Y-67694395D01*
X34900500Y-67659460D01*
X34900500Y-67584700D01*
X34920185Y-67517661D01*
X34972989Y-67471906D01*
X35024500Y-67460700D01*
X44884600Y-67460700D01*
X44951639Y-67480385D01*
G37*
%TD.AperFunction*%
%TA.AperFunction,Conductor*%
G36*
X61234084Y-64616485D02*
G01*
X61254726Y-64633119D01*
X62278304Y-65656697D01*
X62282640Y-65664638D01*
X62289885Y-65670061D01*
X62299122Y-65694824D01*
X62311789Y-65718020D01*
X62311143Y-65727045D01*
X62314306Y-65735523D01*
X62308690Y-65761345D01*
X62306805Y-65787712D01*
X62300988Y-65796762D01*
X62299459Y-65803797D01*
X62278310Y-65832053D01*
X62271289Y-65839075D01*
X62209969Y-65872564D01*
X62183602Y-65875400D01*
X61668073Y-65875400D01*
X61566210Y-65902693D01*
X61474887Y-65955420D01*
X61474884Y-65955422D01*
X58412822Y-69017484D01*
X58412820Y-69017487D01*
X58360091Y-69108813D01*
X58337487Y-69193182D01*
X58337486Y-69193186D01*
X58333700Y-69207314D01*
X58332800Y-69210673D01*
X58332800Y-69744445D01*
X58313115Y-69811484D01*
X58260311Y-69857239D01*
X58191153Y-69867183D01*
X58127597Y-69838158D01*
X58121119Y-69832126D01*
X57432315Y-69143322D01*
X57432313Y-69143320D01*
X57364892Y-69104394D01*
X57340989Y-69090593D01*
X57290057Y-69076946D01*
X57239127Y-69063300D01*
X57239126Y-69063300D01*
X56968498Y-69063300D01*
X56939057Y-69054655D01*
X56909071Y-69048132D01*
X56904055Y-69044377D01*
X56901459Y-69043615D01*
X56880817Y-69026981D01*
X56852795Y-68998959D01*
X56819310Y-68937636D01*
X56824294Y-68867944D01*
X56852795Y-68823597D01*
X58516605Y-67159788D01*
X60245174Y-65431219D01*
X60306497Y-65397734D01*
X60332855Y-65394900D01*
X60394655Y-65394900D01*
X60394657Y-65394900D01*
X60547384Y-65353977D01*
X60684316Y-65274920D01*
X60796120Y-65163116D01*
X60875177Y-65026184D01*
X60916100Y-64873457D01*
X60916100Y-64720800D01*
X60918650Y-64712114D01*
X60917362Y-64703153D01*
X60928340Y-64679112D01*
X60935785Y-64653761D01*
X60942625Y-64647833D01*
X60946387Y-64639597D01*
X60968621Y-64625307D01*
X60988589Y-64608006D01*
X60999103Y-64605718D01*
X61005165Y-64601823D01*
X61040100Y-64596800D01*
X61167045Y-64596800D01*
X61234084Y-64616485D01*
G37*
%TD.AperFunction*%
%TA.AperFunction,Conductor*%
G36*
X83284347Y-696093D02*
G01*
X84827876Y-755570D01*
X84840036Y-756641D01*
X86364438Y-966987D01*
X86376466Y-969257D01*
X87871039Y-1328497D01*
X87882796Y-1331945D01*
X89332806Y-1836278D01*
X89344189Y-1840881D01*
X90735890Y-2485609D01*
X90746764Y-2491316D01*
X91837952Y-3134945D01*
X92066699Y-3269869D01*
X92076970Y-3276636D01*
X93312326Y-4181432D01*
X93321891Y-4189196D01*
X94460686Y-5211495D01*
X94469426Y-5220162D01*
X94862296Y-5650500D01*
X95500732Y-6349824D01*
X95508584Y-6359334D01*
X96422261Y-7585433D01*
X96429126Y-7595672D01*
X97216402Y-8906179D01*
X97222215Y-8917043D01*
X97875523Y-10299182D01*
X97880234Y-10310586D01*
X98392961Y-11750838D01*
X98396511Y-11762635D01*
X98763938Y-13247227D01*
X98766301Y-13259324D01*
X98984583Y-14773484D01*
X98985733Y-14785752D01*
X99052863Y-16318592D01*
X99052982Y-16323706D01*
X99180787Y-67300648D01*
X99161270Y-67367737D01*
X99108581Y-67413624D01*
X99055695Y-67424954D01*
X87066525Y-67319331D01*
X86999661Y-67299057D01*
X86954373Y-67245852D01*
X86943835Y-67187979D01*
X86944582Y-67175410D01*
X86948768Y-67159788D01*
X86953501Y-67142126D01*
X86953501Y-67036673D01*
X86953500Y-67036669D01*
X86953500Y-61568996D01*
X89299499Y-61568996D01*
X89326418Y-61704322D01*
X89326421Y-61704332D01*
X89379222Y-61831807D01*
X89455887Y-61946545D01*
X91553454Y-64044112D01*
X91553457Y-64044114D01*
X91668189Y-64120775D01*
X91795672Y-64173580D01*
X91931001Y-64200498D01*
X91931005Y-64200499D01*
X91931006Y-64200499D01*
X92068995Y-64200499D01*
X92068996Y-64200498D01*
X92204328Y-64173580D01*
X92331811Y-64120775D01*
X92446543Y-64044114D01*
X92544114Y-63946543D01*
X92620775Y-63831811D01*
X92673580Y-63704328D01*
X92700499Y-63568994D01*
X92700499Y-63431006D01*
X92673580Y-63295672D01*
X92620775Y-63168189D01*
X92544114Y-63053457D01*
X92544112Y-63053454D01*
X90446545Y-60955887D01*
X90331807Y-60879222D01*
X90204332Y-60826421D01*
X90204322Y-60826418D01*
X90068996Y-60799500D01*
X90068994Y-60799500D01*
X89931006Y-60799500D01*
X89931004Y-60799500D01*
X89795677Y-60826418D01*
X89795667Y-60826421D01*
X89668192Y-60879222D01*
X89553454Y-60955887D01*
X89455887Y-61053454D01*
X89379222Y-61168192D01*
X89326421Y-61295667D01*
X89326418Y-61295677D01*
X89299500Y-61431003D01*
X89299500Y-61431004D01*
X89299500Y-61431006D01*
X89299500Y-61568994D01*
X89299500Y-61568996D01*
X89299499Y-61568996D01*
X86953500Y-61568996D01*
X86953500Y-30446173D01*
X86926207Y-30344313D01*
X86873480Y-30252987D01*
X86798913Y-30178420D01*
X78066320Y-21445827D01*
X85028708Y-21445827D01*
X85028708Y-21558173D01*
X85069292Y-21662933D01*
X85069293Y-21662934D01*
X85084992Y-21682754D01*
X85085002Y-21682765D01*
X86421230Y-23018993D01*
X86421234Y-23018996D01*
X86421239Y-23019001D01*
X86441067Y-23034708D01*
X86545827Y-23075292D01*
X86545828Y-23075292D01*
X86658170Y-23075292D01*
X86658173Y-23075292D01*
X86762933Y-23034708D01*
X86782761Y-23019002D01*
X88119001Y-21682761D01*
X88134708Y-21662933D01*
X88175292Y-21558173D01*
X88175292Y-21445827D01*
X88134708Y-21341067D01*
X88119002Y-21321239D01*
X87697263Y-20899500D01*
X86782769Y-19985006D01*
X86782764Y-19985002D01*
X86782761Y-19984999D01*
X86762933Y-19969292D01*
X86658173Y-19928708D01*
X86545827Y-19928708D01*
X86441067Y-19969292D01*
X86441066Y-19969292D01*
X86441065Y-19969293D01*
X86421245Y-19984992D01*
X86421234Y-19985002D01*
X85085006Y-21321230D01*
X85084999Y-21321239D01*
X85069292Y-21341067D01*
X85028708Y-21445827D01*
X78066320Y-21445827D01*
X72570013Y-15949520D01*
X72524350Y-15923156D01*
X72478689Y-15896793D01*
X72427757Y-15883146D01*
X72376827Y-15869500D01*
X72376826Y-15869500D01*
X70374499Y-15869500D01*
X70365813Y-15866949D01*
X70356852Y-15868238D01*
X70332811Y-15857259D01*
X70307460Y-15849815D01*
X70301532Y-15842974D01*
X70293296Y-15839213D01*
X70279006Y-15816978D01*
X70261705Y-15797011D01*
X70259417Y-15786496D01*
X70255522Y-15780435D01*
X70250499Y-15745500D01*
X70250499Y-15642800D01*
X70270184Y-15575761D01*
X70322988Y-15530006D01*
X70374499Y-15518800D01*
X76049345Y-15518800D01*
X76116384Y-15538485D01*
X76137026Y-15555119D01*
X77093479Y-16511571D01*
X77093489Y-16511582D01*
X77172388Y-16590481D01*
X77209117Y-16611685D01*
X77218050Y-16616843D01*
X77263712Y-16643207D01*
X77288498Y-16649848D01*
X77298685Y-16654685D01*
X77316668Y-16670742D01*
X77337253Y-16683289D01*
X77342258Y-16693592D01*
X77350802Y-16701221D01*
X77357248Y-16724447D01*
X77367784Y-16746135D01*
X77369501Y-16766701D01*
X77369501Y-17214856D01*
X77369502Y-17214882D01*
X77372413Y-17239987D01*
X77372415Y-17239991D01*
X77417793Y-17342764D01*
X77417794Y-17342765D01*
X77497235Y-17422206D01*
X77600009Y-17467585D01*
X77625135Y-17470500D01*
X79514864Y-17470499D01*
X79514879Y-17470497D01*
X79514882Y-17470497D01*
X79539987Y-17467586D01*
X79539988Y-17467585D01*
X79539991Y-17467585D01*
X79642765Y-17422206D01*
X79722206Y-17342765D01*
X79767585Y-17239991D01*
X79770500Y-17214865D01*
X79770499Y-15325136D01*
X79770497Y-15325117D01*
X79767586Y-15300012D01*
X79767585Y-15300010D01*
X79767585Y-15300009D01*
X79722206Y-15197235D01*
X79642765Y-15117794D01*
X79642763Y-15117793D01*
X79539992Y-15072415D01*
X79514868Y-15069500D01*
X79101909Y-15069500D01*
X79034870Y-15049815D01*
X78989115Y-14997011D01*
X78979171Y-14927853D01*
X79008196Y-14864297D01*
X79045614Y-14835015D01*
X79199199Y-14756760D01*
X79352073Y-14645690D01*
X79485690Y-14512073D01*
X79596760Y-14359199D01*
X79682547Y-14190832D01*
X79740940Y-14011118D01*
X79770500Y-13824486D01*
X79770500Y-13635513D01*
X79740940Y-13448881D01*
X79682545Y-13269163D01*
X79596759Y-13100800D01*
X79485690Y-12947927D01*
X79352073Y-12814310D01*
X79199199Y-12703240D01*
X79030836Y-12617454D01*
X78851118Y-12559059D01*
X78664486Y-12529500D01*
X78664481Y-12529500D01*
X78475519Y-12529500D01*
X78475514Y-12529500D01*
X78288881Y-12559059D01*
X78109163Y-12617454D01*
X77940800Y-12703240D01*
X77853579Y-12766610D01*
X77787927Y-12814310D01*
X77787925Y-12814312D01*
X77787924Y-12814312D01*
X77654312Y-12947924D01*
X77654312Y-12947925D01*
X77654310Y-12947927D01*
X77606610Y-13013579D01*
X77543240Y-13100800D01*
X77457454Y-13269163D01*
X77399059Y-13448881D01*
X77369500Y-13635513D01*
X77369500Y-13824486D01*
X77399059Y-14011118D01*
X77457454Y-14190836D01*
X77543240Y-14359199D01*
X77654310Y-14512073D01*
X77787927Y-14645690D01*
X77940801Y-14756760D01*
X78094386Y-14835015D01*
X78145182Y-14882989D01*
X78161977Y-14950810D01*
X78139440Y-15016945D01*
X78084725Y-15060397D01*
X78038091Y-15069500D01*
X77625143Y-15069500D01*
X77625117Y-15069502D01*
X77600012Y-15072413D01*
X77600008Y-15072415D01*
X77497235Y-15117793D01*
X77417794Y-15197234D01*
X77372415Y-15300006D01*
X77372415Y-15300008D01*
X77369500Y-15325131D01*
X77369500Y-15355445D01*
X77349815Y-15422484D01*
X77297011Y-15468239D01*
X77227853Y-15478183D01*
X77164297Y-15449158D01*
X77157819Y-15443126D01*
X76512515Y-14797822D01*
X76512513Y-14797820D01*
X76441394Y-14756759D01*
X76421189Y-14745093D01*
X76370257Y-14731446D01*
X76319327Y-14717800D01*
X76319326Y-14717800D01*
X23793739Y-14717800D01*
X23793723Y-14717799D01*
X23786127Y-14717799D01*
X23680673Y-14717799D01*
X23604277Y-14738269D01*
X23578811Y-14745093D01*
X23558607Y-14756759D01*
X23558605Y-14756760D01*
X23487490Y-14797818D01*
X23487484Y-14797822D01*
X22842180Y-15443127D01*
X22780857Y-15476612D01*
X22711165Y-15471628D01*
X22655232Y-15429756D01*
X22630815Y-15364292D01*
X22630499Y-15355446D01*
X22630499Y-15325143D01*
X22630499Y-15325136D01*
X22630497Y-15325117D01*
X22627586Y-15300012D01*
X22627585Y-15300010D01*
X22627585Y-15300009D01*
X22582206Y-15197235D01*
X22502765Y-15117794D01*
X22502763Y-15117793D01*
X22399992Y-15072415D01*
X22374868Y-15069500D01*
X21961909Y-15069500D01*
X21894870Y-15049815D01*
X21849115Y-14997011D01*
X21839171Y-14927853D01*
X21868196Y-14864297D01*
X21905614Y-14835015D01*
X22059199Y-14756760D01*
X22212073Y-14645690D01*
X22345690Y-14512073D01*
X22456760Y-14359199D01*
X22542547Y-14190832D01*
X22600940Y-14011118D01*
X22630500Y-13824486D01*
X22630500Y-13635513D01*
X22600940Y-13448881D01*
X22542545Y-13269163D01*
X22456759Y-13100800D01*
X22345690Y-12947927D01*
X22212073Y-12814310D01*
X22059199Y-12703240D01*
X21890836Y-12617454D01*
X21711118Y-12559059D01*
X21524486Y-12529500D01*
X21524481Y-12529500D01*
X21335519Y-12529500D01*
X21335514Y-12529500D01*
X21148881Y-12559059D01*
X20969163Y-12617454D01*
X20800800Y-12703240D01*
X20713579Y-12766610D01*
X20647927Y-12814310D01*
X20647925Y-12814312D01*
X20647924Y-12814312D01*
X20514312Y-12947924D01*
X20514312Y-12947925D01*
X20514310Y-12947927D01*
X20466610Y-13013579D01*
X20403240Y-13100800D01*
X20317454Y-13269163D01*
X20259059Y-13448881D01*
X20229500Y-13635513D01*
X20229500Y-13824486D01*
X20259059Y-14011118D01*
X20317454Y-14190836D01*
X20403240Y-14359199D01*
X20514310Y-14512073D01*
X20647927Y-14645690D01*
X20800801Y-14756760D01*
X20954386Y-14835015D01*
X21005182Y-14882989D01*
X21021977Y-14950810D01*
X20999440Y-15016945D01*
X20944725Y-15060397D01*
X20898091Y-15069500D01*
X20485143Y-15069500D01*
X20485117Y-15069502D01*
X20460012Y-15072413D01*
X20460008Y-15072415D01*
X20357235Y-15117793D01*
X20277794Y-15197234D01*
X20232415Y-15300006D01*
X20232415Y-15300008D01*
X20229500Y-15325131D01*
X20229500Y-17214856D01*
X20229502Y-17214882D01*
X20232413Y-17239987D01*
X20232415Y-17239991D01*
X20277793Y-17342764D01*
X20277794Y-17342765D01*
X20357235Y-17422206D01*
X20460009Y-17467585D01*
X20485135Y-17470500D01*
X22374864Y-17470499D01*
X22374879Y-17470497D01*
X22374882Y-17470497D01*
X22399987Y-17467586D01*
X22399988Y-17467585D01*
X22399991Y-17467585D01*
X22502765Y-17422206D01*
X22582206Y-17342765D01*
X22627585Y-17239991D01*
X22630500Y-17214865D01*
X22630500Y-16766700D01*
X22650185Y-16699661D01*
X22702989Y-16653906D01*
X22722401Y-16646927D01*
X22736288Y-16643207D01*
X22827613Y-16590480D01*
X23862973Y-15555118D01*
X23924296Y-15521634D01*
X23950654Y-15518800D01*
X29625500Y-15518800D01*
X29692539Y-15538485D01*
X29738294Y-15591289D01*
X29749500Y-15642800D01*
X29749500Y-17214856D01*
X29749502Y-17214882D01*
X29752413Y-17239987D01*
X29752415Y-17239991D01*
X29797793Y-17342764D01*
X29797794Y-17342765D01*
X29877235Y-17422206D01*
X29980009Y-17467585D01*
X30005135Y-17470500D01*
X30453298Y-17470499D01*
X30520337Y-17490183D01*
X30566092Y-17542987D01*
X30573072Y-17562402D01*
X30576793Y-17576288D01*
X30629520Y-17667613D01*
X30629521Y-17667614D01*
X30629522Y-17667615D01*
X35586681Y-22624773D01*
X35620166Y-22686096D01*
X35623000Y-22712454D01*
X35623000Y-24617361D01*
X35603315Y-24684400D01*
X35550511Y-24730155D01*
X35481353Y-24740099D01*
X35417797Y-24711074D01*
X35400629Y-24692854D01*
X35400500Y-24692686D01*
X33613651Y-22905837D01*
X33581557Y-22850250D01*
X33559577Y-22768216D01*
X33527383Y-22712454D01*
X33480524Y-22631290D01*
X33480518Y-22631282D01*
X33368717Y-22519481D01*
X33368709Y-22519475D01*
X33231790Y-22440426D01*
X33231786Y-22440424D01*
X33231784Y-22440423D01*
X33079057Y-22399500D01*
X32920943Y-22399500D01*
X32768216Y-22440423D01*
X32768209Y-22440426D01*
X32631290Y-22519475D01*
X32631282Y-22519481D01*
X32519481Y-22631282D01*
X32519475Y-22631290D01*
X32440426Y-22768209D01*
X32440423Y-22768216D01*
X32399500Y-22920943D01*
X32399500Y-23079057D01*
X32409733Y-23117245D01*
X32440423Y-23231783D01*
X32440426Y-23231790D01*
X32519475Y-23368709D01*
X32519479Y-23368714D01*
X32519480Y-23368716D01*
X32631284Y-23480520D01*
X32631286Y-23480521D01*
X32631290Y-23480524D01*
X32768209Y-23559573D01*
X32768216Y-23559577D01*
X32850250Y-23581557D01*
X32905837Y-23613651D01*
X34463181Y-25170995D01*
X34496666Y-25232318D01*
X34499500Y-25258676D01*
X34499500Y-26565891D01*
X34533608Y-26693187D01*
X34555896Y-26731790D01*
X34599500Y-26807314D01*
X34692686Y-26900500D01*
X34806814Y-26966392D01*
X34934108Y-27000500D01*
X34934110Y-27000500D01*
X35065890Y-27000500D01*
X35065892Y-27000500D01*
X35193186Y-26966392D01*
X35307314Y-26900500D01*
X35400500Y-26807314D01*
X35670995Y-26536819D01*
X35732318Y-26503334D01*
X35758676Y-26500500D01*
X37565890Y-26500500D01*
X37565892Y-26500500D01*
X37693186Y-26466392D01*
X37807314Y-26400500D01*
X41797104Y-22410707D01*
X41797109Y-22410704D01*
X41807312Y-22400500D01*
X41807314Y-22400500D01*
X41900500Y-22307314D01*
X41964314Y-22196784D01*
X42014880Y-22148571D01*
X42083487Y-22135347D01*
X42148352Y-22161315D01*
X42188880Y-22218229D01*
X42195700Y-22258786D01*
X42195700Y-22282157D01*
X42227142Y-22399500D01*
X42236623Y-22434883D01*
X42236626Y-22434890D01*
X42315675Y-22571809D01*
X42315679Y-22571814D01*
X42315680Y-22571816D01*
X42427484Y-22683620D01*
X42427486Y-22683621D01*
X42427490Y-22683624D01*
X42564409Y-22762673D01*
X42564416Y-22762677D01*
X42717143Y-22803600D01*
X42717145Y-22803600D01*
X42875255Y-22803600D01*
X42875257Y-22803600D01*
X43027984Y-22762677D01*
X43164916Y-22683620D01*
X43276720Y-22571816D01*
X43355777Y-22434884D01*
X43396700Y-22282157D01*
X43396700Y-22124043D01*
X43355777Y-21971316D01*
X43355773Y-21971309D01*
X43276724Y-21834390D01*
X43276718Y-21834382D01*
X43233019Y-21790683D01*
X43199534Y-21729360D01*
X43196700Y-21703002D01*
X43196700Y-15642800D01*
X43216385Y-15575761D01*
X43269189Y-15530006D01*
X43320700Y-15518800D01*
X67725500Y-15518800D01*
X67792539Y-15538485D01*
X67838294Y-15591289D01*
X67849500Y-15642800D01*
X67849500Y-17214856D01*
X67849502Y-17214882D01*
X67852413Y-17239987D01*
X67852415Y-17239991D01*
X67897793Y-17342764D01*
X67897794Y-17342765D01*
X67977235Y-17422206D01*
X68080009Y-17467585D01*
X68105135Y-17470500D01*
X69994864Y-17470499D01*
X69994879Y-17470497D01*
X69994882Y-17470497D01*
X70019987Y-17467586D01*
X70019988Y-17467585D01*
X70019991Y-17467585D01*
X70122765Y-17422206D01*
X70202206Y-17342765D01*
X70247585Y-17239991D01*
X70250500Y-17214865D01*
X70250500Y-16794500D01*
X70270185Y-16727461D01*
X70322989Y-16681706D01*
X70374500Y-16670500D01*
X72106845Y-16670500D01*
X72173884Y-16690185D01*
X72194526Y-16706819D01*
X80859291Y-25371584D01*
X80892776Y-25432907D01*
X80887792Y-25502599D01*
X80859291Y-25546946D01*
X79715006Y-26691230D01*
X79714999Y-26691239D01*
X79699292Y-26711067D01*
X79658708Y-26815827D01*
X79658708Y-26928173D01*
X79699292Y-27032933D01*
X79699293Y-27032934D01*
X79714992Y-27052754D01*
X79715002Y-27052765D01*
X79736456Y-27074219D01*
X79769941Y-27135542D01*
X79764957Y-27205234D01*
X79723085Y-27261167D01*
X79657621Y-27285584D01*
X79648775Y-27285900D01*
X68802555Y-27285900D01*
X68735516Y-27266215D01*
X68689761Y-27213411D01*
X68679817Y-27144253D01*
X68708842Y-27080697D01*
X68740553Y-27054513D01*
X68868716Y-26980520D01*
X68980520Y-26868716D01*
X69059577Y-26731784D01*
X69100500Y-26579057D01*
X69100500Y-26420943D01*
X69059577Y-26268216D01*
X69017112Y-26194663D01*
X69000500Y-26132664D01*
X69000500Y-22867334D01*
X69017113Y-22805334D01*
X69038547Y-22768209D01*
X69059577Y-22731784D01*
X69100500Y-22579057D01*
X69100500Y-22420943D01*
X69059577Y-22268216D01*
X69054133Y-22258786D01*
X68980524Y-22131290D01*
X68980518Y-22131282D01*
X68868717Y-22019481D01*
X68868709Y-22019475D01*
X68731790Y-21940426D01*
X68731786Y-21940424D01*
X68731784Y-21940423D01*
X68579057Y-21899500D01*
X68420943Y-21899500D01*
X68268216Y-21940423D01*
X68268209Y-21940426D01*
X68131290Y-22019475D01*
X68131282Y-22019481D01*
X68019481Y-22131282D01*
X68019475Y-22131290D01*
X67940426Y-22268209D01*
X67940423Y-22268216D01*
X67899500Y-22420943D01*
X67899500Y-22579056D01*
X67940423Y-22731783D01*
X67940424Y-22731786D01*
X67982887Y-22805334D01*
X67999500Y-22867334D01*
X67999500Y-26132664D01*
X67982888Y-26194663D01*
X67940423Y-26268215D01*
X67940423Y-26268216D01*
X67899500Y-26420943D01*
X67899500Y-26579057D01*
X67931938Y-26700115D01*
X67940423Y-26731783D01*
X67940426Y-26731790D01*
X68019475Y-26868709D01*
X68019479Y-26868714D01*
X68019480Y-26868716D01*
X68131284Y-26980520D01*
X68259445Y-27054513D01*
X68307660Y-27105079D01*
X68320884Y-27173686D01*
X68294916Y-27238551D01*
X68238002Y-27279080D01*
X68197445Y-27285900D01*
X51517411Y-27285900D01*
X51450372Y-27266215D01*
X51404617Y-27213411D01*
X51397638Y-27194000D01*
X51361577Y-27059416D01*
X51355553Y-27048982D01*
X51282524Y-26922490D01*
X51282518Y-26922482D01*
X51170717Y-26810681D01*
X51170712Y-26810677D01*
X51030129Y-26729512D01*
X50981914Y-26678945D01*
X50968690Y-26610338D01*
X50994658Y-26545473D01*
X51004440Y-26534452D01*
X52620073Y-24918818D01*
X52681396Y-24885334D01*
X52707754Y-24882500D01*
X54255802Y-24882500D01*
X54322841Y-24902185D01*
X54343483Y-24918819D01*
X54387184Y-24962520D01*
X54387186Y-24962521D01*
X54387190Y-24962524D01*
X54524109Y-25041573D01*
X54524116Y-25041577D01*
X54676843Y-25082500D01*
X54676845Y-25082500D01*
X54834955Y-25082500D01*
X54834957Y-25082500D01*
X54987684Y-25041577D01*
X55124616Y-24962520D01*
X55236420Y-24850716D01*
X55315477Y-24713784D01*
X55356400Y-24561057D01*
X55356400Y-24402943D01*
X55315477Y-24250216D01*
X55272126Y-24175129D01*
X55236424Y-24113290D01*
X55236418Y-24113282D01*
X55124617Y-24001481D01*
X55124609Y-24001475D01*
X54987690Y-23922426D01*
X54987686Y-23922424D01*
X54987684Y-23922423D01*
X54834957Y-23881500D01*
X54676843Y-23881500D01*
X54524116Y-23922423D01*
X54524109Y-23922426D01*
X54387190Y-24001475D01*
X54387182Y-24001481D01*
X54343483Y-24045181D01*
X54282160Y-24078666D01*
X54255802Y-24081500D01*
X52550839Y-24081500D01*
X52550823Y-24081499D01*
X52543227Y-24081499D01*
X52437773Y-24081499D01*
X52335912Y-24108793D01*
X52290250Y-24135156D01*
X52244587Y-24161520D01*
X52244584Y-24161522D01*
X49625226Y-26780881D01*
X49563903Y-26814366D01*
X49537545Y-26817200D01*
X49475743Y-26817200D01*
X49323016Y-26858123D01*
X49323009Y-26858126D01*
X49186090Y-26937175D01*
X49186082Y-26937181D01*
X49074281Y-27048982D01*
X49074275Y-27048990D01*
X48995226Y-27185909D01*
X48995223Y-27185916D01*
X48954300Y-27338643D01*
X48954300Y-27496756D01*
X48960530Y-27520007D01*
X48958867Y-27589857D01*
X48919704Y-27647719D01*
X48855475Y-27675223D01*
X48840755Y-27676100D01*
X29866293Y-27676100D01*
X29799254Y-27656415D01*
X29753499Y-27603611D01*
X29743555Y-27534453D01*
X29758905Y-27490101D01*
X29818519Y-27386845D01*
X29838877Y-27351584D01*
X29879800Y-27198857D01*
X29879800Y-27040743D01*
X29838877Y-26888016D01*
X29821620Y-26858126D01*
X29759824Y-26751090D01*
X29759818Y-26751082D01*
X29648017Y-26639281D01*
X29648009Y-26639275D01*
X29511090Y-26560226D01*
X29511086Y-26560224D01*
X29511084Y-26560223D01*
X29358357Y-26519300D01*
X29358356Y-26519300D01*
X29254906Y-26519300D01*
X29192903Y-26502685D01*
X29185991Y-26498694D01*
X29185988Y-26498693D01*
X29084127Y-26471400D01*
X29084126Y-26471400D01*
X19987301Y-26471400D01*
X19920262Y-26451715D01*
X19876816Y-26403695D01*
X19875187Y-26400497D01*
X19794811Y-26242750D01*
X19683741Y-26089876D01*
X19550124Y-25956259D01*
X19397250Y-25845189D01*
X19228887Y-25759403D01*
X19049169Y-25701008D01*
X18862537Y-25671449D01*
X18862532Y-25671449D01*
X18673570Y-25671449D01*
X18673565Y-25671449D01*
X18486932Y-25701008D01*
X18307214Y-25759403D01*
X18138851Y-25845189D01*
X18051630Y-25908559D01*
X17985978Y-25956259D01*
X17985976Y-25956261D01*
X17985975Y-25956261D01*
X17852363Y-26089873D01*
X17852363Y-26089874D01*
X17852361Y-26089876D01*
X17821274Y-26132664D01*
X17741291Y-26242749D01*
X17655505Y-26411112D01*
X17597110Y-26590830D01*
X17567551Y-26777462D01*
X17567551Y-26966435D01*
X17597110Y-27153067D01*
X17650378Y-27317004D01*
X17652373Y-27386845D01*
X17616293Y-27446678D01*
X17553592Y-27477507D01*
X17484178Y-27469543D01*
X17444766Y-27443004D01*
X17152769Y-27151006D01*
X17152764Y-27151002D01*
X17152761Y-27150999D01*
X17132933Y-27135292D01*
X17028173Y-27094708D01*
X16915827Y-27094708D01*
X16811067Y-27135292D01*
X16811066Y-27135292D01*
X16811065Y-27135293D01*
X16791245Y-27150992D01*
X16791234Y-27151002D01*
X15455006Y-28487230D01*
X15454999Y-28487239D01*
X15439292Y-28507067D01*
X15398708Y-28611827D01*
X15398708Y-28611828D01*
X15395332Y-28620543D01*
X15352759Y-28675945D01*
X15286993Y-28699536D01*
X15218912Y-28683825D01*
X15192024Y-28663431D01*
X12853219Y-26324626D01*
X12819734Y-26263303D01*
X12816900Y-26236945D01*
X12816900Y-24175129D01*
X12816901Y-24175116D01*
X12816901Y-24059676D01*
X12816901Y-24059674D01*
X12789607Y-23957813D01*
X12789605Y-23957810D01*
X12789605Y-23957808D01*
X12789604Y-23957807D01*
X12782403Y-23945334D01*
X12765929Y-23877434D01*
X12788781Y-23811407D01*
X12802096Y-23795665D01*
X13119001Y-23478761D01*
X13134708Y-23458933D01*
X13175292Y-23354173D01*
X13175292Y-23241827D01*
X13134708Y-23137067D01*
X13119002Y-23117239D01*
X12521238Y-22519475D01*
X11782769Y-21781006D01*
X11782764Y-21781002D01*
X11782761Y-21780999D01*
X11762933Y-21765292D01*
X11658173Y-21724708D01*
X11545827Y-21724708D01*
X11441067Y-21765292D01*
X11441066Y-21765292D01*
X11441065Y-21765293D01*
X11421245Y-21780992D01*
X11421234Y-21781002D01*
X10085006Y-23117230D01*
X10084999Y-23117239D01*
X10069292Y-23137067D01*
X10028708Y-23241827D01*
X10028708Y-23354173D01*
X10069292Y-23458933D01*
X10069293Y-23458934D01*
X10084992Y-23478754D01*
X10085002Y-23478765D01*
X11421230Y-24814993D01*
X11421234Y-24814996D01*
X11421239Y-24815001D01*
X11441067Y-24830708D01*
X11545827Y-24871292D01*
X11545828Y-24871292D01*
X11658170Y-24871292D01*
X11658173Y-24871292D01*
X11762933Y-24830708D01*
X11782761Y-24815002D01*
X11804219Y-24793543D01*
X11865539Y-24760058D01*
X11935231Y-24765041D01*
X11991166Y-24806912D01*
X12015584Y-24872375D01*
X12015900Y-24881224D01*
X12015900Y-26506926D01*
X12043193Y-26608789D01*
X12060795Y-26639275D01*
X12095920Y-26700113D01*
X12095922Y-26700115D01*
X16948881Y-31553074D01*
X16982366Y-31614397D01*
X16985200Y-31640755D01*
X16985200Y-37632044D01*
X16965515Y-37699083D01*
X16948881Y-37719725D01*
X16412180Y-38256426D01*
X16350857Y-38289911D01*
X16281165Y-38284927D01*
X16225232Y-38243055D01*
X16200815Y-38177591D01*
X16200499Y-38168745D01*
X16200499Y-36925143D01*
X16200499Y-36925136D01*
X16197803Y-36901885D01*
X16197586Y-36900012D01*
X16197585Y-36900010D01*
X16197585Y-36900009D01*
X16152206Y-36797235D01*
X16072765Y-36717794D01*
X16072763Y-36717793D01*
X15969992Y-36672415D01*
X15944865Y-36669500D01*
X14055143Y-36669500D01*
X14055117Y-36669502D01*
X14030012Y-36672413D01*
X14030008Y-36672415D01*
X13927235Y-36717793D01*
X13847794Y-36797234D01*
X13802415Y-36900006D01*
X13802415Y-36900008D01*
X13799500Y-36925131D01*
X13799500Y-38814856D01*
X13799502Y-38814882D01*
X13802413Y-38839987D01*
X13802415Y-38839991D01*
X13847793Y-38942764D01*
X13847794Y-38942765D01*
X13927235Y-39022206D01*
X14030009Y-39067585D01*
X14055135Y-39070500D01*
X15298744Y-39070499D01*
X15365783Y-39090184D01*
X15411538Y-39142987D01*
X15421482Y-39212146D01*
X15392457Y-39275702D01*
X15386425Y-39282180D01*
X13527822Y-41140784D01*
X13527818Y-41140790D01*
X13475092Y-41232112D01*
X13475093Y-41232113D01*
X13447800Y-41333973D01*
X13447800Y-67057928D01*
X13475020Y-67159518D01*
X13473357Y-67229368D01*
X13434193Y-67287230D01*
X13369965Y-67314733D01*
X13356337Y-67315605D01*
X944303Y-67424954D01*
X877093Y-67405861D01*
X830875Y-67353462D01*
X819211Y-67300648D01*
X819335Y-67251355D01*
X947016Y-16323675D01*
X947134Y-16318623D01*
X1014265Y-14785750D01*
X1015415Y-14773484D01*
X1019508Y-14745093D01*
X1233700Y-13259306D01*
X1236056Y-13247245D01*
X1603488Y-11762630D01*
X1607037Y-11750838D01*
X2119764Y-10310586D01*
X2124475Y-10299182D01*
X2777789Y-8917031D01*
X2783590Y-8906190D01*
X3570876Y-7595665D01*
X3577737Y-7585433D01*
X4491422Y-6359324D01*
X4499258Y-6349833D01*
X5530582Y-5220152D01*
X5539298Y-5211508D01*
X6678113Y-4189190D01*
X6687665Y-4181437D01*
X7112750Y-3870097D01*
X48349500Y-3870097D01*
X48349500Y-4129902D01*
X48390140Y-4386493D01*
X48470422Y-4633576D01*
X48551534Y-4792764D01*
X48588366Y-4865051D01*
X48741069Y-5075229D01*
X48924771Y-5258931D01*
X49134949Y-5411634D01*
X49282445Y-5486787D01*
X49366423Y-5529577D01*
X49366425Y-5529577D01*
X49366428Y-5529579D01*
X49613507Y-5609860D01*
X49738408Y-5629642D01*
X49870098Y-5650500D01*
X49870103Y-5650500D01*
X50129902Y-5650500D01*
X50243298Y-5632539D01*
X50386493Y-5609860D01*
X50633572Y-5529579D01*
X50865051Y-5411634D01*
X51075229Y-5258931D01*
X51258931Y-5075229D01*
X51411634Y-4865051D01*
X51529579Y-4633572D01*
X51609860Y-4386493D01*
X51632539Y-4243298D01*
X51650500Y-4129902D01*
X51650500Y-3870097D01*
X51628947Y-3734021D01*
X51609860Y-3613507D01*
X51529579Y-3366428D01*
X51529577Y-3366425D01*
X51529577Y-3366423D01*
X51483820Y-3276621D01*
X51411634Y-3134949D01*
X51258931Y-2924771D01*
X51075229Y-2741069D01*
X50865051Y-2588366D01*
X50792764Y-2551534D01*
X50633576Y-2470422D01*
X50386493Y-2390140D01*
X50129902Y-2349500D01*
X50129897Y-2349500D01*
X49870103Y-2349500D01*
X49870098Y-2349500D01*
X49613506Y-2390140D01*
X49366423Y-2470422D01*
X49134945Y-2588368D01*
X48924774Y-2741066D01*
X48924768Y-2741071D01*
X48741071Y-2924768D01*
X48741066Y-2924774D01*
X48588368Y-3134945D01*
X48470422Y-3366423D01*
X48390140Y-3613506D01*
X48349500Y-3870097D01*
X7112750Y-3870097D01*
X7923048Y-3276621D01*
X7933286Y-3269877D01*
X9253242Y-2491311D01*
X9264099Y-2485613D01*
X10655816Y-1840878D01*
X10667185Y-1836280D01*
X12117208Y-1331943D01*
X12128955Y-1328498D01*
X13623538Y-969255D01*
X13635556Y-966988D01*
X15159964Y-756641D01*
X15172120Y-755570D01*
X16715651Y-696093D01*
X16720426Y-696002D01*
X83279573Y-696002D01*
X83284347Y-696093D01*
G37*
%TD.AperFunction*%
%TA.AperFunction,Conductor*%
G36*
X47872184Y-48287985D02*
G01*
X47892826Y-48304619D01*
X57762454Y-58174247D01*
X57795939Y-58235570D01*
X57790955Y-58305262D01*
X57762455Y-58349609D01*
X57670378Y-58441686D01*
X57670375Y-58441690D01*
X57591326Y-58578609D01*
X57591323Y-58578616D01*
X57550400Y-58731343D01*
X57550400Y-58837600D01*
X57547849Y-58846285D01*
X57549138Y-58855247D01*
X57538159Y-58879287D01*
X57530715Y-58904639D01*
X57523874Y-58910566D01*
X57520113Y-58918803D01*
X57497878Y-58933092D01*
X57477911Y-58950394D01*
X57467396Y-58952681D01*
X57461335Y-58956577D01*
X57426400Y-58961600D01*
X57250755Y-58961600D01*
X57183716Y-58941915D01*
X57163074Y-58925281D01*
X46834420Y-48596627D01*
X46800935Y-48535304D01*
X46805919Y-48465612D01*
X46847791Y-48409679D01*
X46860086Y-48401568D01*
X46952316Y-48348320D01*
X46996017Y-48304619D01*
X47057340Y-48271134D01*
X47083698Y-48268300D01*
X47805145Y-48268300D01*
X47872184Y-48287985D01*
G37*
%TD.AperFunction*%
%TA.AperFunction,Conductor*%
G36*
X50818974Y-27914887D02*
G01*
X50845334Y-27916773D01*
X50854387Y-27922591D01*
X50861427Y-27924123D01*
X50889681Y-27945274D01*
X50951287Y-28006880D01*
X51042612Y-28059607D01*
X51144473Y-28086900D01*
X51144475Y-28086900D01*
X80470325Y-28086900D01*
X80470327Y-28086900D01*
X80572188Y-28059607D01*
X80584664Y-28052404D01*
X80652564Y-28035930D01*
X80718591Y-28058781D01*
X80734347Y-28072109D01*
X81051230Y-28388993D01*
X81051234Y-28388996D01*
X81051239Y-28389001D01*
X81071067Y-28404708D01*
X81175827Y-28445292D01*
X81175828Y-28445292D01*
X81288170Y-28445292D01*
X81288173Y-28445292D01*
X81392933Y-28404708D01*
X81412761Y-28389002D01*
X81704767Y-28096995D01*
X81766089Y-28063511D01*
X81835780Y-28068495D01*
X81891714Y-28110366D01*
X81916131Y-28175831D01*
X81910378Y-28222996D01*
X81857110Y-28386932D01*
X81827551Y-28573564D01*
X81827551Y-28762537D01*
X81857111Y-28949170D01*
X81857111Y-28949173D01*
X81912970Y-29121086D01*
X81914965Y-29190927D01*
X81882720Y-29247085D01*
X81570424Y-29559382D01*
X81509103Y-29592866D01*
X81482745Y-29595700D01*
X72432398Y-29595700D01*
X72365359Y-29576015D01*
X72344717Y-29559381D01*
X72301017Y-29515681D01*
X72301009Y-29515675D01*
X72164090Y-29436626D01*
X72164086Y-29436624D01*
X72164084Y-29436623D01*
X72011357Y-29395700D01*
X71853243Y-29395700D01*
X71700516Y-29436623D01*
X71700509Y-29436626D01*
X71563590Y-29515675D01*
X71563582Y-29515681D01*
X71451781Y-29627482D01*
X71451775Y-29627490D01*
X71372726Y-29764409D01*
X71372723Y-29764416D01*
X71331800Y-29917143D01*
X71331800Y-30075257D01*
X71365415Y-30200708D01*
X71372723Y-30227983D01*
X71372726Y-30227990D01*
X71451775Y-30364909D01*
X71451779Y-30364914D01*
X71451780Y-30364916D01*
X71563584Y-30476720D01*
X71563586Y-30476721D01*
X71563590Y-30476724D01*
X71700509Y-30555773D01*
X71700516Y-30555777D01*
X71853243Y-30596700D01*
X71853245Y-30596700D01*
X72011355Y-30596700D01*
X72011357Y-30596700D01*
X72164084Y-30555777D01*
X72301016Y-30476720D01*
X72344717Y-30433019D01*
X72406040Y-30399534D01*
X72432398Y-30396700D01*
X81752725Y-30396700D01*
X81752727Y-30396700D01*
X81854588Y-30369407D01*
X81945913Y-30316680D01*
X82449165Y-29813426D01*
X82510486Y-29779943D01*
X82575158Y-29783177D01*
X82709819Y-29826932D01*
X82746932Y-29838991D01*
X82933565Y-29868551D01*
X82933570Y-29868551D01*
X83122537Y-29868551D01*
X83309169Y-29838991D01*
X83488883Y-29780598D01*
X83657250Y-29694811D01*
X83810124Y-29583741D01*
X83943741Y-29450124D01*
X84054811Y-29297250D01*
X84140598Y-29128883D01*
X84194800Y-28962066D01*
X84234238Y-28904392D01*
X84298597Y-28877194D01*
X84367443Y-28889109D01*
X84400412Y-28912705D01*
X86116181Y-30628474D01*
X86149666Y-30689797D01*
X86152500Y-30716155D01*
X86152500Y-34022699D01*
X86132815Y-34089738D01*
X86080011Y-34135493D01*
X86010853Y-34145437D01*
X85978416Y-34136134D01*
X85969996Y-34132416D01*
X85969991Y-34132415D01*
X85944865Y-34129500D01*
X84055143Y-34129500D01*
X84055117Y-34129502D01*
X84030012Y-34132413D01*
X84030008Y-34132415D01*
X83927235Y-34177793D01*
X83847794Y-34257234D01*
X83802415Y-34360006D01*
X83802415Y-34360008D01*
X83799500Y-34385131D01*
X83799500Y-36274856D01*
X83799502Y-36274882D01*
X83802413Y-36299987D01*
X83802415Y-36299991D01*
X83847793Y-36402764D01*
X83847794Y-36402765D01*
X83927235Y-36482206D01*
X84030009Y-36527585D01*
X84055135Y-36530500D01*
X84503299Y-36530499D01*
X84570338Y-36550183D01*
X84616093Y-36602987D01*
X84623072Y-36622402D01*
X84626793Y-36636287D01*
X84679520Y-36727613D01*
X84754087Y-36802180D01*
X84845413Y-36854907D01*
X84947273Y-36882200D01*
X85052727Y-36882200D01*
X85070745Y-36882200D01*
X85137784Y-36901885D01*
X85158426Y-36918519D01*
X85714881Y-37474974D01*
X85748366Y-37536297D01*
X85751200Y-37562655D01*
X85751200Y-41605500D01*
X85731515Y-41672539D01*
X85678711Y-41718294D01*
X85627200Y-41729500D01*
X84055143Y-41729500D01*
X84055117Y-41729502D01*
X84030012Y-41732413D01*
X84030008Y-41732415D01*
X83927235Y-41777793D01*
X83847794Y-41857234D01*
X83802415Y-41960006D01*
X83802415Y-41960008D01*
X83799500Y-41985131D01*
X83799500Y-42375400D01*
X83779815Y-42442439D01*
X83727011Y-42488194D01*
X83675500Y-42499400D01*
X43465639Y-42499400D01*
X43465623Y-42499399D01*
X43458027Y-42499399D01*
X43352573Y-42499399D01*
X43284666Y-42517595D01*
X43250712Y-42526693D01*
X43188334Y-42562707D01*
X43160018Y-42579056D01*
X43159384Y-42579422D01*
X41289526Y-44449281D01*
X41228203Y-44482766D01*
X41201845Y-44485600D01*
X41140043Y-44485600D01*
X40987316Y-44526523D01*
X40987309Y-44526526D01*
X40850390Y-44605575D01*
X40850382Y-44605581D01*
X40738581Y-44717382D01*
X40738575Y-44717390D01*
X40659526Y-44854309D01*
X40659523Y-44854314D01*
X40626491Y-44977594D01*
X40590126Y-45037254D01*
X40527279Y-45067783D01*
X40506716Y-45069500D01*
X16324499Y-45069500D01*
X16257460Y-45049815D01*
X16211705Y-44997011D01*
X16200499Y-44945500D01*
X16200499Y-44525143D01*
X16200499Y-44525136D01*
X16199569Y-44517113D01*
X16197586Y-44500012D01*
X16197585Y-44500010D01*
X16197585Y-44500009D01*
X16152206Y-44397235D01*
X16072765Y-44317794D01*
X16044546Y-44305334D01*
X15969992Y-44272415D01*
X15944868Y-44269500D01*
X15944865Y-44269500D01*
X15531910Y-44269500D01*
X15464871Y-44249815D01*
X15419116Y-44197011D01*
X15409172Y-44127853D01*
X15438197Y-44064297D01*
X15475615Y-44035015D01*
X15522407Y-44011173D01*
X15629199Y-43956760D01*
X15782073Y-43845690D01*
X15915690Y-43712073D01*
X16026760Y-43559199D01*
X16112547Y-43390832D01*
X16170940Y-43211118D01*
X16186377Y-43113651D01*
X16200500Y-43024486D01*
X16200500Y-42835513D01*
X16170940Y-42648881D01*
X16122370Y-42499400D01*
X16112547Y-42469168D01*
X16112545Y-42469165D01*
X16112545Y-42469163D01*
X16026759Y-42300800D01*
X16003085Y-42268216D01*
X15915690Y-42147927D01*
X15782073Y-42014310D01*
X15629199Y-41903240D01*
X15460836Y-41817454D01*
X15281118Y-41759059D01*
X15094486Y-41729500D01*
X15094481Y-41729500D01*
X14905519Y-41729500D01*
X14905514Y-41729500D01*
X14718881Y-41759059D01*
X14539160Y-41817455D01*
X14429094Y-41873537D01*
X14426389Y-41874044D01*
X14424311Y-41875846D01*
X14392257Y-41880454D01*
X14360425Y-41886433D01*
X14357876Y-41885398D01*
X14355153Y-41885790D01*
X14325687Y-41872333D01*
X14295685Y-41860156D01*
X14294100Y-41857908D01*
X14291597Y-41856765D01*
X14274085Y-41829516D01*
X14255428Y-41803050D01*
X14254855Y-41799593D01*
X14253823Y-41797987D01*
X14248800Y-41763052D01*
X14248800Y-41603955D01*
X14268485Y-41536916D01*
X14285119Y-41516274D01*
X15938094Y-39863299D01*
X17706180Y-38095213D01*
X17758907Y-38003888D01*
X17786200Y-37902027D01*
X17786200Y-37796573D01*
X17786200Y-31948000D01*
X17805885Y-31880961D01*
X17858689Y-31835206D01*
X17910200Y-31824000D01*
X22027402Y-31824000D01*
X22094441Y-31843685D01*
X22140196Y-31896489D01*
X22150140Y-31965647D01*
X22121115Y-32029203D01*
X22115083Y-32035681D01*
X22019481Y-32131282D01*
X22019475Y-32131290D01*
X21940426Y-32268209D01*
X21940422Y-32268218D01*
X21918440Y-32350252D01*
X21886347Y-32405837D01*
X20692686Y-33599500D01*
X20599502Y-33692683D01*
X20599500Y-33692686D01*
X20533608Y-33806812D01*
X20499500Y-33934108D01*
X20499500Y-38632664D01*
X20482888Y-38694663D01*
X20440423Y-38768215D01*
X20440423Y-38768216D01*
X20399500Y-38920943D01*
X20399500Y-39079057D01*
X20414946Y-39136700D01*
X20440423Y-39231783D01*
X20440424Y-39231786D01*
X20482887Y-39305334D01*
X20499500Y-39367334D01*
X20499500Y-42132664D01*
X20482888Y-42194663D01*
X20440423Y-42268215D01*
X20440423Y-42268216D01*
X20399500Y-42420943D01*
X20399500Y-42579057D01*
X20419578Y-42653987D01*
X20440423Y-42731783D01*
X20440426Y-42731790D01*
X20519475Y-42868709D01*
X20519479Y-42868714D01*
X20519480Y-42868716D01*
X20631284Y-42980520D01*
X20631286Y-42980521D01*
X20631290Y-42980524D01*
X20707427Y-43024481D01*
X20768216Y-43059577D01*
X20850250Y-43081557D01*
X20905837Y-43113651D01*
X22099500Y-44307314D01*
X22192686Y-44400500D01*
X22226113Y-44419799D01*
X22306814Y-44466392D01*
X22434107Y-44500500D01*
X22434108Y-44500500D01*
X30132666Y-44500500D01*
X30194665Y-44517112D01*
X30268216Y-44559577D01*
X30420943Y-44600500D01*
X30420945Y-44600500D01*
X30579055Y-44600500D01*
X30579057Y-44600500D01*
X30731784Y-44559577D01*
X30868716Y-44480520D01*
X30980520Y-44368716D01*
X31059577Y-44231784D01*
X31100500Y-44079057D01*
X31100500Y-43920943D01*
X31059577Y-43768216D01*
X31059573Y-43768209D01*
X30980524Y-43631290D01*
X30980518Y-43631282D01*
X30868717Y-43519481D01*
X30868709Y-43519475D01*
X30731790Y-43440426D01*
X30731786Y-43440424D01*
X30731784Y-43440423D01*
X30579057Y-43399500D01*
X30420943Y-43399500D01*
X30268216Y-43440423D01*
X30268213Y-43440424D01*
X30194666Y-43482887D01*
X30132666Y-43499500D01*
X22758676Y-43499500D01*
X22691637Y-43479815D01*
X22670995Y-43463181D01*
X21613651Y-42405837D01*
X21609019Y-42398905D01*
X21604780Y-42395962D01*
X21597570Y-42381771D01*
X21586771Y-42365608D01*
X21583661Y-42358100D01*
X21559577Y-42268216D01*
X21513051Y-42187629D01*
X21509939Y-42180116D01*
X21507743Y-42159699D01*
X21500500Y-42132664D01*
X21500500Y-39367334D01*
X21517113Y-39305334D01*
X21534221Y-39275702D01*
X21559577Y-39231784D01*
X21600500Y-39079057D01*
X21600500Y-38920943D01*
X21559577Y-38768216D01*
X21517112Y-38694663D01*
X21512961Y-38679174D01*
X21505523Y-38667599D01*
X21500500Y-38632664D01*
X21500500Y-38420943D01*
X22399500Y-38420943D01*
X22399500Y-38579057D01*
X22430477Y-38694663D01*
X22440423Y-38731783D01*
X22440426Y-38731790D01*
X22519475Y-38868709D01*
X22519479Y-38868714D01*
X22519480Y-38868716D01*
X22631284Y-38980520D01*
X22631286Y-38980521D01*
X22631290Y-38980524D01*
X22768209Y-39059573D01*
X22768216Y-39059577D01*
X22920943Y-39100500D01*
X22920945Y-39100500D01*
X22928099Y-39101442D01*
X22991996Y-39129707D01*
X22999597Y-39136700D01*
X24363299Y-40500402D01*
X24396784Y-40561725D01*
X24398556Y-40571893D01*
X24399498Y-40579050D01*
X24440423Y-40731783D01*
X24440426Y-40731790D01*
X24519475Y-40868709D01*
X24519479Y-40868714D01*
X24519480Y-40868716D01*
X24631284Y-40980520D01*
X24631286Y-40980521D01*
X24631290Y-40980524D01*
X24768209Y-41059573D01*
X24768216Y-41059577D01*
X24920943Y-41100500D01*
X24920945Y-41100500D01*
X25079055Y-41100500D01*
X25079057Y-41100500D01*
X25231784Y-41059577D01*
X25368716Y-40980520D01*
X25480520Y-40868716D01*
X25559577Y-40731784D01*
X25600500Y-40579057D01*
X25600500Y-40420943D01*
X25559577Y-40268216D01*
X25559573Y-40268209D01*
X25480524Y-40131290D01*
X25480518Y-40131282D01*
X25368717Y-40019481D01*
X25368709Y-40019475D01*
X25231790Y-39940426D01*
X25231786Y-39940424D01*
X25231784Y-39940423D01*
X25079057Y-39899500D01*
X25079050Y-39899498D01*
X25071893Y-39898556D01*
X25007997Y-39870287D01*
X25000402Y-39863299D01*
X23636700Y-38499597D01*
X23603215Y-38438274D01*
X23601442Y-38428099D01*
X23600500Y-38420945D01*
X23600500Y-38420943D01*
X23559577Y-38268216D01*
X23552770Y-38256426D01*
X23480524Y-38131290D01*
X23480518Y-38131282D01*
X23368717Y-38019481D01*
X23368709Y-38019475D01*
X23231790Y-37940426D01*
X23231786Y-37940424D01*
X23231784Y-37940423D01*
X23079057Y-37899500D01*
X22920943Y-37899500D01*
X22768216Y-37940423D01*
X22768209Y-37940426D01*
X22631290Y-38019475D01*
X22631282Y-38019481D01*
X22519481Y-38131282D01*
X22519475Y-38131290D01*
X22440426Y-38268209D01*
X22440423Y-38268216D01*
X22399500Y-38420943D01*
X21500500Y-38420943D01*
X21500500Y-34258675D01*
X21520185Y-34191636D01*
X21536814Y-34170998D01*
X22594163Y-33113649D01*
X22649748Y-33081558D01*
X22731784Y-33059577D01*
X22868716Y-32980520D01*
X22980520Y-32868716D01*
X23059577Y-32731784D01*
X23100500Y-32579057D01*
X23100500Y-32420943D01*
X23059577Y-32268216D01*
X23059573Y-32268209D01*
X22980524Y-32131290D01*
X22980518Y-32131282D01*
X22884917Y-32035681D01*
X22851432Y-31974358D01*
X22856416Y-31904666D01*
X22898288Y-31848733D01*
X22963752Y-31824316D01*
X22972598Y-31824000D01*
X25305602Y-31824000D01*
X25372641Y-31843685D01*
X25393283Y-31860319D01*
X25436984Y-31904020D01*
X25436986Y-31904021D01*
X25436990Y-31904024D01*
X25500036Y-31940423D01*
X25573916Y-31983077D01*
X25726643Y-32024000D01*
X25726645Y-32024000D01*
X25884755Y-32024000D01*
X25884757Y-32024000D01*
X26037484Y-31983077D01*
X26174416Y-31904020D01*
X26286220Y-31792216D01*
X26365277Y-31655284D01*
X26406200Y-31502557D01*
X26406200Y-31344443D01*
X26365277Y-31191716D01*
X26365273Y-31191709D01*
X26286224Y-31054790D01*
X26286218Y-31054782D01*
X26174417Y-30942981D01*
X26174409Y-30942975D01*
X26037490Y-30863926D01*
X26037486Y-30863924D01*
X26037484Y-30863923D01*
X25884757Y-30823000D01*
X25726643Y-30823000D01*
X25573916Y-30863923D01*
X25573909Y-30863926D01*
X25436990Y-30942975D01*
X25436982Y-30942981D01*
X25393283Y-30986681D01*
X25331960Y-31020166D01*
X25305602Y-31023000D01*
X17602955Y-31023000D01*
X17535916Y-31003315D01*
X17515274Y-30986681D01*
X16976568Y-30447975D01*
X16943083Y-30386652D01*
X16948067Y-30316960D01*
X16989939Y-30261027D01*
X17019457Y-30244667D01*
X17028169Y-30241292D01*
X17028173Y-30241292D01*
X17132933Y-30200708D01*
X17152761Y-30185002D01*
X18489001Y-28848761D01*
X18504708Y-28828933D01*
X18545292Y-28724173D01*
X18545292Y-28611827D01*
X18545292Y-28601100D01*
X18564977Y-28534061D01*
X18617781Y-28488306D01*
X18669292Y-28477100D01*
X50069325Y-28477100D01*
X50069327Y-28477100D01*
X50171188Y-28449807D01*
X50262513Y-28397080D01*
X50714319Y-27945274D01*
X50722264Y-27940935D01*
X50727690Y-27933688D01*
X50752449Y-27924453D01*
X50775642Y-27911789D01*
X50784671Y-27912434D01*
X50793154Y-27909271D01*
X50818974Y-27914887D01*
G37*
%TD.AperFunction*%
%TD*%
M02*
