M48
; DRILL file KiCad 10.0.4 date 2026-07-24T18:57:46
; FORMAT={-:-/ absolute / metric / decimal}
; #@! TF.CreationDate,2026-07-24T18:57:46+05:30
; #@! TF.GenerationSoftware,Kicad,Pcbnew,10.0.4
; #@! TF.FileFunction,MixedPlating,1,2
FMAT,2
METRIC
; #@! TA.AperFunction,Plated,PTH,ViaDrill
T1C0.300
; #@! TA.AperFunction,Plated,PTH,ComponentDrill
T2C0.730
; #@! TA.AperFunction,Plated,PTH,ComponentDrill
T3C0.900
; #@! TA.AperFunction,Plated,PTH,ComponentDrill
T4C1.000
; #@! TA.AperFunction,Plated,PTH,ComponentDrill
T5C4.500
; #@! TA.AperFunction,NonPlated,NPTH,ComponentDrill
T6C0.900
; #@! TA.AperFunction,NonPlated,NPTH,ComponentDrill
T7C3.000
; #@! TA.AperFunction,NonPlated,NPTH,ComponentDrill
T8C3.200
%
G90
G05
T1
X0.983Y-16.183
X1.07Y-14.7
X1.07Y-18.7
X1.07Y-101.1
X1.07Y-104.1
X7.0Y-115.0
X7.71Y-59.34
X8.73Y-29.57
X8.73Y-32.57
X15.0Y-65.5
X18.5Y-62.5
X19.5Y-55.5
X19.5Y-70.0
X20.0Y-46.0
X20.47Y-110.94
X20.62Y-107.06
X21.0Y-44.0
X21.75Y-45.75
X22.0Y-52.0
X22.5Y-39.0
X22.8Y-71.55
X22.81Y-60.95
X23.5Y-47.5
X23.5Y-58.0
X23.5Y-73.5
X23.5Y-75.0
X24.5Y-44.0
X25.0Y-40.5
X25.0Y-102.0
X25.5Y-64.5
X25.57Y-59.5
X26.0Y-54.0
X27.0Y-30.5
X27.0Y-41.5
X27.0Y-50.0
X27.0Y-58.0
X29.0Y-48.0
X29.0Y-67.5
X29.5Y-29.0
X29.5Y-41.5
X30.0Y-50.0
X30.5Y-58.5
X31.0Y-54.0
X31.0Y-102.0
X31.561Y-38.487
X32.0Y-22.0
X32.0Y-44.0
X32.5Y-30.0
X32.5Y-65.5
X32.5Y-79.0
X33.0Y-36.5
X33.0Y-41.5
X33.0Y-59.5
X33.5Y-32.0
X34.0Y-65.5
X34.5Y-25.0
X35.0Y-47.0
X35.0Y-51.0
X35.0Y-54.0
X35.0Y-61.5
X35.0Y-72.0
X35.0Y-86.5
X35.5Y-80.0
X36.0Y-32.0
X36.0Y-41.5
X36.0Y-54.0
X36.0Y-113.0
X36.5Y-88.0
X36.5Y-114.5
X37.0Y-36.5
X37.0Y-47.0
X37.0Y-64.5
X37.5Y-78.0
X38.0Y-45.0
X38.1Y-43.35
X38.5Y-73.0
X38.5Y-83.0
X38.7Y-50.1
X39.45Y-52.2
X39.5Y-109.5
X40.0Y-71.5
X40.0Y-84.5
X40.5Y-81.0
X40.8Y-86.25
X41.0Y-35.0
X41.0Y-78.0
X41.7Y-85.65
X41.7Y-101.85
X41.7Y-104.4
X42.0Y-59.5
X42.0Y-81.45
X42.0Y-82.5
X42.15Y-68.7
X42.5Y-57.0
X42.6Y-106.05
X43.0Y-54.0
X43.0Y-63.5
X43.35Y-87.3
X43.5Y-47.0
X43.5Y-52.0
X43.5Y-78.0
X43.65Y-67.2
X44.1Y-51.0
X44.5Y-59.0
X45.0Y-69.0
X45.5Y-77.0
X45.6Y-85.05
X45.75Y-52.65
X46.5Y-48.0
X47.0Y-117.0
X47.45Y-51.96
X48.028Y-68.868
X48.5Y-71.0
X48.5Y-87.5
X48.99Y-40.25
X49.5Y-63.0
X50.0Y-44.0
X50.25Y-85.05
X50.4Y-67.2
X50.45Y-51.96
X50.5Y-59.5
X50.5Y-74.0
X50.5Y-95.0
X50.55Y-75.0
X51.0Y-38.0
X51.0Y-54.0
X51.579Y-61.28
X51.75Y-60.45
X51.9Y-64.5
X51.9Y-65.55
X52.0Y-57.5
X52.0Y-63.5
X52.5Y-41.5
X52.65Y-117.6
X53.5Y-39.0
X54.0Y-67.0
X54.0Y-70.0
X54.5Y-46.0
X54.5Y-73.0
X54.9Y-72.15
X55.5Y-64.35
X55.5Y-66.0
X55.95Y-60.0
X56.0Y-115.0
X56.5Y-67.0
X57.0Y-86.5
X57.0Y-88.5
X57.45Y-75.75
X57.5Y-55.5
X57.6Y-115.65
X58.0Y-64.0
X58.35Y-69.6
X58.35Y-104.25
X58.5Y-35.0
X58.5Y-38.0
X58.5Y-74.7
X58.65Y-105.75
X58.65Y-110.85
X59.0Y-56.5
X59.0Y-63.0
X59.0Y-66.5
X59.0Y-78.0
X59.0Y-98.5
X59.2Y-52.7
X59.3Y-108.5
X59.5Y-72.0
X60.0Y-75.5
X60.15Y-118.1
X60.5Y-57.5
X60.5Y-116.0
X60.75Y-97.5
X60.75Y-99.6
X60.95Y-60.0
X61.0Y-36.5
X61.0Y-64.5
X61.0Y-113.0
X61.11Y-114.51
X61.5Y-53.0
X61.5Y-56.0
X61.5Y-74.0
X62.0Y-87.5
X62.0Y-95.5
X62.2Y-106.2
X62.63Y-39.05
X62.9Y-95.5
X63.0Y-48.5
X63.5Y-44.0
X64.0Y-39.0
X64.05Y-94.2
X64.05Y-96.3
X65.0Y-27.0
X65.0Y-41.0
X65.5Y-73.0
X65.5Y-76.5
X66.3Y-62.7
X66.5Y-30.0
X66.5Y-31.0
X66.5Y-47.0
X67.0Y-64.5
X67.0Y-65.5
X67.0Y-78.0
X67.09Y-25.0
X67.5Y-35.5
X67.5Y-39.0
X68.5Y-41.5
X69.0Y-23.0
X69.0Y-45.0
X69.05Y-33.0
X69.05Y-36.53
X69.5Y-30.0
X69.5Y-57.0
X69.5Y-62.5
X69.5Y-69.5
X69.5Y-96.5
X70.0Y-55.5
X70.0Y-60.0
X70.0Y-65.0
X70.5Y-40.5
X70.65Y-43.35
X71.0Y-21.0
X71.0Y-27.0
X71.0Y-33.5
X71.0Y-52.0
X71.0Y-72.5
X71.1Y-50.4
X71.55Y-42.0
X72.0Y-70.5
X72.0Y-94.0
X72.5Y-44.0
X72.5Y-51.0
X73.0Y-29.0
X73.0Y-40.5
X73.0Y-56.0
X73.5Y-46.0
X73.5Y-61.2
X74.0Y-33.5
X74.0Y-50.5
X74.0Y-52.0
X74.1Y-44.25
X75.15Y-45.0
X75.5Y-39.0
X75.75Y-36.3
X75.93Y-33.35
X76.0Y-50.5
X76.0Y-75.0
X76.5Y-29.0
X77.0Y-65.5
X78.0Y-20.0
X78.0Y-50.0
X78.0Y-55.0
X78.5Y-40.0
X79.0Y-41.5
X79.5Y-49.0
X79.8Y-54.9
X80.0Y-63.0
X80.5Y-37.0
X80.7Y-51.3
X81.5Y-44.0
X82.0Y-40.0
X82.0Y-57.0
X82.2Y-52.8
X82.2Y-54.9
X83.0Y-44.0
X84.5Y-64.5
X86.0Y-48.0
X86.0Y-68.0
X88.0Y-58.5
T2
X33.0Y-69.1
X34.5Y-69.1
X36.0Y-69.1
X37.5Y-69.1
X39.0Y-69.1
X40.5Y-69.1
X59.5Y-70.0
X61.0Y-70.0
X62.5Y-70.0
X64.0Y-70.0
X65.5Y-70.0
X67.0Y-70.0
T3
X11.602Y-23.298
X13.398Y-21.502
X15.0Y-35.33
X15.0Y-37.87
X15.0Y-42.93
X15.0Y-45.47
X16.972Y-28.668
X18.768Y-26.872
X21.43Y-13.73
X21.43Y-16.27
X30.95Y-13.73
X30.95Y-16.27
X69.05Y-13.73
X69.05Y-16.27
X78.57Y-13.73
X78.57Y-16.27
X81.232Y-26.872
X83.028Y-28.668
X85.0Y-35.33
X85.0Y-37.87
X85.0Y-42.93
X85.0Y-45.47
X86.602Y-21.502
X88.398Y-23.298
T4
X85.68Y-104.8
X88.18Y-104.8
T5
X83.0Y-114.0
X90.2Y-114.0
T6
X4.5Y-116.73
X7.5Y-116.73
X14.0Y-116.73
X17.0Y-116.73
X71.5Y-116.73
X74.5Y-116.73
T7
X50.0Y-4.0
T8
X17.25Y-75.0
X17.25Y-93.0
X82.75Y-75.0
X82.75Y-93.0
M30
